<svg xmlns="http://www.w3.org/2000/svg" xmlns:xlink="http://www.w3.org/1999/xlink" width="100%" height="100%" viewBox="0 0 432 288" preserveAspectRatio="xMidYMid meet" ><g style="fill:rgb(245,245,245);fill-rule:evenodd;stroke:rgb(245,245,245);stroke-width:0.1;" id="l1"><path d="M0,0h214l16,2l1,1v4h-1c-1-1-1,0-3,2l-7,1h-2h1v2h-2v-1l1-1c-2,0-2,2-6,10l-1,1c-3,0-3,1-5,2c-3,0-3,1-4,2h-1v-1l1-1l-1,1l-2,1h-1l-1-1v3h-2v4h-1l-1-3v4h-1l-4-1v7l-1,1h-1v3l-1,1h-1l1,1v2l-1,1h-1v7l-2,8c-2,0-2,1-6,5l-4,2h-2v2l-2,1c-2,0-2,1-3,2c-2,0-2,1-3,2l-2,1c-2,0-2,1-5,4c-3,0-3,1-4,2l-2,1c-2,0-2,1-4,3c-2,0-2,1-3,2l-2,1c-2,0-2,1-4,3l-2,1c-2,0-2,1-4,3c-2,0-2,1-4,3c-3,0-3,2-7,6h-1v2l-2,1c-2,0-2,1-3,2c-2,0-2,1-7,6h-1v2l-1,1l-3,3c-2,0-2,4-1,4l1,2c0,2,1,2,3,4c0,2,1,2,2,3c0,2,1,2,2,3c0,2,1,2,2,3c0,2,1,2,3,4c0,2,1,2,7,8c0,2,1,2,6,7l7,7v1h2l10,10v1h2l5,5v1h2l3,3v1h2l3,3v1h2l2,2v1h2v1l-1,4l-1,1h-1l1,1v1l-4,8l-1,1l2-2h1v-2l1-2l2-2h1v-2h1v2l-1,2h-1v5h1v1v-5l1-2h1l1,3c0,7,1,7,2,8l-1-2v-3l2-1h1v-2h1l1,1v-4h1v4l-4,4h-1h3v3h-1l-1-1l1,1v1h-1l-1-1v1l-1,2h-2v2h-1v2h2v1h-4l-2-1c0,3,4,2,5,2v7l1-3l1-2h1v-3l1-1h1v-2h-3v-1l1-1l2-1h5v3l-1,1h-1c0,3,4,3,4,2l3-3h1l-1-1v-1h2l-2-2v-1h1l4,2l-2-2v-1l2-2h1c1,1,1,0,2-1h1v-2h1l1,2v-1l2-4h1l1,1c0-2-3-2-3-1l-1,1c-2,0-2,1-3,2h-1v-1l2-2c2,0,2-1,3-2l8-1h5l3,1v-2h5c0,2,2,2,2,1c2,0,2-1,3-2h5v4l-2,1h-2v2l-1,1c-4,0-4,1-5,2h-2v4c-2,0-1,1-1,2h-13v-1h2l-2-1v-1l3-3h1c0-2-3-2-3-1l-2,1h-1l-1-2v2h-3l1,1v1h-1c-2-1-2,1-3,2h-1l-1-1l1,1v1l1-1h1v5h3v1l-1,1l-3,1c-3,0-3,1-4,2h-1l1,1v1l-2,1h-3v-3l1-1h3c0-2-3-2-3-1l-1,1h-1v2h-1v5l-1,1c-3,0-2,1-2,3h1l2,1v1l-1,1c2,0,2-1,4-3h1v2l-1,7l1-1l3-1h1v2c-1,5,1,1,3,1l2,2v1l1-1h2l-2-2v-1c2,0,2-1,3-2q1,0-5-2v-2h1c2,1,2,0,4-1h1v-2l1-1h1v-4h1v-3h-1c0-2-2-2-2-1l-1,3l-3,3h-2v-5l2-4l1-1h1l3,1l1,1v1h3l1,1v-2l3-1c4,0,4-1,5-3c2,0,2-1,3-2h-1v-1c4,0,4-1,6-2h-2v-1h2l2,1l1,1v1c-4,0-4,1-6,2l2-1c4,0,4-1,5-2h1l-1-1v-1h-2v-3l1-3l3-1h1l3,1v1h-3l-1-1l1,2v1l2-1h2v1l-1,1l-2,1h-2c0,2,2,1,8,1v1l-2,1h-1v4l-1,1h-1v2h-3v-2l-1,2h-2v-1l1-1l-1,1h-6v2c-3,0-3,1-4,2h-1l1,2v1l-3,3h-5l-3-3v1c-1,2,0,2,2,3v1l-3,3c-1,0-1,3-2,7l-1,1h-2h3v3c-3,0-2,0,1,1v1h-6l-1-1v-1l-1,1l-4,1c-37,0-37,1-38,3h1c0,2,1,2,2,3v1h-1l-1-1l1,5v3l-1,1h2l2,2v3h-1l-1-1v6l-1,1h-1c-1-1-1,0-11,1l-28,1l-41,1h-24l1,1v1q-6,1,107,1l2,2v1h-158z"/><path d="M297,0h135v54l-1,20h-1l1,3v13l-1,32h-1l1,6l1,82v19l-1,1h-1c0,2,1,2,2,3v6c-1,2,0,2,1,12v37h-52v-2l5-1l22-1h3l-1-1v-1h-3v-1h-7l-4-1l-3-1l-1-1v-1l-2,1h-2l-4-2l-1-5v-1c3,0,3-8,2-8l-1-7v-1l2-2h2v-2h2v-4l1-2h1l-1-1c0-2-1-1-2-1v-4c1-1,0-1-2-9v-1c2,0,2-2,3-4l-1,1h-2l-1-1v-1c4-4-1-3-2-3v-2c1-1,0-1-1-2v1h-1l-1-2l-1-4c0-3-1-3-2-5v-1l1-1h1l3,1l1,1c0-1-1-1-5-3v-1l1-2l-1,1h-1l-1-1v-3l-1,2h-1l-3-3v-1c1-1,0-1-1-2l-1-3l-1-7v4h-1l-2-1v-1h2v-3h-2v-1l2-2l-1,1h-1l-1-2v3h-4l-1-3v-3l1-2l-2,1h-5l-1-1v-1h-3l-1-1v-2l1-2l-1,1h-1l-3-3v-1l1-1h-2l-3-3v-1l1-1h-4l-1-1v-1h-2l-2-1l-1-1v-1h-3v-1h4l-3-1l-1-3v-1c2,0,1-1,1-6h2l-2-1v-4l2-1q1,0-2-1v-8l1-2h1l-1-3v-2h2v-5l1-1h1v-2h2v-2h1l-3-3v-2h1c1,1,1,0,2-1h-2l-1-1c0-2-1-2-2-3v-1h-3l-1-4c0-7-1-7-3-13v-4h-2c0-5-2-5-4-9v-3h-2l-1-5v-4q1-2-2,1h-1v-1l1-2h-2v-3h-2l-1-3v-7l-1,1h-1l1,1v1h-2v-2h-2l-1-2c0-2-1-2-5-6v-1h-2c0-2-1-2-4-5v-1h-2c0-2-1-2-4-5v-1h-3c0-3-1-2-5-2v-1h1l-2-2v-1l-1,1h-1v-1l1-1l-1,1h-1l-1-2v-2h-2l-1-1c0-1-2-1-5-2v-1l-1,1h-1l-3-1l-2-1v-1l1-1l14-2l8-1z"/><path d="M251,4h1l1,1v1h-1l-1-1zm-28,8h1v1l-2,2h-1v-1zm-7,3h1v1l1-1h1v1l-1,1h-1l-1-1zm-27,24h1l1,1v1l-1,1h-1v-1h1l-1-1zm3,15h1v2l-1,1h2v3l-2,1h-1l1,1v1l-1,1c-1,0-1,2-2,5h-1v-3l1-6c2,0,1-1,1-2c2,0,1-1,1-2zm-7,37h1v2h-2v2c-2,0-1,1-1,2l-1,2l-1,1h-1c0,4,1,4,3,5l2,2v1h2l1,1c0,3,1,3,2,5c0,3,1,3,2,4c0,7,1,7,2,8v9l-1,1c-2,0-2,1-4,3c-1,0-1,2-2,7l-1,2l-1,1l-3,1h-2l-2-1v-1h-3l-1-1v-1h-2l-4-2l-1-1v-1h-2l-1-1v-1h-2l-2-1l-1-1v-1h-2l-2-1l-1-1v-1h-2l-2-2v-1h-3v-1l6-6h1v-2l3-3h1v-2l3-3h1v-2l5-5h1v-2c2,0,2-1,9-8l2-1c2,0,2-1,3-3c2,0,2-1,3-2z"/><path d="M192,137h2v2c-2,0-2,1-3,2h-1v2h-1v-3l1-1h2zm41,68h4v2l-2,2l2-1h1v-2h3v1h-2v2l-1,1h-6v-4zm-61,2h3v1l-1,1h-1v2l-1,1h-1v-1l1-2h1l-1-1zm70,0h2v1l-2,4h-2l-1-1v-1zm5,0h3l1,1v1h-1l-2-1v2h-1zm-56,1h1v1l-1,1h-2v2l-1,1h-1v3h-2l-1-1c0-2-2-2-2-1l-1,2h2v3h-3l-1-1v-4h2v-2h3l-1-1v-1l1-1h1v1l-1,1l2-1h1l1,2v-2l1-1zm-10,1h1v2h-2v-1zm74,0h2v1l-1,1h-1z"/><path d="M236,211h1v1l-1,1h-1v-1zm7,0h3v1l-1,2h-1l-1-2zm-23,2h2v1h-2zm26,0h1v2h-1zm-70,2h2v1l-1,1h-1zm41,0h1v1l-1,1h-1v-1zm22,0h3v2l-1,1h2v-2h4v1l-2,2l-2,1h-2v-2h-2v-1l2-1h-2zm15,1h1v2h-1zm-6,1h1l1,1v1h-1l-1-1zm-51,1h2v4h-1l-1-1l1,1v2h-1v-2h-2v-1l2-1h-3v-1zm57,1h2v1h-2zm-15,1h1v1l-1,1h-1v-1zm-36,1h10v1l-1,2h-9zm-21,1h1v1l-2,2l-2,1h-1v-1l2-2zm52,0h1v1l-1,1h-1v-1z"/><path d="M236,223h1l2,1v1h-2l-1-1zm-2,2h2v1h-2zm-41,1h1v1l-1,1h-1v4c-1,4,0,4,3,5v-1c2,0,2-1,3-2h1v-2h1v3l-1,2l-3,3h-2l-4-1c0-2-2-2-2-1l-1,2l1-1h1v2l-1,2h-2v-5l1-3c1-2-1-2-1-1l-1,1l-2,1h-1v-1l2-2l2-1h2l1,1l-1-1v-1h1l1,1v-2h1h-2v-2zm19,10h2l1,1v1h-4v-1zm16,0h1v2h-1zm-19,2h1l1,2v1l-1,2l-2,1h4v1l-1,1h-1l-2-1v-1l-1,1h-1v-2h2l-2-2v-1h3zm7,1h1v1l-1,3l-1,1h-1v-1l1-3z"/><path d="M203,242h1v1l-1,2l-1,1h-1v-1l1-2zm-50,12h1v2h-1zm57,0h2v1h-2zm-55,1h3l2,2v3h-3v-3l1-1l-1,1h-1l-1-1zm10,0h4v1l-5,5h-2v-2l2-2h1zm5,0h2c0,2,1,1,2,1v2l-1,2l1-1h1v2h-4l-1-3zm10,0h2l1,1v1h-1l-2-1zm16,0h3v1h-3zm-16,4h1v1l-1,1h-1v-1zm-4,1h2v1h-2zm-21,2h6l3,1v2h-3l-1-1v-1c-2,0-2,1-3,2h-2zm16,1h3v1h-3zm-8,3h1v1l-1,1h-1v-1zm1,2h2v1h-2zm3,3h2v1h-2zm11,14h1v3h-1zm24,0h4v3h-7v-2h1c1,1,1,0,2-1z"/><path d="M160,286h1v2h-1zm4,0h1v2h-1zm2,0h2v2h-2zm26,1h1v1h-1z"/></g><g style="fill:rgb(184,184,184);fill-rule:evenodd;stroke:rgb(184,184,184);stroke-width:0.1;" id="l2"><path d="M236,5h3c0,2,1,1,2,1v7h-3l-4-1l-2-2v1l-1,1h-1l-1-1v4l-2,1h-4v-1c2,0,2-1,3-2h1v-3c4,0,4-2,6-4zm6,1h5l4,1v2h2v2h-2c0-2-1-1-4-1l-2-1v-1h-3zm17,3h8l4,2v1h-2l-4-1v-1h-6zm-5,1h3v1h-3zm-34,6h2l3,1v1h-5zm-3,2h2v1h-2zm-4,1h3v1l-3,3h-1l-1-1v3c-2,0-2,1-3,2h-1c-1-1-1,0-2,1l-2,1c-4,0-4,1-6,5l-1,1h-1v2l-2,2h-1v3h-1l-1-2v-1h2v-4l-1,2h-1v-2l1-1c3,0,3-1,4-2c1,0,1-2,2-6h1l3,1v-1c2,0,2-1,3-2h2l2,2l-1-1v-1h1l1,1l-1-1v-1l1-1c2,0,2-1,4-3z"/><path d="M276,19h1l2,2v1h-1l-2-2zm4,7h5v2h-4l-1-1zm4,4h1l1,1l1,2v1l-1,1h3l1,1v1h2l2,2c0,3,1,3,2,4v2h2c0,3,1,3,2,4v1l1-1h1v2h2l1,1c0,4,1,4,2,5v1h-2h1v2h2c0,2,1,2,4,5l1,2l1,3c0,5,1,5,2,6v2l-1,1h2v1h-2c0,2,1,1,2,1v2l-1,1h2v2c-1,1,0,1,1,3l1,5v7h1c0,4,1,4,2,7v3l-1,9h-1l1,5v1c-2,0-1,8-1,9l-1,1h-1l1,1v4l-1,2h-1l1,1v1c-2,0-1,1-1,2l-1,1h-1v3h3v3h-5v2h-5v2l-4,1h-3v-2v1l-1,1h-1l1,1v1h-1c-1-1-1,0-2,1h-1v-1l5-5c-2,0-2,1-3,2c-2,0-2,1-10,9l-2,1h-1c-1-1-1,0-3,1h1v1h-1l-2-1v-1l2-1c-3,0-3,1-5,3h-2v2h3v1l1-1h1l-1-1v-1h1l1,1v1c2,0,2-1,3-2h1v1l-2,2h-2l-1-1l2,2v1l-2,2h-1v-1l1-1h1l-2-2v5l-1,2l-2,2h-1v2l-1,1h-1v2l-1,1h-1v2l-1,1h-1v2l-1,2l-1,1c-1,0-1,2-2,5l-1,1h-1v3l-2,4h-1l1,1v2h-2v-1l1-1h-3l-1-1v-2l1-1l-1,1h-1v-1l1-1c2,0,2-2,3-5l1-2h1v-3l1-2l1-1h1v-2l1-1h1v-2h2v-5l1-1h2v-2h-2v-2h-5v-1c2,0,1-1,1-2h-2v-2c3,0,2-2,2-3l1-2l-1,1h-2v-1h2c0-2-3-2-8-3v-1l-2,1h-5c-1-1-1,0-3,1c-2,0-2,1-4,3h-1l-2-1l1,2v1c-2,0-1,1-1,2l-2,1h-1c0-2-3-2-3-1l-1,1l2-1h1v2l-1,2h-2v2h-1v-2l2-2l-1,1h-1v-1l1-1l-1,1c-2,0-1,1-1,2h-1l-2-1l1,1v1h2v1h-2l-1-1v1l-1,2h-1l-2-1v-2v1c-1,1,0,1,1,2v1h-1c-1-1-1,0-2,1h-1v2h-5v-1q1,0-3-1l1,2v4l1-2h1l1,1v-1l1-2h1l1,1v1l-6,6h-5l-2-1v-1l2-1l-2,1h-2v3c-2,0-2,1-4,3c-3,0-3,1-4,2h1v1h-3c-1-1-1,0-2,1h-1l1,1v1l-1,1h-1v-1l1-1h-2v-1l12-12c2,0,2-1,5-4l2-1c2,0,2-1,6-5h2v-2l4-4h1l1,1v-2l5-5c2,0,2-1,3-2h2l-2-2v-2h1q0,1,1-3c2,0,2-2,3-5l1-2h1v-6l1-3l1-2l1-1q1,0-2-1v-1l1-3h1v-5l1-2c3,0,2-1,2-3l2-1h-1l-1-2v-4l1-1h1l-1-1v-1l3-3h1l-2-1v-1l1-2h2l1,2c0-2-1-2-2-3v-1h2v-2h2v1l-1,2h2l1,2l2,6c0,6,1,6,2,10v1l-1,1c-2,0-2,2-3,4h-1c0,3,2,3,3,4v2h2v1h2v-3l2-2h1c0,2,1,1,2,1c0,2,1,2,2,3c0,4,2,4,3,5l1,2v2h2l1,1v1h2c0,2,2,1,3,1v1l-1,1l3-1h2v1l-1,1c-3,0-3,1-4,2l4-2h5v1h-1h4l2,1v1c12,0,12-1,14-3h1v-2c2,0,2-1,3-2h1v-2l2-4h1l-1-1v-2l1-1h1l-1-1l-1-3v-9l1-3h1l-1-2v-1l1-7l1-2h1l-1-1l-1-3l-1-6c0-9-1-9-2-12v-11l-1,5l-1,1h-1v-1c1-1,0-1-1-2v-2l1-1h2c0-2-1-1-2-1c0-2-1-1-2-1l-1-1v-1c1-2-1-2-2-3l-1-3v-6l-1,2h-1c0-3-1-3-2-5l-1-3c0-3-1-3-4-4l-2-4c0-3-1-3-2-4c0-2-1-2-7-4l-1-5zm-9,144h1v2l1-1h2v-2l-1,1z"/><path d="M188,42h2l1,1v1h-1c-2-1-2,1-3,2h-1v2h-2v-2zm14,1h4l3,3v1l1-1h1l1,1l1,3l1,5v2h2l1,1c0,1,2,1,5,2l2,1l1,1v1h2l1,2c0,2,1,2,3,4v1l-4,1h4l1,1c0,2,1,2,2,3l1,2v1l6-1h3v-3h1l1,1c0,5,3,5,3,4l2-1h1v1l-1,2h3l1,1v2l-2,2h-1v2h-1l-1-1v-2v3h-6l-1-1l1,1v1c-1,1,0,1,1,2v1l-1,2h-1l1,1v5l-1,7l-2,2l-2,1h-5v1c-2,0-2,1-3,2h-1l-2-1v2l-2,1l-3,1c-2,0-2,1-3,2c-2,0-2,1-5,4h-1v2l-3,1c-2,0-2,1-4,3c-2,0-2,1-4,3c-2,0-2,1-4,3h-1v2l-1,2h-1l-2-4v-3h3v-2l2-1h1v-2l4-4c2,0,2-2,3-4h1l-1-1v-1c2,0,1-2,1-3l1-7c1-3-1-3-2-5v4h-1c0-2-2-2-2-1h-2v2h-1l-2-1v2l-2,1c-4,0-4,3-6,7h-1l-1-1v-3l1-2l1-1l-1,1h-2v-1l1-1l-3,1h-1l-4-4v-1l1-1h1v-2l4-1c4,0,4-1,5-2h2v-2l1-1h4v-1c2,0,2-1,3-2c3,0,3-1,7-3c3,0,3-1,5-7l1-1h1l-1-1v-1l4-4c3,0,3-1-2-1v1l-1,1h-1v-1l1-1h1v-2h2v-3l-1,2h-1l-2-1v-1c-3,0-3,1-5,2h-1v2l-2,2h-1v2l-2,2h-1v2h-4v2h-1l-1-3v-1l4-4c4,0,4-1,5-2h-1l-3-1l-1-1v-1h-4l4,2v1h-4c0-2-1-1-2-1l-1-1v-3h1c2,1,2,0,8-1h-4v-1h9v2c3,0,3-3,1-3v-5h-2v-1c2,0,2-3,1-3l-1-1v-2l1-2h-2l-1-3c0-2-4-2-4-1c-2,0-2,1-4,3c-2,0-2,1-3,2h-2v3h-1v-6l1-1h1c0,2,1,1,4,1v-2l2-1c2,0,2-1,3-2z"/><path d="M188,46h1l1,2v5l-1,1h-3l-2-1v2h-1v-6h1c2,1,2,0,3-1h1zm-4,12h1l1,5v1c-2,0-1,2-1,8l-2,4l-5,5h-2v2c-2,0-2,1-5,4c-2,0-2,1-6,5h-2v2l-1,1c-2,0-2,1-3,2c-2,0-2,1-3,2c-2,0-2,1-3,2c-2,0-2,1-6,5h-1v2c-2,0-2,1-3,2l-2,1h-1v2c-3,0-3,1-5,7c-2,0-2,1-4,3h-3l3,1v1h4l6,2l4,2v1c2,0,2-1,4-3h1v1c-3,3-1,3,1,5v1h-1l-1-1l2,2v2h-4l-4-2v-1l-1,1h-3l-4-1l-3-3v-2h-2l-4-4v-1h-2l-3-3v-3l1-1h1l-1-2v-1c2,0,2-1,3-2c2,0,2-1,3-3c2,0,2-1,4-3h2v-2c2,0,2-1,6-5c2,0,2-1,3-2c2,0,2-1,4-3l1-1c2,0,2-1,4-3l2-1c2,0,2-1,3-2c2,0,2-1,4-3h1c1,1,1,0,4-3c3,0,3-1,5-3l1-1c2,0,2-1,6-5c2,0,2-1,3-2h1l-1-1v-10h2l1,1z"/><path d="M192,68h1v2l-1,1h-1v4h2c0,2,1,2,2,3v2h2v2h-2l-2-1v-1l-1,2h-1l-1-3v-8l1-1h1zm-5,13h2v2l-2,1h-1v-1zm0,6h2v1l-2,2h-1v-1zm-3,3h1v1l-3,3h-1v-1zm-7,6h1v1l-5,5l-1,1h-1v-1zm-11,9h1v2l-2,2l-2,1h-1l1,1v1h-1l-1-1l1,1v1l-2,2h-1v2l-2,2l-1,1h-1v-2l1-1h1v-2l1-1h1v-2zm36,3h1v1l-1,1l-2,1h-2v-1l1-1zm-6,2h1v1l-2,2h-1v-1z"/><path d="M196,116h1v1l-1,7l-1,2h-1l-1-4v3h-1v-4l1-2zm-42,5h1v1l-2,2h-1v-1zm43,20h1v8l-1,2l-1,1h-2v-2l2-4h1zm-8,4h1v2l-1,2h-1v-2zm-26,1h6l1,1v1l1-1h1l1,1c0,1,3,1,11,3l2,1v1l1-1h3v1c-3,0-3,2-4,3h-1v-1l1-2l-2,2h-8l4,1v1l-1,1h-1l1,1v1h-6l1,1v1h-1l-1-1l1,1v1h-1l-1-1l1,1v1l-1,1h-1v2h-2v-1l1-1l-1,1h-1v7c-2,0-2,1-3,2h-1v2h-1l-1-1v2l-1,3h-1l1,1v2h2l1,3v2h2v1c-2,0-1,1-1,2c-2,0-1,1-1,2l1-1h1v1l-1,1h-1l-2-2c0-2-1-1-2-1l-3-3v-1h-2l-3-3v-1h-2l-8-8v-1h-2l-21-21v-1c2,0,1-1,1-2h2c0,3,2,3,1,1v-1h1l1,1v2h11l1,1v1h2l1,1v1h4l1,1v1l2-1h2c9,1,9-1,10-2h1v-2c3,0,3-3,4-5h-2v-1l1-2z"/><path d="M191,152h2v1h-2zm142,6h2l1,1c0,3,1,2,3,2v2h4v1l-1,1h2l2,2c0,3,1,3,4,9c0,3,1,3,3,7c0,3,1,3,4,9c0,3,1,3,2,5c0,3,1,3,2,5c0,3,1,3,2,5v4h1c0,3,1,3,2,5c0,4,1,4,2,6v-1h2v1c-2,0-2,3-1,3v-1l1-1h1v2c-2,0-1,1-1,2l-1,3l1-2h1v3l-1,4h1c0,2,1,1,3,1v1h-2l2,1v1l-1,1h-1l1,10v8l-1,3h-1v9l-1,2h-1c0,3,1,3,4,6l1,3v2l-1,2l-10,1h-10l-13-1v-1l-1,1h-1l-5-1v1h-5v1c-2,0-2,1-3,2h-4v-11h-1c0-7-1-7-2-12v-1c1-1,0-1-3-10c0-5-2-5-3-6v-1c1-2,0-2-1-11l-1-12v-5l2-2h-2v-2c1-2,0-2-1-5v-2c1-2-1-2-2-3v-4h-3v-2c-2,0-2,3-3,6h-1l1,1v1h-1l-1-1l1,2v4h-3v8h-2v3h-1l1,1v1h-1l-2-1v-1l-2,1h-1l-3-1l-1-1v-1h-3l-4-2l-1-1v-1l-1,1h-1l-2-2l2,2v1l-1,2h-1v-2c1-1,0-1-1-2v-1h-2l-2-2v-1h-4v-2h4c2,2,2,1,3-1c2,0,2-1,3-2h2v-2c2,0,1-1,1-3l1-1h1c0-8-1-8-2-9v3l-2,1h-1v-1l2-4l1-1h1v2c2,0,1-1,1-5l1-2l2-2h1v-2h1l1,1l-1-1v-2l1-1h1l3,3c0,3,1,2,3,2l2,2v-1l1-1h2c2,1,2,0,3-1h1l1,1l-1-1v-1h1l1,1v-1c2,0,2-1,3-2c2,0,2-2,3-5c2,0,2-1,3-2l3-1h-1v-1l3-1h4v-1h2v-2h1l1,1v-3c3,0,3-2,4-4l2-1h4h-2z"/><path d="M289,173h1v1l-1,1h-1v-1zm-2,3h2v1l-2,1h-1v-1zm-121,20h1l1,1v1h-1l-1-1zm3,3h1l2,1c0,2,1,1,2,1l2,1l2,4v4h-1l-1-4v-1l-2,1h-1v-1l1-1h1l-1-1v-1l-1,1h-1l-2-2l1,1v1h-3v-1zm102,3h1v2l-1,1h-1v-1zm-91,4h2v1h-2zm33,1h1v1l-1,3h-1v-3zm31,0h1v1l-1,1h-1v-1zm-65,1h3v1l-1,1h-1l1,1v3h-1l-1-3v1l-1,2l-1,1h-1c0,2,2,1,3,1v3h-1l-2-1v2h-2v-2l1-3h1h-2v-1l1-1c2,0,1-1,1-2h3zm5,0h2v1h-2zm23,0h1v2h-1z"/><path d="M191,209h1v2h-1zm41,1h1l1,1v1l-2,1h2l1,1v1l1-1h2v1l-2,1h-1l2,1v1h-2l-5-1v-1l2-1h2l-2-1l-1-1v-1zm19,0h1v1l-1,1h-1v-1zm1,2h3v1h-3zm-63,1h1l2,1v1h-2l-1-1zm51,0h1v2h-2v-1zm-19,1h1l1,1v1h-1l-1-1zm31,0h2v1h-2v2h-1v-2zm-56,1h1v4l-4,1h-1v-1zm59,0h1v3h-1zm-69,1h1v2l-1,1h-1v-2zm23,0h1v2h-2v-1zm29,0h1v2h-1zm-14,1h1l1,1v1h-1v-1l-1,1h-1v-1zm9,1h1l1,1v1h-1v-1l-1,1h-1v-1zm17,0h2v1h-2zm-50,1h1l1,3v1h-1l-1-1z"/><path d="M215,219h2v1l-2,1h-1v2h-2v-1zm27,1h1v2l-1,1h-1v-1zm35,0h1l2,2v1h2l2,1l2,2v1h2l1,1v2h3l1,1v1l-4,2h-1v-4v1l-1,2l-1,1h-2l-1-1v-1h1c2,1,2-1,3-2h-1l-2-1l-1-1v-1l-1,1h-1l-2-2v-1l1-1h-2v-1c1-1,0-1-1-2zm-96,1h1v2h2v1l-2,2h-1v-2l1-1h-2v-1zm24,0h3v1h-3zm62,1h1v1l-1,4h2v1h-4v-3l1-2zm-5,1h1l1,1v1h-1l-1-1zm-65,1h1l2,1l2,2v1h-1l-1-1v-1h-2l-1-1zm-13,1h1v1l-1,1h-1v-1z"/><path d="M218,225h3v2h-1l-2-1zm-54,1h2l1,1v1h-3zm25,0h3v1l-1,1h-2zm16,0h3v1h-3zm42,0h1v2h-1zm6,1h2v2h-1l-1-1zm20,0h1l2,2v1h-1l-2-2zm-80,1h1v1l-1,3h-1v-3zm66,0h4v1l-1,1h-2l-1-1zm11,0h1v1l-1,2h-1v-2zm-89,1h2v1h-2zm19,0h1l1,1v3l-1,1h-1zm23,0h4v4h-1c-1-1-1,0-2,1h-1v-1l1-1h1l-2-1zm23,0h1l1,1v1l-1,2c-4,0-2,2-2,3h-1l-3-1v-2c2,0,2-1,5-4zm11,0h1l2,2v1h-1l-2-2v2c-2,0-1,1-1,2l-1,1h-1v-3z"/><path d="M266,229h1c0,3,2,3,3,4v1h2v1h-2l-2-2l1,2v2l-1,1h-2v-1l1-1h1l-2-1v-1l1-2l-2,2h-1v-1l1-1h1l-1-1v-1zm-105,1h1v2l-1,2l-2,1h-1v-1l2-2h1zm8,0h1v4h-1zm16,1h1v2h-1zm30,0h3v1h-3zm-18,1h1l1,1v1h-1l-1-1zm-6,1h2v1l-1,2h-1zm102,0h4l1,1v1h2l3,3l1,1v1h2v3l-1,4h2v3h-2v2h-1c0,6,2,5,4,5v3l-1,3l-1,2h-1v3c-1,1,0,1,1,2c0,2,1,2,2,3v1l-3,3h-1l1,1v4l-1,1h-2l-1-1v2h-2l-1-1v-1l1-1h1l1,1l-1-1l-1-2v-4l2-2c1,0,1-2,2-5l1-2h-4l-1-1v1c-2,0-1,2-1,4h-3l-1-1v-3l1-3l1-2c-1,0-1,1-2,3h-1c0,7,1,7,2,8v1h-1l-2-1l-5-5v-1l2-2h1v-2h1c1,1,1,0,3-2h2c1,1,1,0,3-2h2l2,1l-2-2v-1h1l1,1v-2h-2l-1-1v2h-8v2c-2,0-2,1-3,2c-3,0-3,1-7,5h2v1h-3v-2l3-3l-1,1h-3v-1l3-1h-3c0-2-1-1-2-1v-1l1-1l-1,1h-1v-6v1l-1,1h-1c0,4,1,4,3,6v1h-1l-4-4v-4l3-3c-3,0-3,1-5,3h-1v3c-2,0-2,1-3,2h-1v-7h1l1,1v-2h4h-1v-1h6v2l2-2h1v1l-1,1h-1h2c0,2,1,1,2,1v1l-1,4l-1,1h2l2,1v1l2-1h1v-2h-3l-1-1v-3h1l1,1v1c2,0,2-2,3-4l-2,1h-1v-1l1-1h5v1h-2l2,1l1,1v1h3l-2-1l-1-1v-1h1l2,1l2,2v1l1-2c4,0,2-4,2-6h-2v-5l1-1c2,0,2-4,1-4l-2-1v-1h-4l-1-1l1,1v1h-1l-1-1v-1z"/><path d="M185,234h1v1l1-1h1v1l-1,2h-1l-1-1zm17,0h1l1,1v1h-1l-1-1zm76,0h1v1l-1,1h-1v-1zm-118,1h2v4h-2l-1-2v-1zm17,0h3v1h-3zm36,0h1l1,1v1h-1l-1-1zm13,0h1v2l-1,2h-1v-2zm21,0h2v2h-1l-1-1zm35,0h2v1l-1,2h-1zm-111,1h1l1,1v4h-1l-1-1v-3v1h-1v-1zm40,0h1v1l-1,1h-1v-1zm12,0h1v2h-1zm18,0h1l1,1v1h-1l-1-1zm45,0h1v1h-1l1,1v1h-2v-2zm-119,1h1v1l-1,1h3v1l-1,1h2v1h-2l-1-1v2l-1,1h-4v-1l2-1h1l-1-2v-1zm21,0h2v1h-2v2h-1v-2zm85,0h1v2h-2v-1z"/><path d="M183,238h1v1l-2,2h-1v-1zm44,0h1v2h-1zm2,0h1v2h-1zm65,0h4v2l-1,1h-1l1,1v2h-1l-1-2v3l-1,1h-1l1,1v1l1-2h1l1,3v1l-2,1h-1v-3h-2c0-2-1-2-2-3v-1l1-1h1l-1-1v-2h1l1,1v2l-2,2h3zm-104,1h2v1l-1,2l-1,1h-1l-1-1v-1h1l1,1zm29,0h5v1h-5zm58,0h3v1l-1,1h-1v2h-1c0-2-1-1-2-1v-1zm-121,1h1v5l-1,1l-2,1h-1l-1-1v-1h1v1l1-1h1l-1-1v-2h1l1,2zm77,0h1l2,1v1h-4v-1zm10,0h1l1,1v1l-2,2h-3v-2c2,0,2-1,3-2z"/><path d="M282,240h4l1,2v3h-1v-3c-2,0-1,1-1,2l-1,1h-1v-1l1-1h-3v-1c2,0,1-1,1-2zm-123,1h1l1,1v2l-1,1h-1v-2l1-1l-1,1h-1v-1zm60,0h1v1l-1,1h-1v-1zm40,0h2v1l-2,1h-1v-1zm3,0h1v1l1-1h1v1l-1,1h-1l-1-1zm-93,2h1v3l-1,2h-1l-1-1v2h-1c0-2-1-1-2-1v-1l1-2h1c2,1,2-1,3-2zm18,0h1v3h-3l-1-1v-1h1c1,1,1,0,2-1zm5,0h4v1l-2,1h-2zm8,0h1v3h-1zm51,0h2v1h-2zm-39,1h1v2h-2v-1zm46,0h1v4l-2,2h-1l1,1v1h-1l-2-1v2h-1v-2l1-1l-1,1h-1v-1l1-1c4,0,3-2,3-4z"/><path d="M278,244h1l1,1v1h2v1l2-1h1v1l-1,1h-2l-2-1l-2-2zm-42,1h1l2,2v1l-1,1h-1v-1c1-1,0-1-1-2zm40,0h1l1,1v1h-1l-1-1zm-81,1h2v1h-2zm55,0h1v2h-1zm-62,1h1l1,2v1h-1l-1-1zm110,1h1v2h-1zm-56,1h2v1h-2zm-26,1h1l1,1v1h-1l-1-1zm22,0h3v1c-1,1,0,1,1,2v1h-1l-3-3zm24,0h3v1l-3,1h-1c0,2,1,1,2,1v1l-1,1h-1l-1-1v-2zm-49,2h1l1,1v1h-1l-1-1zm8,0h1v3h-1zm23,0h1l2,2v1l-1,1h-1v-1c1-1,0-1-1-2zm-46,1h3v1l-3,1h-2v-1zm58,0h1l3,3v1h-1l-3-3zm-104,1h1c0,2,1,1,2,1v1l-1,1h-2z"/><path d="M158,254h2v2l1-2h5v1l-1,1h-1v2h-4c0-2-1-2-2-3zm20,0h1l1,1v1l-1,1h-1v2l-2,2h4v2h-9v-2c4,0,4-3,5-5zm12,0h2v1l-2,1h-1v-1zm16,0h2v1h-2zm33,0h1l1,1v1h-1l-1-1zm15,0h1l1,1v1l-1,2l-2,2h-1v-2h2v-2h1l-1-1zm-51,1h2v1h-2zm8,0h2v1h-2zm16,0h2l1,1v1c-4,0-4,3-2,3v1h-3v-5zm25,0h1v1l-1,1h-1v-1zm-84,1h2l1,3v1h-1l-1-1v2l-1,1h-1c0-2-1-1-2-1v-1l1-1c3,0,2-2,2-3zm15,0h2l1,1l1,2v1h-1l-1-1v1l-1,2h-1l-1-1v2h-1v-4l1-1h1z"/><path d="M208,257h1l1,1v1h-1l-1-1zm31,0h2v1l-2,1h-1v-1zm-85,1h1v2h-1zm2,0h1v2h2l1,1v1h-3l-1-1zm61,0h1l1,1v1l-1,1h-1c0-2,0-1-2,1h-1l-1-1v-1h-2v-1h2c2,2,2,1,4-1zm29,0h2v1h-2zm12,0h1l2,2l1,2v1h-1l-1-1l1,1v1h-1l-1-1v-1c1-1,0-1-1-3zm-57,1h1l2,1v1h-2v2h-1v-3v1h-1v-1zm-49,1h1l1,1l1,3v3h-2l-1-6zm43,1h3v1h-3zm27,0h1v1l-1,1h-1v-1zm-53,1h1v2l-1,2l-2,2h-1l-1-1v-2l1-1h1l1,1l-1-1v-1h1l1,1zm18,0h5v1c-5,0-5,1-6,3l-1,1h-1v-2z"/><path d="M224,262h1l1,1v6l-1,2l-1,1h-1v-3h-4v-1c2,0,1-1,1-2h1l2,2v1c2,0,1-3,1-7zm-66,1h2l1,2l1,2v2l-2,1h2v1l2-2c7,0,7-1,8-2h1v-2l1-1h1v1l-1,2l-2,2h1v-1l1-1h1l1,1v2h-1c-1-2-1,0-7,1h-1c-1-1-1,0-4,1h-1l-2-1l-1-1l-1-2v2l-1,5c-1,1,0,1,1,2v1l1-2h1l1,3c0,3,1,3,3,4v1l-1,1h-1v2h-1l-1-2v-1h1l1,1v-2h-3v-1l1-3l-1,2h-1c0-2-1-1-2-1l-1-1v-10l1-1c2,0,1-2,1-3h1l2,2c0-2-1-2-2-3z"/><path d="M191,264h1v2h-2v-1zm8,0h3v1l-1,1h3v1l-1,1h-1l-3-1v-1l1-1l-1,1h-1v-1zm67,1h1l2,1v3l-3,3h-1l-1-1v2h3l1,1v-1l2-4h2l1,1v1l-1,1h-1l-1-1v3h-2v2l-1,1h2v-2c3,0,3-1,6-4h1l1,1v1l-1,1l1-1h2v1l-2,1h-1c-3-1-3,0-4,1h-1l2,2v1c-3,0-3,4-1,4l1,3v1h-1l-1-1v-1h-3l-1-1v-1c-3,0-1,2-1,3h-1l-2-1l-1-1v-1h-2l-4-2l-1-1v-1h-2v-1l1-1h1c0,2,1,1,2,1l1,1l-1-1v-1h1c4,1,4,0,6-1h2h-1v-1h1l1,1v-2h-3l-1-1l-1-2v-1h3c1,1,1,0,2-1h1c0-2-1-2-2-3z"/><path d="M193,266h2v1h-2zm20,0h3v1h-3zm50,1h1v2h-1zm19,0h1c0,5,1,5,2,6v1h-1l-2-1zm3,0h1v1l-1,1h-1v-1zm-55,1h1l1,1v1h-1l-1-1zm26,0h1v2h-1zm5,0h1v1l-2,2h-1v-1zm-60,1h2v1l-1,1h-2v-1zm13,0h2v1h-2zm-45,2h1l1,1v1h-1l-1-1zm4,0h1v1l-1,1h-1v-1zm32,0h2v1h-2zm10,0h5l1,1v1l-2,1h5v1l-4,1h-1l-1-2v-1l-1,1h-1l-1-1zm21,0h1l1,1v1h-2zm-74,2h1v1l-1,1h-1v-1zm27,0h1l1,1v1l1-1h1l6,1v1l1-2h2v1l-2,2h-8l-3-3z"/><path d="M226,273h1l2,2v1l-1,2l1-1h1l4,2l1,1v1h2l2,1l1,1v2l-2,1h-2l-1-1v2h-1l-1-4c0-3-6-2-11-2l-3-1v3h-2v-5h1l1,1v-1h2v-2l7-1h-1l-1-1zm-44,1h5v3h-1l-1-1l1,2v1h-2v-2h-2zm52,0h2v1h-2zm3,0h2v1l-1,1h2v1l5-1h-1v-1h1l1,1v1l-1,3l-1,1h-5l-6-3v-2h1l3,1l2,1l-2-2zm57,0h1l1,1v2l-1,1h-1v2l-1,1h-1v1c2,0,2-1,4-3h1v3l-1,1l-4,1h-3c0-2-2-2-2-1l-1,2l-2,2l-2,1h-1v-1l1-1l2-1h1l-1-3v-1l1-1h1l-1-1c0-2-3-2-3-1l-1,1h-1v2h2v1h-2l-2-2v-1l2-1h1v-2h4c3,1,3,0,5-1h2c1,1,1,0,2-1z"/><path d="M172,275h1v1l-1,1h2l1,1v1l-1,3h-1l-2-4v-2zm31,0h1v2h-1zm46,1h2l1,1v1h-1l-2-1zm-42,1h2l1,3v1h-1l-1-1l-1-2zm40,0h1l4,2l1,1v1h2l1,1v1l-1,1h-5v-4h-4v-1c2,0,1-1,1-2zm-52,1h1v1l-1,1h-1v2h-1l-2-1v-1l1-1h1c1,1,1,0,2-1zm79,1h2v1h-2zm-89,2h2v1c-2,0-2,1-3,2h-2l-1-1v-1h1c1,1,1,0,3-1zm19,0h1l1,1v2l-1,1h-2v-1zm24,0h4l1,3v2h-1l-1-1v-3h-3zm17,0h4l1,4v1h-2c0-4-3-3-5-3v-1zm-48,2h2v2h-1l-1-1z"/><path d="M228,283h2v1h-2zm29,0h1l1,2v1h-1v-1l-1,1h-1v-1zm-100,1h1v2h-1zm22,0h1v3h-1zm34,0h3v1h-3zm28,0h1l1,1v2h2v1h-2l-2-2zm19,0h1l3,3v1h-1l-1-1v-1h-2zm36,0h2l3,1l1,1v2h-4v-2h-2zm-90,1h1v2h-1zm86,0h3v1h-3zm-124,1h3v2h-1v-1l-1,1h-1zm24,0h2v1l-2,1h-1v-1zm28,0h1v2h-1zm55,0h1v1l-1,1h-1v-1zm15,0h1l1,1v1h-1l-1-1zm-113,1h1v1h-1zm82,0h2v1h-2z"/></g><g style="fill:rgb(228,228,228);fill-rule:evenodd;stroke:rgb(228,228,228);stroke-width:0.1;" id="l3"><path d="M214,0h83v1h-16v1c-8,0-8,1-15,2h-7v1h-1l2,1v1h5l1,1v1h-14l-1-1v-1h-4l-4-2v-1l-1,2h-1c0-2-1-1-4-1c-2-1-2,0-3,1h-3l-1-3v-1h-8l-8-1zm39,8v-3h-1l-1-1l1,1z"/><path d="M229,6h1l1,1v1l-1,1h-3v-1zm-11,3h1v1l-1,1h-1v1l4-2h-1v-1h5v1l-1,1h-3l2,1v1l1-1h3v1l-2,2h-3c0-2,0-1-1,1h-2c-1-1-1,0-3,2h1v1h-1l-1-1l-1-2v2l-1,2h-1v-2l4-8zm-2,7h1v-1h-1zm51-7h3l1,1v1h2l1,2v1h-1l-2-2v-1h-2l-2-1zm8,5h1l3,3v1l-1,1l2-1h3v3h3l4,4v2h2l4,4v2h2l5,5l1,2v2h2v2c2,0,1-1,1-2l1-1h1l1,7v3h2v3h2l1,2v-1l1-1h1v11h2c0,3,1,3,2,5c0,2,2,1,3,1l1,1v1h-1l-1-1v5h2c0,4,1,4,3,10l1,7c0,4,3,4,5,6c0,2,1,2,3,3v3h-1l-2-2c0,2,1,2,3,4v1l-1,2h-2v2l-1,1h-1v5c-2,0-1,2-1,5l-1,2h-1l1,3v4l-1,1h3v1l-1,1c-2,0-1,1-1,3l-1,1h2v1c-2,0-1,1-1,6l-2,1h1v3h3v1l-4,1h-2l-4-1l-1-1v-4l1-3h1l-1-1v-1c2,0,1-1,1-6h1l1,2l-1-2v-16l1-8h1l-1-1v-5c1-3,0-3-1-4c0-5-1-5-2-8v-1c1-1,0-1-1-4v-2c1-1,0-1-1-2l-1-4c0-5-1-5-2-6v-3h-2v-1c1-1,0-1-1-3l-1-3c0-2-1-2-2-3v-1l1-2l-1,1h-2v-1c1-1,0-1-2-3v-1l1-5l-1,1h-3v-5l-1,1h-1l-1-1v-1l-1,1h-1v-1l1-2l1-1l-2,1h-1l-1-2v-2h-2c0-2-1-2-6-7v-1h-2v-4h-2l-1-2v-1l-1,1h-2v-2h-2c0-2-1-2-4-5zm39,43v-1h-1v1z"/><path d="M208,21h1v1l-2,2l-3,1h-1v-2c3,0,3-1,5-2zm-7,2h1v1l-1,2l-1,1h-1v-3zm-4,1h1v2h-1zm-2,3h2v1l-1,1h-1zm-2,1h1l1,3v1l-1,1h-1zm-5,3h4v3l-1,1h-1v-1l1-1h-2v3h-2l-1-1v-1h1l1,1zm-1,7h1v2h2l1,1v1h-3q-1-2,0,0v1h-1l-1-1v2h-2v-1l1-1h1v-2zm1,6h1v1l-1,2l-1,1h-1v-2zm10,3h3l1,2l1,7v4l-2,1l2-1h1v1l-1,1h-1l2,1v1h-2c-1-1-1,0-3,1c-4,0-4,1-6,3h-1v2l-1,1h-1v2h-1v5h-1l-1-1v2h-1v-4l1-4l1-2h1l-1-3v-2h1v2l1-2l1-1h1l-1-1v-1l1-1h2v-3c-2,0-1,1-1,2h-1l-2-1v-1c2,0,1-1,1-2h1l1,1l-1-2v-1z"/><path d="M182,54h1l1,1v3l-1,1h-2v-1zm249,0h1v197h-1l-1-10v-6c1-2,0-2-1-3v-2l1-1h1l-1-1v-16c1-2,0-2-1-84v-6l1-32h1l-1-13v-3z"/><path d="M189,59h2v1h-2zm-10,3h2v4l-2,4h-1c-1-1-1,0-2,1l-2,1h-1v2l-3,1c-2,0-2,1-4,3c-2,0-2,1-5,4l-3,1c-2,0-2,1-4,3c-2,0-2,1-3,2l-2,1c-2,0-2,1-3,2c-2,0-2,1-3,2c-2,0-2,1-5,4l-2,1h-1v2l-2,1c-2,0-2,1-3,2c-2,0-2,1-5,4h-1v2c-2,0-2,1-3,2h-2v2l-1,1h-1v2h-1v4h1c0,2,1,2,2,3c0,2,1,2,2,3l1,2v7l-1,2l-2,1h-1v2h-1c0-2-1-1-8-1c0-2-1-1-2-1l-2-2c0-2-1-1-2-1v-1c1-1,0-1-1-3v-2l-1,2h-1l-2-4v-4l2-1h1v-1l2-2h1v-2l6-6c2,0,2-1,3-2l2-1h2v-2l4-4h1v-2c3,0,3-1,5-3c2,0,2-1,4-3l2-1c2,0,2-1,4-3l2-1c2,0,2-1,3-2c2,0,2-1,4-3l2-1c2,0,2-1,3-2c3,0,3-1,6-4l2-1c2,0,2-1,3-2c2,0,2-1,3-2l2-1h2v-2l4-2c2,0,2-1,6-5z"/><path d="M211,74h1v1l-2,2l-2,1h-2l3,1v2h-2v3l-4,4c-2,0-2,1-6,5h-1l-4-1l2,1v1l-1,1c-2,0-2,1-4,3h-2l-1-1v1c-2,0-2,1-5,4h-1v-2l1-1h1v-2c1-1,0-1-1-2v1l-2,1h-1v-1l2-2h2l2,1v-2h2v-2l-2,2h-1v-1l2-2c2,0,2-1,3-2h1v-2h1l-1-2v-4h1l1,1l1,2c0,2,1,1,2,1c2,1,2,0,4-1c2,0,2-1,4-3h3l-1-1v-1c2,0,2-1,4-3zm-41,29h1v1l-1,1h-1v-1zm10,0h1l1,1v1h-1l-1-1zm-13,3h1v1l-2,2h-1v-1z"/><path d="M188,110h1v2h-1zm7,2h1v2l-1,2l-1,1h-1v-1l1-3zm-34,1h1v1l-2,2h-1v-1zm-4,5h1v1l-2,2h-1v-1zm34,1h1v3h-1zm7,2h1v1l-1,1l2-1h1v2l-6,6h-1l-1-4v-1h1l1,1v-2zm-45,2h1v1l-1,1h-1v-1zm-4,8h1l2,2v1h-1l-2-2zm45,3h1l1,2v1l-1,1h-1l-1-1v-2zm-3,2h1v1h-1l2,2v1l2-1h3v1l-1,4h-1l-1-1l1,3v1h-1l-4-1l3,1l1,1v1h-1l-2-1l1,1v1l-1,1h-1l-1-3v4h-1v-4l1-4h1l-1-2v-1l2-2h-2v5l-1,2h-1l-1-2v-3l1-2z"/><path d="M186,146h1v3l-1,2h-4v-2h3l-1-1v-1h1l1,1zm-74,1h1l1,1v1h-1l-1-1zm64,1h2v1h-2zm153,5h2l1,1v1h-1l-2-1zm-210,2h1l5,5l8,8v1h-1l-5-5l-8-8zm218,0h2v1h-2zm1,3h3v1c-1,1,0,1,1,2v1l1-2h1v2l-1,1h2l1,1v1c-1,1,0,1,1,2v1l1-1h1l1,2v2l-1,1h3l1,1v1l1-1h6v8l2-1h1l-1-1v-1h3c0,2,1,1,2,1v1l-1,1h-1l2,1v3l-2,1h2l1,1v-4h1l1,7c0,3,1,3,2,4v-2h1v2l-1,1h2l2,2l1,3v1l1-1h1v2l-1,1h2l2,1l1,1v1h2l1,1v1h-1l-2-1l-1-1v-1h-3v-1h-1v1c-1,1,0,1,1,3l1,3v4h1c0,2,1,1,2,1l1,1v1l-1,2l1-1h5v1l-4,4h4v2l-1,2c-2,1-1,1,1,9v4l-1,1l1-1h1l1,2v1l-1,2h-1v4h-2v2c-2,0-2,1-3,2h-1l1,1l1,7v8l-1,1h-1l-1-1l1,1c0,5,2,5,4,6v1l2-1h2l1,1c0,1,3,1,7,2v1h7l3,1l1,1v1l-3,1h-22v1h-5v2h-4v-2l1-1h2v-3h1l-1-2v-1h-3c0-2-1-2-2-3v-2l1-3h1l-1-1v-1l1-1h-2v-7l1-2h1l-1-2v-5l1-4l1-2h1l-1-1v-3l1-6h1l-1-4v-1c1-2,0-2-1-3v-1l1-1h-3v-1c2,0,1-2,1-3h-2v-1l1-1h-1l-2-1v1h-1v-5h-2v-1c1-2,0-2-1-3l-1-4v-2h-2l-1-4v-1c1-1,0-1-1-2l-2-4v-1l1-1h-3l-1-1v-4h-3v-2h-2l-3-6c0-3-1-3-4-9c0-3-1-3-2-4v-1l1-1h-2l-4-4v-1l-1,1h-1v-1zm10,13h1v-2h-1zm26,28h1v-2h-1l-2-1l-1-1l3,3zm-10-19h-1v1h1z"/><path d="M229,186h3v2l2-2h2c0,3,5,3,5,2l1-1h1v2c3,0,1-1,1-3h2v2h2l1,1v1h-1l-2-1v7l-1,2h-3v3h-3v-2h-2v4l-4,1h-3h1v2h-1l-1-2v-1c-2,0-1,1-1,3h-2v-1l1-1l-1,1h-1c-3-1-3,0-4,1h-1v-1l1-1h-2v1l-7,1h-1c-1-1-1,0-5,1h-1v-3l2-4c2,0,2-1,9-8h1c1,1,1,0,2-1h1v-2h1v2h2v-3l1-1h2c2,1,2,0,3-1zm-16,2h2v1h-2zm165,0h1v1l-1,1h-1v-1z"/><path d="M377,192h1v2h-1zm2,2h2v1c-2,0-1,2-1,3h-1l-2-1v-2zm-215,1h1l1,1v1h-1l-1-1zm2,3h3v2l-2,1h-1zm4,3h1v6l1-4l1-1h1l1,1v1l-1,1h-1h2v2l-1,1h-1l-1-1l2,2v1h-1l-1-1v2h2v1l-1,1c-2,0-1,3-1,5l1-1h1l-1-1v-1h1l1,1v1l-1,1h-1l1,1v2h-1l-1-2v2l-1,1h-1v-1l1-2h1l-2-2v-5l2-1h-1c0-2-1-1-2-1v-1l1-2h-2v2h-2v-1l1-2h2v-2h-2v2l-2,2h-1v2l-1,2l-2,2h-1v-1l4-8c2,0,2-1,3-2c2,0,2-1,3-2z"/><path d="M165,202h1v1l-1,1h-1v-1zm72,3h2v1l-1,2l-1,1l-2,1h-1v-1l2-2h1zm-39,1h6v1h-6zm43,0h7v1c-6,0-6,1-9,4h-1v-2l1-2zm-50,1h1v1l-1,1h-1v-1zm2,0h3l3,1v2h-1l-2-1v-1l-1,1h-2zm57,0h3l3,1v1l-1,2l2-2h1l2,2v1c-3,0-3,1-4,3l-1,1h-1v2h2v1h-3l-2-1v-1l1-2c3,0,3-3,1-3c0-3-1-3-1-2l-1,1h-1v4h-1l1,2v1c-2,0-1,0,1,1l1,2v1h-1l-1-1l1,2v2h2v-2l1-1h2l1,1v2l-1,2l-4,1h-1c0-3-2-3-4-4l-1-1v-3h-3v-1l2-1c2,0,2-1,3-2l-2,1h-1l-2-2v3h-2l-2-1v-1l-1,1h-3l-1-1v-5h2v1l-1,1l1-1h2l1,1c0,3,2,3,3,4v-2l1-1c2,0,2-2,3-5h1l1,1v-2zm-4,7v1h1v-2h-1zm-10,0v1l-1,1h3v-2zm15-5v-1h-1v1z"/><path d="M175,208h1v3h-1zm7,0h2v2h2v1l-2,1h-3v-1zm1,3h1v-1h-1zm5-3h1l1,2v1h-1l-1-1v4h-1l-1-1v-1l1-3zm12,0h2v1h-2zm8,0h1l2,1v2c-3,0-1,2-1,3h-4v-1c2,0,1-1,1-2l1-1h1l-1-1zm17,0h4v1l-4,1h-2v-1zm162,0h1l1,1v1h-1l-1-1zm-209,2h1l1,1v3l-1,2c-1,1,0,1,1,2v1h2v1c-2,0-1,1-1,2h-3v-1l1-1h1l-3-3v-3l1-2h1l-1-1zm50,0h1v4h-1l-1-1v-2zm-62,1h1l1,1l1,2v1h-1l-2-2zm33,0h1v1l-1,3c-1,2,0,2,2,3v1l-1,2l-2,1h-1l1,3v1h-3v-4l2-1h-3v2h-1v-4h1l3,1l1,1v-2l1-1h-2c0-3-2-3-2-1l-1,1l-2,1h-1l-1-1v-1h1l1,1v-1l1-2c2,0,2-1,3-2h1l1,1v-2z"/><path d="M222,211h2v1h-2zm40,0h2v1h-2zm-22,1h2v1h-2zm-58,1h2c0,2,1,2,2,3v1h-2c0-2-1-1-2-1v-1l1-1l-1,1h-1v-1zm83,0h2v3h-1l-1-2zm-76,1h1l1,1v1h-1l-1-1zm29,0h2l1,2v1l-2,1h2v1l-2,1h-1l-1-1v-1l1-2h1l-1-1zm41,0h3v1l-1,1c-2,0-2,2-1,2l1,1v1l1-1h1v1l-1,1h1v2h3v2h-2l-3-3v-1h-2l-2-2v-3zm-50,1h3v3h-1l-1-1v-1l-2,2h-3v-1c3,0,3-1,4-2zm20,0h1v2l-1,1h-2v-2zm40,0h1l1,1v2h-1c-1-1-1,0-2,1h-1v2h-1v-2l1-1h1v-2zm-93,3h1l1,1v1h-2z"/><path d="M187,218h1l1,1v1h-1l-1-1zm26,0h2v1h-2zm189,0h3l1,1v1h2v1h-2l-1-1v-1l-1,1h-1l-1-1zm-178,1h1v1l-1,1l-4,1h-2v-1l2-1zm16,0h1c0,2,1,2,2,3v1h-1l-1-1v-1l-1,1h-1v-1zm-39,1h3v3h-2l-1-1zm-18,1h1l1,1v1h-2zm32,0h1v1l-1,1h-1v-1zm22,0h1v1c-2,2-1,2,1,3v-1h1v1l-1,1h-1c0,2,2,1,3,1v1l-1,2h-2v-2c-2,0-1,1-1,2h-4l-2-1l-2-2v-1l1-2l1-1h1v1l-1,1c2,0,2-1,4-3zm-3,5h2v-1h-2zm-61-3h1v2c-3,0-3,1-4,2h-2l3,3v1h-1l-4-4v-1h4v-2z"/><path d="M207,223h2l1,1v1h-3zm14,1h4v1l-1,2h-1v-2h-2zm22,0h3l1,1v4l-4,4l-2,1c-3,0-3,1-4,5h5v1h-5l-3-1l-2-2c0-2-1-2-2-3l1,2c0,2,1,2,2,3v2h-1c0-2-1-2-3-3v5l-2,2h-1v-3l2-4h1l-2-4v-1l1-3l1-1h1l4,2c0,2,4,2,4,1l4-1c1,0,1-2,2-5h-1zm-64,1h1l1,1v1h-1l-1-1zm83,1h2l2,2v1h-3l-1-1zm7,0h2l1,1v1h-3zm124,1h1c0,5,1,5,2,6v2h-1l-1-1v2h-1z"/><path d="M192,228h1l1,1v1h-1l-1-1zm7,0h2v1l-2,1h-1v-1zm-9,1h1v1l-1,2l-3,3h-1v-2h2l-2-2v-1h1l2,2l-1-1v-1zm65,0h2l2,2v1h3v1c-3,0-3,1-5,3h-3v-1l1-1h1v-2h1v-2h-2v2h-1v-2zm-95,2h1l1,1v1h-1l-1-1zm-3,1h1l1,3v1h-1l-1-1v1l-1,2h-1v3h-2v-1l2-4l1-1h1zm46,0h1v1l-1,1h-1v-1zm9,1h1v3h-3v-1zm-32,1h1l1,1v1h-1l-1-1zm38,2h1v2h3v1c-3,0-3,1-5,3h-1q-1-2,0,1c0,8,1,8,5,10v1h-6l-3-3v-5l1-2l2-1c-3,0-3,1-4,2h-1l1,1v2l-1,3h1c0,2,1,2,2,3v1h-5l-7-1v-2h-3l-2-2v-1h1l2,1l-2-1v-1h2l1,1l-1-1v-1l1-1c2,0,1-1,1-2h1l1,1v4l1-1h1v-4c3,0,1-1,1-3l-1,1h-1v-1l1-1h1l2,2v1h2v-5l3-1h1c1,1,1,0,4-1zm-2,3v1h1v-1zm-16,11h-1v1h1zm8-5h2v-1h-2z"/><path d="M249,236h4v1l-1,1h4v2h-3l-2-2v-1h-2zm-71,1h1l1,1v1h-1l-1-1zm-17,2h1v2h-1zm31,0h2v1l-1,1h-1zm-35,1h1v2h-1zm11,1h1l1,1v1h-1l-1-1zm52,0h4v2l-1,4l-1,2l-1,1h-2l-1-1v-6zm15,1h2v1h-2zm9,0h7v3l-1,1h-1l-2-2v-1h-3zm-60,1h1l1,1v1l-1,2h-1zm55,0h1l1,1v1l-1,1h2l1,1v1l2-2h1v3h-6l-4-4v-1h1l2,2zm-87,1h2v2l-1,2l1-1h1v1l-1,1h-3v-3c2,0,1-1,1-2z"/><path d="M163,244h1v5h-1l-1-1v-3zm34,0h2v1h-2zm-4,1h1l1,1v1h-1l-1-1zm40,0h1l1,1c0,3,1,3,2,5v1h-3l-2-2v-2zm-4,2h1v2l-1,1h1l2,1l1,1v1h2v2h-2l-2-1v-1h-2v2h-1v-2l1-1c-3,0-3,4-4,6l-2,1h-1l-1-1v-1h-2v-1l2-1h1v-4l4-2c2,0,2-1,3-2zm-35,3h1l1,1v1l-1,1h-6l-1-1v-1h1c4,1,4,0,5-1zm0,2h1v-1h-1zm-42,1h1v1l-1,2h-1v-2zm279,0h1v2h-1zm-277,1h4l1,1v1l1-1h1v1l-1,1h-1c-1-1-1,0-2,1h-1v2h-1v-2l-2,2h-1v-3h3l1,1l-1-1v-1h1c1,1,1,0,2-1h-4z"/><path d="M172,254h1v3h-1zm4,0h1c0,2,1,1,2,1v1l-1,1l1-1h3v-2h7l3,6v1h-5l-2-4v-1h-3l1,1v1l-1,1c-2,0-1,1-1,2h-3l-1-1v-1c1-2,0-2-1-3zm23,1h2v2l-2,2h-1v2h-5v-1l2-4zm4,1h5c0,2,1,2,2,3v1l-2,1h3l2,2v1h-3l-3-1l-2-2c0-2-1-2-2-3zm-37,2h3v1l-2,2h-1v-1l1-1l-2,2h-1v-1zm7,0h2v1l-1,1h-1zm46,1h1v3l-1,3h-3l-2-1v-1h2l2,1l-2-1v-1z"/><path d="M159,260h3v1h-3zm2,2h3v1h-3zm13,1h6l1,1l1,3v2h2v-2l1-1h1v-2l1-1h5v1l-2,2h-1v2l-2,2h-9c0-3-1-3-2-5v-1l-2,1h-1c0,2,1,2,2,3v2h-1c0-2-1-1-2-1v-1l1-1l-2,2h-9v-1l1-1h-2l-1-2v-1h1l4,1c0,2,1,2,2,3v-1l3-3zm-10,3h-1v1h1zm29-3h4l1,1c0,2,1,2,2,3v1h-1c-1-1-1,0-2,1h-1v-1l1-1l-1,1h-1l-2-4zm27,0h2v1h-2zm-65,2h2v1h-2zm54,2h2v1h-2zm-57,3h1l1,1v1l1-1h1v1l-1,1h-3z"/><path d="M159,270h1l1,1v1l2-1h1v1l-2,2h-2l-1-1zm11,1h2v3h-1l-1-2zm4,0h4v1l-1,1h-3zm-17,1h1v4h-1zm-6,6h4l1,3c0,4,1,4,3,6v-3h1v3l-1,1h-1l-2-2v-1l-1,1h-72l-40-1v-1l6-1h-1v-1l24-1l41-1c28,0,28-1,38-2z"/><path d="M180,282h1v2c-2,0-2,1-3,3h-1l-1-2v-1c3,0,3-1,4-2zm58,4h2v2h-3v-1zm30,0h4l1,1v1h-4l-1-1zm-107,1h1v1h-1zm4,0h1v1h-1zm8,0h1v1h-1zm33,0h1v1h-1z"/></g><g style="fill:rgb(60,60,60);fill-rule:evenodd;stroke:rgb(60,60,60);stroke-width:0.1;" id="l4"><path d="M253,28h2v1h-2zm-14,1h6l1,1v1l-2,2l-2,1c5,0,5-1,9-2l12-2h8l2,1v1l-1,1h2c0,3,2,3,3,4v1c-2,0-1,1-1,2h2v-2h3l3,1v1h-3l1,1v1l-1,1h3v1l-1,2h-1l2,1v3h7l1,1v1l1-1h1v1l-1,1h3v3c-2,2,0,2,1,3v1h2v1c-1,1,0,1,2,3v2c-1,1,0,1,1,2v2c-1,2,0,2,2,4v1l-1,2h2l1,2v1l-1,2h3v1h-2c0,4,2,2,3,2v1c-1,1,0,1,1,6v-2h1v4l-2,6h-1v3h2v1h-3v2q-1,0,5,1v1h-3v5l-1,1h-1v-1l1-1h-2l3,6v-3h1v5c-1,1,0,1,1,9v3l-1,3l-1,2h-1v3h-2v2l-1,1c-4,0-3,3-3,7h-7l-4-2v-2h-2c0-2-1-2-3-4l-1-1c0-2-1-2-2-3l-2-4c0-3-1-3-2-4l-1-2c0-3-1-3-2-5c0-3-1-3-3-7l-1-3c0-3-1-3-3-7c0-4-1-4-2-7v-16h-1v-3h-2l-2-4v-5l-1,1h-1c0-2-1-1-3-1l-2-2v-2h-2v-2l-1,2h-3l-1-1v-3h1l1,1v1c2,0,2-2,1-2l-1-1v-1c-2,0-2,1-3,2c-2,0-2,1-3,2h-1l-4-1l-1-1v-1h-5l-4-2l-1-1v-2l1-2h6l-4-1v-1l2-2l-1,1h-1l-2-1v-1q5-1-2-1l-2-1l-1-1v-2l3-1h-3l-3-1l-1-1v-1l2-1h-2v-1l5-1h4l-1-1v-1l1-1l3-1c3,0,3-1,4-2h-4v-1c6,0,6-1,7-2z"/><path d="M288,42h1l1,1v1h-1l-1-1zm7,8h2v1h-2zm-46,18h1l3,1v1c-2,0-1,1-1,2h-1l-1-1l-1-2zm-2,9h2v2l-1,1h-1zm-45,63h1l13,1v1l1-1l3-1h7l2,1l1,1l1,2l1,15v6l-1,1l-4,2c-2,0-2,1-7,6l-1,1h-1v2c-2,0-2,1-4,3l-1,1c-2,0-2,1-4,3l-2,1h-1c-3-1-3,0-6,3h-1v2l-3,3l-2,2l-3,1h1v1h-1l-1-1v-1l1-1c-2,0-2,1-3,2h-1l-1-1v-1h2c0-3-2-1-3-1l1,2v1h-1l-1-1v-2l-1,2h-1v-3l1-1l-1,1h-1v3h-1v-10v2l-1,2l-1,1h-1v-12c2,0,1-1,1-7l3-6l1-1c2,0,2-1,4-3c2,0,2-1,4-3h1v-2l1-1h3v-2c2,0,2-1,4-3h1v-3l1-3h2v-2h-2v-1z"/><path d="M184,159h1v1l-1,1l-2,1h-1v-1l1-1zm-8,24h1v3h-1zm36,28h1v2h-1zm49,1h1v2h-1zm-11,1h4v1l-2,1h-1v3h-1zm14,1h1v3l-1,1h-1v-3zm-4,3h2v1h-2zm5,4h1l1,1v1h-1l-1-1zm-4,2h1l2,2v1h-1l-1-1v-1l-1,1h-1v-1zm-20,1h1l1,1v2h-1l-1-1zm34,0h1v2h-1zm-8,1h2v1h-2zm3,0h3l1,1v1h-2l-2-1zm-17,3h1v2h-1zm6,1h1l1,1v1h-1l-1-1zm16,3h1v3h-1zm11,1h1v2h-1zm-47,2h3v1h-3zm40,0h1l1,1v1h-1l-1-1zm-32,1h1l1,1v1h-1l-1-1zm18,0h1l1,2v2h-3l-1-1v-1h1l2,1l-1-1z"/><path d="M276,236h2v1h-2zm20,0h3l2,2v1h-1l-1-1v-1h-3zm-53,1h1v2h-1zm45,0h1l1,2v1h-1l-1-1zm4,1h1v2h-1zm-33,4h3v1h-3zm15,0h2v1h-2zm-17,1h1v1l-1,1h-2v-1zm40,1h1v1l-1,2h-1v-2zm-45,1h1l1,1v1h-1l-1-1v2h-1v-2zm20,2h1v2h-2v-1zm5,0h1l1,1v1h-1l-1-1zm5,6h1v2h-1z"/></g><g style="fill:rgb(137,137,137);fill-rule:evenodd;stroke:rgb(137,137,137);stroke-width:0.1;" id="l5"><path d="M243,10h3c0,2,2,1,4,1c1,1,1,0,3-1h12l3,1c0,2,1,1,2,1l2,1l3,3l2,4c0,2,1,2,3,4v4h-1l-2-2v-1h-3c0-3-4-2-6-2l-1-1v-1l1-1h-1l-2-1v-1c-3,0-3,1-5,2h-1v-2c2,0,1-1,1-2l-2,1h-1l-3-1v2h-1l-2-2v1c-2,0-2,1-3,2h-10c-1-1-1,0-5,2h5v1h-4v2l-5,1h-3v1h-2v2h-2v2h-10c-2-1-2,0-3,1h-2v1c-1,0-1,2,12,2v1l-2,2h-5v3h-7h6l3,3v1h2l1,2v1h3l4,4v1l-1,1l-2,1h-1c0,2,1,2,3,4v1h2l1,1v1h2l4,2l2,2c0,2,1,2,2,3v1l3-1l4-1h5l1,2c0,2,1,2,2,3v2h-2c-2-1-2,1-1,1v1h-1l-1-1c0-2-4-1-10-1l-2-1l-1-1v-1h-2v-1h2l-4-4c0-2-1-2-3-4v-1h-2l-4-2l-1-1v-1h-2l-3-3v-6c1-1,0-1-1-2v-1h-4l-1-1v-1h-2c-2-1-2,0-5,1h-2v2c-3,0-3,1-5,2h-1v-1l1-1h-2v-2l1-2l1-1h1l-1-1v-1l1-3l1-1h1v-2l1-1h1l1,1v-1c2,0,2-1,4-3c3,0,3-1,4-2c3,0,3-1,4-2c2,0,2-1,4-3l3-1h-1v-1h1l1,1v-2l2-1h4v-2h1c1,1,1,0,2-1h2l1,2v-1l1-1l2-1h2l1,1l-1-1v-1c5,0,5-2,6-3z"/><path d="M281,28h1l2,2l1,2v4h-1v-4l-1,1h-1c0-2-1-2-2-3v-1zm4,10h4l2,1v2h-1l-2-1v-1l-1,1h-2zm3,5h1v2h-1zm6,4h1l1,1v1h-1l-1-1zm4,4h2v2h-1l-1-1zm-114,3h1l1,1v1h2l2,1v2l-1,3l-2,2h-1v-2l1-2l-1,1h-1v-1c1-1,0-1-1-4zm116,1h1l1,1c0,5,2,5,2,3h1v3l-1,1h-1v2h2v1c-1,2,0,2,4,3v1l-1,1h-1l2,2v1h2v1l-1,1h-1l1,1v1l-1,1h1v2h2l1,1v-3h1v6h-3l1,1v1l2-1h1v2l-1,1h-2l-1-1c0-2-1-1-2-1v-1c1-5,0-5-2-6v-1l1-3l-1,1h-1c0-2-1-2-2-3l-1-2v-1c1-2,0-2-1-3l-1-2v-2l1-1h-2v-6v1h-1v-2z"/><path d="M186,65h2v4l-1,4h-1v5l-1,3c-2,1-1,1,1,3v1h2v-2h1v3h-2v3l-1,1l-2,1h-1c-1-1-1,0-2,1c-2,0-2,1-4,3l-2,1h-2v2c-2,0-2,1-4,3h-1c0-2,0-1-1,2h-1l-2-2v-1l1-2l1-1c2,0,1-2,1-3l1-1c2,0,2-1,4-3h1v-2l9-9h1v-2c2,0,2-5,3-8h-1l-1-1v-1h1l1,1zm7,5h1l1,1v3l1-1h1v1c-1,1,0,1,1,2v1l-1,2h-1l-1-2v-2h-2l-1-1v-3zm6,0h2v1h-2zm3,1h3v1h-3l2,1v1c-3,0-3,1-4,2h-1l-1-1v-1c2,0,2-1,4-3z"/><path d="M253,74h7l2,2v3l-1,2l-1,2l-1,1h-2c0,2,1,1,6,1l1,2c0,13,1,13,2,14c0,4,1,4,2,6c0,4,1,4,8,18c0,3,1,3,5,11c0,2,1,2,3,4c0,2,1,2,4,5v1h3c0,2,2,2,6,4v1h-2l-4-1l-2-1v-1l-1,1l-2,1h-2v-1l1-1l2-1h-2l-2-1l-5-5l-3-6c0-2-1-2-3-4l-1-4v-3h-2c0-2-1-2-4-5l-1-3c0-2-1-2-2-3l-1-4c0-4-1-4-2-5v-1c1-4,0-4-1-5v-3h-10l-1-1l-1-2v-2h3l1,1l-1-2v-1h1c2,1,2,0,3-1l2-1h1v-2l3-3h1l-1-1v-1q1-2-2,1h-4v-2q3-1-1,0h-3v-1c3,0,3-1,5-2h-1z"/><path d="M314,91h2v1h-2zm-3,2h1l1,1l1,2v2l-1,2c-2,0-2,1-3,2h-1v-3l1-3l1-1h1l-1-1zm5,5h1v2h-1zm-121,1h1v1l-3,3l-4,1h-3v-2h3h-1v-1h2c3,1,3-1,5-2zm119,1h1l1,1v1h-1l-1-1v4l1-2h1l1,2l1,3v1h-1l-1-1l1,2v1l-1,2h-1l1,1v1l-1,3h-1l1,2v12h-1c0-2-1-1-2-1l-1-4v-1c1-1,0-1-1-4v-10l1-1c2,0,1-1,1-2l2-1c2,0,2-3,1-2h-5v-2z"/><path d="M161,102h3v2c-2,0-2,1-3,2h-1v2c-3,0-2,1-2,3h-1l-2-1v-3c3,0,3-2,4-4zm43,2h1l1,1v1l-2,2l-2,1l-3,1h-1v-1l1-2c2,0,2-1,3-2zm-8,4h1v1l-1,2h-2v-1zm-49,5h4l1,1v3l-1,1h-2v2h-1v8l-1,1h-4l-2-1v-1l1-1l-2,1h-2l-3-1v-1h-4v-1l8-2c2,0,2-1,3-2h1v-3zm46,0h1v1l-1,3h-1v-3zm40,5h2v1l-1,3h1c0,2,1,2,2,3v3l-1,5h-1l1,1v9l-1,9l-1,1h-1v3h-2v-7c1-3,0-3-1-5l-1-4v-2h-2v-1l-6,1c-5,0-5,1-7,2l-10,1h-5l-1-1v-1h2l-2-1v-1l2-2h1c1,1,1,0,3-2h1v-2l1-1c3,0,3-1,4-2c3,0,3-1,7-3l2-1h2v-2l3-3h1c2,2,2,1,8-1z"/><path d="M313,135h1v3l-1,1h-1l1,2v1l-1,1h-1v2l-1,1h-2l-1-1v5l-1,2l-1,1h-3v-1l1-2h1v-6l1-1h1v-2l2-1c2,0,2-1,3-2h1v-2zm-114,9h2v2h-1l-1-1zm-2,5h1v2h-1zm16,1h1v1l-1,1h-1v-1zm86,1h2v1h-2zm-106,1h3v1l-1,1h-1l-1-1zm-4,1h2v1l-1,2c-3,0-3,1-5,3l-3,1h-3v-1c3,0,3-1,4-2l2-1h2v-2zm-10,2h5v1h-5zm118,3h1v1l-1,1h-1v-1zm-121,2h2l1,1v1l-1,1h-2v2h-1l2,1v1l-1,2c-1,0-1,4-2,10l-1,4l-2,6l1-2h3v5v-1h1v1l-2,2h-2v3l3-3h1v1l-1,2l-1,1h-1v2l1-1l2-1h2l2,2l-1-1v-1h3v1l-2,6h-1l1,1v2l-1,1h-1v-5h-2v-1l1-1h-3l-2-1l-2-2v-6v4h-1l-1-1l1,1v1h-1l-1-1v-1l1-2h1l-1-1v-1c1-1,0-1-1-3l-1-3v-2l1-3h1l1,1l-1-2v-7l1-2h1v-4l1-1h1v-2z"/><path d="M289,166h1v1l-1,1h-1v-1zm4,0h1v1l-1,1h-1v-1zm-51,1h1v1l-1,1h-1v-1zm-21,5h1v1l-1,1h-1v-1zm0,3h1l1,1v2h-1l-1-1zm-46,1h1v2h-1zm50,1h1v1l-1,1h-1v-1zm55,0h1v1l-1,1h-1v-1zm-105,2h1v3l-1,2l-1,1h-1v-1l1-4zm36,2h1v1l-2,2h-1v-1zm66,0h1v1l-1,1h-1v-1zm-70,3h1v1l-3,3h-1v-1zm6,0h1v1l-2,2h-1v2h-1v-2zm-13,6h1v1l-7,7h-1v-1zm-20,5h1v2h-1zm88,0h1v1l-1,1h-1v-1zm-79,2h1v1l-1,3h-1v-3zm-5,2h1l2,2v1c-1,2,0,2,1,3v1l-2,2h-2l-2-1l-1-1v-2l1-3z"/><path d="M190,201h1v1l-2,2h-1v-1zm74,1h1v2h-1zm-46,3h2v1h-2zm10,0h1v1l-1,2h-1v-2zm76,0h2l1,4l1,5v26h-2h3v6h1c0,4,1,4,2,7v1c-1,1,0,1,1,2c0,3,1,3,2,5l2,6v5h1c0,4,1,4,2,7l1,7v1l-1,1h-11v-2h-2l-1-1l-1-2v-1h1l1,1v-3l1-1h1v-2h1l-1-1v-2h1l1,1v1l1-1h1v-2h-5v-2h-2l-1-1v-4h1c0,4,2,3,3,3l-1-1v-1l1-2h-2v-2h1c2,2,2,0,4-1h1l-1-2c0-2-2-2-2-1l-1,1h-1v2h-1v-2l1-1h1l-1-1v-1h1l1,1l-1-1l-1-2v-1h1l1,1v-3h-2v-1c1-3,0-3-1-6c0-4-1-4-3-6v-1h-2v-1l-1,1h-1l-1-1v-1h1l1,1l-1-1v-1l-2,1h-4v-1h4l-1-1v-1h-2l-2-1l-1-1v-1h-3c0-2-1-2-3-4v-1h1l1,1v1h2l2,1l1,1c0,1,2,1,5,2v2h2v1l1-1c3,0,3-8,2-8l-1-1v-1l1-4h1l-1-3v-1z"/><path d="M246,207h1v2l-1,2h-3v-2h3zm-51,2h1v2c-2,0-1,1-1,2h-1l-1-1v-1zm30,0h1l1,1v1h-4v-1zm36,0h1l1,1v1h-1l-1-1zm-71,1h1l1,3v1h-4v-2zm41,0h1v2h-1zm4,0h3v2h-1l-2-1zm-33,2h2v1l-1,1c-2,0-1,2-1,3h-4v-2l2-2zm17,0h5v1l-1,1h-5v-1zm35,1h1v2h-1zm-72,1h1v1l-1,1h-1v-1zm33,0h1v2h-1zm43,0h1v1l-1,1h-1v-1zm-38,1h2v1h-2zm29,0h1v2h-1zm-37,1h2v1h-2zm25,1h1v4h-3h1v1h-1l-2-1v-1c2,0,1-1,1-2h1l2,1z"/><path d="M186,218h1l1,1v1h-1l-1-1zm-7,1h1l1,1v1h-1l-1-1zm75,1h2v2h-1l-1-1zm4,0h1v2h-1zm20,0h1l4,2l2,2v1h-1l-2-1l-1-1v-1h-2l-1-1zm-79,1h1l1,1v1h2v1h4v2h-4l2,1v2h-1l-2-1l-2-2v-1h-2v-1zm44,0h1l1,1v1h2l1,2v1h-1l-1-1v-1h-2l-1-1zm23,0h1v1l-1,1h-1v-1zm-72,1h1v2h-1zm44,0h2v1h-2zm-68,1h3v1h-3zm107,0h1l1,1v1h-1l-1-1zm-8,1h3v1l-2,1h-1zm-47,1h1v1l-1,1h-1v-1zm42,0h1v2h-1zm-39,1h2l1,1v1l-1,1l2-1h2l4,2v1h-3l-2-1l-1-1v1l-1,2h-2v-2c1-1,0-1-1-2v2h-1l-1-1v-1z"/><path d="M241,226h1v2h-1zm-25,1h1c0,2,1,2,2,3v1l1-1h3v1l-1,1h2l1,1v2l-1,1h2l1,1l-1-2v-1h1l1,1v3h-2l-2-1l-1-1v-1l-1,1h-1l1,1v1h-2v-2l1-2h-2c0-3-1-3-3-4l-1-1v-1zm7,7h1v-1h-1zm24-6h2v1h-2zm19,0h2v1h-2zm5,0h1v3h-1zm2,0h4l1,1v1h-5zm-74,1h1v2l-2,4l-1,1l-2,1h-3v-3h1c0,2,2,2,2,1l2-2h1v-3zm41,0h1v1h-1l1,1v1h-1l-1-1v-1zm-59,1h1v2h3v1l-2,1h-1l-1-1zm79,1h2v1h-2zm15,0h1v1l-1,3h-1v-3zm4,0h2l2,1l1,1v2h-1l-1-1v-1h-2l-1-1z"/><path d="M214,232h4v3l-1,1h-2v-1l1-1l-2,1h-1v-1zm15,0h1c0,2,1,2,2,3c0,2,1,2,2,3l1,2v-1h1v1l-1,1h-1l1,1v1h-2v3h-1v-4l2-2h-1l-1-1c0-2-1-2-2-3l-1-2zm40,0h1v1l-1,2l-2,2h-1v-1l1-1h1v-2zm22,0h1l1,1v1h-1l-1-1zm-43,1h4v1h-4zm-43,1h1v1l-1,1h-1v-1zm74,0h1l1,1v1h-1v-1l-1,1h-1v-1zm8,0h2v1h-2zm-107,1h5v2l-2,2h-1l-3-1l-1-1v-1zm65,0h1l2,2v1h-1l-2-2zm45,0h2l1,1v1l-1,1h-1l-1-2zm-91,1h1v2l-3,3h-4v-1c4,0,4-1,5-2h1z"/><path d="M269,236h1l2,1v1c-2,0-2,1-3,2h-1v-1l1-1h1h-2v-1zm-101,1h1v3h-1l-1-1v-1zm39,0h3v1l-1,1l-3,1h-1l1,1v3h-1l-1-1v-1l1-1c-2,0-2,1-3,3h-1v-3l1-1h1v-2zm88,0h2v1h-2zm-107,1h2v4l-1,2h-1zm57,0h1v1l-1,2l-1,1h-1v-1l1-2zm35,0h5v1h-3v3h-1l2,2v1h-1l-1-1v-1h-2v-2c2,0,1-1,1-3zm-120,1h1v3l-2,2h-1v-1l1-1h1zm25,0h1l1,4v1h-2zm102,0h2v1h-2l2,1v1h-2l-1-1v-1zm-123,1h1v2l-1,1h-1v-1z"/><path d="M191,240h1v5h1c0,2,1,2,3,4v1h-3l-1-1l-1-2zm27,0h1v1l-1,1h-1l1,1v1h-1l-1-1v-1zm11,0h1v2h-1zm63,0h2v5h-1l-1-4zm-121,1h2v1l-2,2h-1v-2zm90,0h1l1,1v1h-1l-1-1zm12,0h2v1h-2zm-105,1h1v2l-1,2h-2v-2zm116,0h2v1h-2zm11,0h1v4h-1zm-52,1h3v1h-3zm13,0h1l1,1v1h-1l-1-1zm18,0h1l1,1v1h-1l-1-1zm16,0h1l1,1v1h-1l-1-1zm-96,1h3l1,1v1h-4zm9,0h1l1,1v2h-1l-1-2zm12,0h1v4h-1zm36,0h1v2h-1zm28,0h1l1,1v1h-1l-1-1zm5,0h1l1,1v1h-1l-1-1z"/><path d="M298,244h1v2l-1,2h-1v-3zm-135,1h2l1,2v4h-1l-1-1v-2l1-1l-1,1h-1zm26,0h1v2h-1zm40,0h1l1,1v1h-1l-1-1zm15,0h2l1,1v3h-1v-3h-2zm33,0h1v1l-1,1h-1v-1zm-108,1h2v2l-1,2h-2l-1-1v-2h1l1,1zm88,0h1v1l-1,2l1-1h1v1l-1,2h-1c0-2-2-2-2-1c-1,1,0,1,1,2v1h-1l-2-2v-1zm25,0h2v1c-2,0-2,1-3,2h-1v-1zm-11,1h1v1l-1,2h-2v-1zm-54,1h1l1,1v1l3-1h1v1l-1,2h-4l-1-3zm18,0h2l1,1v1c-1,1,0,1,3,4v1h-1l-4-4v-1l1-1h-2z"/><path d="M239,248h1l2,1l1,1v1h-2l-2-1zm11,0h1v1l-1,1h-1v-1zm25,0h2v1h-2zm-31,1h1l1,1v1h-1l-1-1zm40,0h1l1,1v1l-1,1h-1v-1l1-1l-2,2h-1v-1zm7,0h1v2h-1zm-18,1h3v1l-3,3h-1v-1l1-1h1l-1-1zm32,0h2v1h-2zm-10,1h1l1,1v1l1-1h1v1l-1,2h-1l-1-1l-1-2zm-47,1h2v2l-2,1h-1l-1-1v-1zm-64,1h13v1l-1,1h-7l-5-1zm67,0h3v1h-3zm19,0h1v2h-1zm36,0h1v3h-1zm-106,1h5v1h-5zm15,0h6v1l-1,1h-4l4,1v1l-4,4h-1v-1l3-3c-2,0-2,1-3,2h-2v-1l2-2h-2v2h-1l-1-1v-2h-2l2,2c0,2,1,2,3,4v1h-1l-3-3c0-2-1-2-2-3v-1h-2v-1h10h-1z"/><path d="M275,254h1l1,1v1h-1l-1-1zm-84,1h1v1l1-1h1v1l-1,1h-1l-1-1zm66,0h1l1,1v1l-1,1h-1v-1l1-1l-1,1h-1v-1zm7,0h1v1l-1,1h-1v-1zm-37,1h1l1,1v1h-1l-1-1v3h-1v-3zm14,0h1l1,2v1l-1,1h-1zm25,0h1v1l-2,2h-1v2l-2,1h-1v-1zm26,0h1v2h-1zm6,0h2v1h-2zm-49,1h3c0,3,1,3,2,4v1l-1,1h-1v-1l1-1l-1,1h-1v-1l1-1h-2v-1l1-1l-2,1h-1v-1zm32,0h1l2,1v1c2,0,1-1,1-2h2v2l-1,1h-2l-2-1l-1-1zm20,0h1l1,1v1h-2zm-108,1h1v1l-1,1h-1v-1zm103,0h3v1l-2,2h-1v2l-1,2h-1v3h-1v-3l1-3l2-2h1l-1-1z"/><path d="M294,259h1v1l-3,3h-1v-1zm-110,1h3v3h-1l-1-1v2l-1,1h-1l-1-1v-3h1v3l1-2l1-1h-1zm17,0h1l2,2v1l-2,1h-2l-5-1v-1c5,0,5-1,6-2zm0,3h1v-2h-1zm64-3h2v1h-2zm14,0h4v1h-4zm-111,1h1v2h-1zm12,0h1v3h-1zm40,0h2l2,1v2h-1l-1-1v-1h-2zm-15,1h1l1,1v1h5l1,1v1h-1l-5-1l-2-2zm65,1h1v1l-1,3h-1l-2-1v-1c2,0,2-1,3-2zm-78,1h1l1,1v1h-1l-1-1zm34,0h1l3,3v1h-1l-1-1v-1h-2zm36,0h2v1l-1,2h-1zm20,0h3v1h-3zm-81,1h2v1h-2z"/><path d="M215,265h2l3,1v1h-4l-1-1zm72,0h1v1l-1,1h-1v-1zm12,0h1l1,1v1h-1l-1-1zm-123,1h1v2h-1zm46,0h3l1,3v4l-1,1h-3v-2v1l-1,1l-2,1h-1l-1-1v4h-1v-2h-5l-1-1q0-1-1,2h-1v-3l1-2l-1,1h-1v2l-1,1h-2l-1-1v-1h2l1,1l-1-1v-1c2,0,2-1,6-5h1v1l-2,2h-1l2,1v3l4-1h-3v-1h9l-2-2v-2h4c0,3,1,3,2,4v-4h-1v-2h-2zm32,0h5v3h-1l-3-1l-1-1z"/><path d="M283,266h1v2h-1zm14,0h1l2,4v1h-1l-1-1l1,1v2c2,0,2-2,3-4h1v2l-1,2l-3,3h-1v2l-1,1c-2,0-2,1-3,3h-2v-1l3-3h2l-1-1l-1-2v-3l3-1l-3,1h-1v-2v1h-1v-1l1-1h1c3,1,2-1,2-3zm5,0h2v1h-2zm-147,1h2v1l-1,1h-1zm36,0h4l1,1v2h3v1l-1,2l-1,1l-3,1h-1v-2l1-1h-1v-4h-2zm22,0h1l1,1v1h-1l-1-1zm18,0h1l2,1c0,2,1,1,2,1v1c-1,1,0,1,1,3v1h-1l-1-1l-1-2v4h-1l-1-3v-1l2-1h-1l-2-1zm22,1h1v2h-1z"/><path d="M158,269h1v3h-1zm2,0h4v1l-2,2h-1v-1l1-1h-2zm17,0h14l1,1v2h-1c-2-1-2,0-3,2l-2,1h-3l-1-1v4h-2l-2-1v-1l-1,2h-2l-3-1v-1c1-4,0-4-1-5v-1zm-3,4l3-1h1l-5-1l1,1zm87-4h2v1c-2,0-1,1-1,2h-1l-1-1l1,1v1h-1l-3-1v-1c3,0,3-1,4-2zm22,0h1v3h-1zm-70,1h1v1l-1,1h-1v-1zm24,0h1l1,1v1h2v1h3l2,1v1h-4l-1-1v-1l-1,1h-2v-1l1-1h-2zm30,0h1l1,2v1l-1,1h-1v2h-1v-2l1-1h1l-2-1v-1zm-67,1h1l1,2v1h-1l-1-1z"/><path d="M202,271h3v1h-3zm-38,1h6l1,1v2c-1,3,1,3,2,5v1h-1v-1l-2,2h-1v4h-1l-1-1v-2c-2,0-1,1-1,2c-2,0-2,1-3,2h-1v-2l1-1h1v-2h-3c0-4-1-4-2-7v-1h1c2,1,2,0,4-2zm25,2h1l2,2v1h-1l-1-1v-1l-2,2h-1v-2zm9,0h2v1h-2zm28,0h1l1,1v1h3l2,1v2h-1l-4-2v-1h-7v-1zm47,0h8v1c-1,2,0,2,1,3v1l1-1h2l1,1v1l-1,1h-1l1,1v1h-4v-1c1-3,0-3-2-5l2,2v1h-1c-2-2-2,0-4,1h-1l1,2c0,2,1,2,2,3v-3h1v5h-1l-4-4v-1l-1,1h-1v-1l1-2l1-1h2l-2-1v-3h-2v-1z"/><path d="M239,275h2v1h-2zm-54,1h1v2h-1zm17,0h1l1,1v2h-1l-1-2zm45,0h2l4,2v2h-1l-4-2l-1-1zm46,0h1v2h-2v-1zm-110,1h1v3h-2v-1zm15,0h1v1l-1,1l-2,1h-1v-1l1-1zm2,1h1v3l-2,2h-1v-3zm-26,1h2l1,2v1h3v1l-1,1h-3v-1c1-1,0-1-1-2v2l-1,1h-2v4h-1v-6c3,0,3-1,4-2h-1zm15,0h1c0,3,1,2,5,2v2h-2l2,1v1l1-1h5v1h-2v2l-1,1h-5v-1l1-1c-2,0-2,1-3,2h-11v-4l1-1h1l-1-1v-1h2v2l-1,1h2v-1c2,0,2-1,5-4z"/><path d="M209,279h1l2,2v1h-3v-1l1-1l-1,1h-1v-1zm8,0h1v3h-1zm31,0h1l1,1v5h-1v-4h-4v-1zm50,0h1v3l-1,1h1l3,1v1l1-1h2v2l-1,1h2v1h-4v-1h1l-1-1v-1h-4v-2h-2v-1l1-2zm-141,1h1l2,1v1h-3zm47,0h1l1,1v1h-1l-1-1zm24,0h4v1h-4zm10,0h1v1l-1,1h-1v-1zm-16,1h5l4,1v1h-7l-2-1zm18,0h4v1l-1,1h-1l1,1v1h-1l-1-1v-1l1-1l-2,1h-1v-1zm15,0h3c0,2,1,1,2,1v1l-1,1h-1l-1-1l1,2v1h-1l-1-1l-1-3z"/><path d="M270,281h1v2h-1zm-24,1h2v1h-2zm-29,1h2v1h-2zm15,0h2v3l-2,2h-1v-3h1l1,1l-1-2zm29,0h1l1,1v1h-2zm31,0h3l1,1v1h-4l1,1v2h-1l-1-1v-1h-2v-1l1-1zm-86,1h1l1,1v1h-1l-1-1zm39,0h1v2h5v1l-1,1h-2l-3-1zm35,0h5v1l-3,1h-1l-1-1zm-65,1h1l1,2v1h-1l-1-1zm25,0h1l1,1v2h-1l-1-1zm19,0h1l2,1v1h-3zm5,0h1l1,1v1h-2zm-88,1h1v2h-1zm33,0h1l1,1v1h-4v-1zm-35,1h1v1h-1zm55,0h1v1h-1zm6,0h1v1h-1zm32,0h1v1h-1z"/></g><g style="fill:rgb(204,204,204);fill-rule:evenodd;stroke:rgb(204,204,204);stroke-width:0.1;" id="l6"><path d="M235,4h2v1l-1,1h-2v-1zm5,0h1v2l1-2h1l2,1v1l-3,1h-1l-2-1v-1zm-9,2h2v1l-1,1l2-1h3v1l-2,1h-3l-1-1v2h-4v2h-6l-2-1v-1h2c3,1,3,0,4-1c5,0,5-1,6-3zm21,0h1v2l-1,1h-1v-1zm3,2h4v2h-6v-1zm11,0h2v1h-2zm-52,8h1v2l1-1l2-1h2v2l-4,1h-3v-1zm-3,4h1v1l-1,1c-2,0-2,1-4,3h-1v-1l3-3zm-9,4h1v2l-2,1h-1v-1zm-4,1h1v2h-1zm87,2h2c0,4,2,4,8,10v2h2l1,2c0,2,1,1,3,1v1c-1,2,0,2,1,3v1l1-1h1l1,2v2l-1,1l1-1h1l1,1v-1h1v5c-1,1,0,1,2,3v1l-1,1l2-1h1v2c-1,1,0,1,1,2l1,2c0,3,1,3,2,5v1l-1,1h2c0,3,1,3,2,4l1,5c0,4,1,4,2,5v1c-1,2,0,2,1,5v1c-1,1,0,1,1,4c0,5,1,5,2,6v9l-1,8h-1l1,1v17l-1,1h-1l1,2v1c-2,0-1,1-1,2l-1,3h-1l1,2v3h-2l-4-1v-3l1-1h1l-1-1v-1c2,0,1-1,1-2l1-2h1l-1-1v-4l1-1h1l-1-1v-8c2,0,1-1,1-6l1-9h1l-2-6l-1-4l-1-7c0-5-1-5-2-7v-1l1-2h-2v-3v1h-1v-2h3c0-2-1-1-3-1v-1c1-2,0-2-1-3c0-5-1-5-2-8v-2h-3v-1l1-1h-3v-1l1-2h-2l-1-2v-4l2-1h-1l-4-2c0-2-1-1-2-1l-2-2v-3h-2c0-2-1-2-2-3c0-3-1-3-2-4v-1h-2l-1-1v-1h-3v-1c1-1,0-1-1-3zm38,111h1v-2h-1zm-16-80v-1h-1v1zm-7-12v-1h-1v1z"/><path d="M196,28h1v2l-1,2l-2,2h-2v-2h3v-3zm-7,5h2v4v-2h1v4h-2l-2-2v-1zm-3,6h1l1,1v2l-1,2l-1,1h-1v-1l1-2h1l-1-2zm3,5h1v1l-1,1h-1v-1zm12,1h4l1,2v3h2v2c-1,2,0,2,1,3v3l-2,1h2v5h2v3h-3c0-2-9-2-5-1v1l-6,1h-4v-1l2-2c4,0,4-1,6-2h1l2,1l-2-1v-1l2-2l-1,1h-2v-1c2,0,1-2,1-11h-1v-2h-2v-1z"/><path d="M183,47h1v2h-1zm4,0h1v1l-1,1h-1l1,1v2h-1l-1-2v-2zm8,2h1v1l-3,3h-1v-2c2,0,2-1,3-2zm-11,7h1v2l-1,2h-1v-2zm-3,5h1v7l-3,3c-2,0-2,1-4,3l-1,1c-2,0-2,1-4,3l-4,2h-2v2l-1,1l-3,1c-2,0-2,1-3,2c-2,0-2,1-3,2c-2,0-2,1-3,2c-2,0-2,1-4,3l-2,1h-2v2l-1,1c-2,0-2,1-4,3l-2,1c-2,0-2,1-3,3c-2,0-2,1-5,4c-2,0-2,1-3,3l-2,1c-2,0-2,2-3,4h-1c0,5,1,5,4,8v1h2l2,4c0,2,1,2,6,7c0,1,2,1,5,2v1h7c0,2,1,1,5,1l3,1l1,1v1h2v1c-1,3,0,3,1,4v1l-1,1h-1v2h-14l-6-1l-2-1c0-2-1-1-4-1l-1-1v-1h-5v-1l-2,2h-3c0-2-1-1-2-1l-2-1v-2c-2,0-1,1-1,2h-2l-2-2c0-2-1-2-2-3c0-2-1-2-2-3l-1-2c0-2-1-2-3-4v-3h1l1,2c0,2,1,2,2,3c0,2,1,2,2,3v1l1-1h1c0,2,7,1,8,1l1,2v-2l1-1h2v-2h1l-1-1v-4l1-2h-1c0-2-1-2-2-3c0-2-1-2-2-3l-1-2v-4l1-2l1-1h1v-2c2,0,2-1,3-2h2v-2l4-4c2,0,2-1,3-2l2-1h2v-2l1-1c2,0,2-1,5-4c2,0,2-1,3-2c2,0,2-1,3-2l2-1c2,0,2-1,3-2c2,0,2-1,4-3l2-1c3,0,3-1,6-4c2,0,2-1,4-3h1l1,2v-3c3,0,3-2,4-3c2,0,2-1,3-2h1l1,1v-2l1-2h1z"/><path d="M212,68h3l2,1v1l1-2h1v3c-2,0-2,2,3,2v1c-3,0-3,1-6,4h-1l1,1v1l-1,1h-1v3l-1,3l-1,1c-3,0-3,1-7,3c-3,0-3,1-4,2l-2,1c-4,0-4,1-5,3c-2,0-2,1-3,2l-4,1c-4,0-4,2-5,3h-2v-1l4-4l2-1h1c2,1,2,0,4-2c2,0,2-1,3-2h-2v-1h4c1,1,1,0,5-4c2,0,2-1,5-4h1v-3h2c0-2-3-2-5-3l1,1v1h-2v-2l2-2h1v-2l2-2h1v-2l1-1zm-4,7v1l-2,2l2-1h2v-1l2-2l-1,1zm9-1v-1l-2,2l1-1zm-20-5h4v1l-4,1h-1v-1z"/><path d="M189,73h1l1,6v2h-1l-1-1v1h-2v2h-1v-4l1-2h1l1,1l-1-1v-1zm8,6h1c0,3,1,1,4,1v1l-2,2l-4,2h-3h1v1h-1l-1-1l-1-2v-1l1-2h1l4,2zm2,19h1l1,1v1h2l1,1v2l-2,1h-2c0-2-1-1-2-1c-1-1-1,0-2,1h2v1l-2,1c-2,0-2,1-3,2c-2,0-2,1-3,3h-1l-2-2v-1h1c2,1,2,0,3-2l2-2h1l2,1l-1-1v-1l1-2zm8,3h1v2h2v3l-1,7h-1l1,1v2c-2,0-1,1-1,2l-2,4l-2,1h-1v1l-2,2h-1v2l-1,1h-2v2h-3v-1l5-5l1-1h1c0-2-1-1-3-1v-1l1-1l-2,2h-1v-6l1-1h-1v1l-2,2h-1v2h-1v-4c2,0,1-1,1-2h1l1,1v-2l1-3l1-1h1l2,1v-1c2,0,2-1,6-5h1z"/><path d="M164,109h1v1l-1,1h-1v-1zm-13,16h1v1l-1,1h-1v-1zm41,11h1v1l-1,1h-1v-1zm3,1h1l2,1v3h-1l-1-1v-1l-1,1h-1v-1zm-1,5h1l2,2v2c-2,0-1,1-1,2c-2,0-1,1-1,2l-1,2l-3,1h-1l-1-5q0-1-1,4h-1l-1-2v-1l1-5h1c0,2,1,2,3,4l1,3v-3l2-1h-3v-1c4,0,4-3,3-3zm-4,1h1v1l-1,1h-1v-1zm-10,7h2v1h-2zm4,1h2v1h-2zm108,10h1v1l-1,1h-1v-1zm-40,1h2v1h-2zm37,1h1v2l-1,1h-1l-1-1v-1h1l1,1zm53,1h2v1h-2zm-58,2h3l1,1v1h-1l-1-1l1,1v1l-3,3h-2l-1-1l2,2v1l-3,3h-1v-2l1-2l1-1l-1,1h-1v2l-2,1h-1v-2l2-1h1h-4v-1l1-2c2,0,2-1,4-3h5h-1zm-4,4v1h1v-1zm1,4h1v-1h-1zm0-5h2l1,1l-1-1v-1h-2z"/><path d="M269,170h1v3h-1zm5,0h1v1l-1,1h-3v-1zm-39,1h1v1l-1,1h-1v-1zm-95,4h1l4,4v1h-1l-4-4zm110,3h4v1l-1,1h-2h4l2,2l1,2v1l1-2h1v3h2l1,2v1c-4,0-4,3-5,4c-1,0-1,2-2,5l-1,2h-1v4h-1c-2-2-2,0-3,2l-1,1h-1v-1l1-1l-7,1h-11c0-2-1-1-3-1l-1-1v-1l2-1h1l1,1v1l2-1h4l-1-1v-2l1-1h2c0,2,1,1,2,1l1,1v-3c3,0,3-2,1-2v-1h2l1,1v-7h-3v-2l-2,2h-5c0-3-2-3-2-2l-2,2h-1v-1l1-2c-3,0-3,1-4,2h-2c-2-1-2,0-3,3h-2l-1-2v2l-3,3h-1c0-2,0-1-7,6c-2,0-2,2-4,6c-7,0-7,1-10,2h-1l-1-1v3h-1l-1-3v1l-1,1h-1c-1-1-1,0-2,1h-2v-1l1-2l1-1h1v-2l3-3h2l1,1l-1-1v-1l2-2h1c1,1,1,0,3-2c3,0,3-1,5-3l-1,1h-1v-1l1-1h1l2,1l-1-1v-1l1-1l2-1h2v1l-2,1h2c5,1,5,0,10-5l2-1l9-3c8,0,8-1,10-2l3-1h2l4,1zm-4,8h-2v2h2l2,1l1,1l-1-1v-1h-2zm-54,16v1h1v-1zm7-3v-1h-1v1zm30,5h1v-1h-1z"/><path d="M285,181h1v1l-1,1h-1v-1zm-71,1h1l2,1v1l1-1h2v1l-1,2l-1,1h-1l-2-1l-1-3zm139,3h2v2h3l1,4v1l1-1h1l1,1v1h3l1,1v1h2l1,1v1h-1l-6-3l1,2c0,2,1,2,2,3c0,6,2,6,3,8c0,4,1,4,2,5v2l-1,1h2c0,3,1,3,3,4l1,1v1l-1,1h2l1,1v2l-2,1h3v1c-1,1,0,1,1,2v7l-1,6h-1l1,3v1l-1,2h-1v4h-1l1,2v5l-1,2h-1l1,2v1l-1,4h2v3l-1,3c-1,2,0,2,1,3c0,2,1,1,2,1l2,2v2l-1,3l-2,1h-1v2h-51v-1l1-1l2-1l5-1h7l13,1v1l3-1h6l1,1v-1h10v-2h1l-1-2c0-3-1-3-4-6v-3l1-2h1v-9l1-3h1l-1-8v-10l2-2h-2v-1l2-1l-2,1h-1l-1-2v-4l1-3l-1,2h-1v-3c1-1,0-1-1-2c0-3-1-3-2-5c0-4-1-4-2-6l-1-3c0-4-1-4-2-6c0-3-1-3-2-5c0-3-1-3-2-5c0-3-1-3-4-9zm8,9h1v-1h-1zm9,31h1v-2l-2,2zm2-5v-1h-1v1zm-2,1h-2v1h2z"/><path d="M210,186h4v1l-2,1h-3v-1zm-55,2h1l1,1v1h-1l-1-1zm17,13h1v1l-1,5h-1v-5zm45,4h1l1,1v1h-2zm35,4h1v3h-1zm-77,3h2v1c-2,0-1,1-1,2h-1c-1-1-1,0-2,1h-1v-1zm82,0h1v1l-1,1h-1v-1zm-45,1h1v1l-1,1h2v1c-2,0-1,1-1,2l-1,1c-2,0-1,1-1,2l-2,1h-1v-3l2-1c2,0,1-1,1-4zm11,0h1v1l-1,1h-1v-1zm18,0h3v3h-1l-2-1zm26,0h1l1,1v4v-1h1v1l-1,1h-1l1,1v1h2v1l-1,2h-2l-1-2v-3l1-1l-1,1h-1v2l-1,2h-2c0-2-1-2-2-3v-1l-1,1h-1v-4h2v1c-1,1,0,1,2,3v-2h2v-2h2z"/><path d="M216,215h3v1l-1,2h-1l1,1v1h-4v-1l1-3zm0,2h1v-1h-1zm55-1h1l3,3v2h3l1,1v1h-4v3h-1l-2-1v-3l1-1h1v-2h-2l-1-1zm-68,1h2v1l-2,1h-2v-1zm1,3h3v1l-2,1h-1zm37,0h1v1l-1,1h-1v-1zm10,0h1v1l-1,2h-1v-2zm-82,1h1v2h-1zm10,0h1v3h-1zm69,3h5v1c-2,0-2,3-1,2h1v1l-2,2h-3zm-56,1h3v3h-2v-1l1-1l-1,1h-1zm47,0h2v4h-1l-2-1l1,2v1h-3v-3h2v-2z"/><path d="M217,227h2v2h-1l-1-1zm38,0h1l1,1v1c-2,0-1,1-1,2h-1l-1-1v-1zm-68,1h1l1,1v1h-1l-1-1zm77,0h1l2,2v1h-1l-1-1l1,1v1l-2,2h-2c0,2,1,1,2,1v1l-1,2h-1l1,2v1c-4,0-4,1-5,2c-3,0-3,1-4,2h-1v-2h-2v-1l-4,2h-1v-1l1-1h-2v-6h1l3,3v1h2l1,1c0-2-1-2-2-3v-1h1l2,2l-2-2v-1h1l1,1v-2h1c3,1,3,0,5-2c3,0,3-2,4-4zm-8,10l-1,1l-2,1h3zm12-10h2l1,1v1h-1l-2-1zm8,1h1l2,1v1l-4,1h-3v2h-2v2h-1v-2l1-2l2-2zm-34,1h1v1l-1,1h-1v-1z"/><path d="M224,231h1l1,1v1h-1l-1-1zm23,0h2l2,1v1h-4zm-56,1h2v1h-2zm87,0h2l2,1l1,1v1l-1,2h-1l-1-2v-1l-2,1h-1v-2zm-97,1h3v3h-1l-2-1zm92,0h1c0,3,1,3,2,4v1h4v1l-1,1h-3l1,1v1h-1c-3-1-3,1-2,1l1,1v1h-1l-1-1v-1h-5v-2l3-3h1l2,1l-1-2zm20,1h1v1l-1,1h-1v-1zm-85,1h2v1h-2zm-40,1h1l1,1v2h-1l-1-2zm17,0h1l1,1v1l-1,1h-1l-1-1v-1zm54,0h2v1l-1,1h3v1h-3l-1-1zm44,0h2v2h-2zm7,0h1v2h-1zm-110,2h2v1h-2zm57,0h1v1l-1,1h-1v-1z"/><path d="M184,240h1v3h-1zm54,0h3v1h-3zm45,0h2v1l-2,1h-1v-1zm-91,1h1v2h-1zm86,0h1v3h-1zm8,0h1l2,1v1h-2l-1-1zm10,0h1l1,1v1h-1l-1-1zm-124,1h1v2h-1zm65,0h2v4h-1l-1-1v-1h-2v-1zm54,0h1l1,1v2h-1l-1-2zm-126,1h1v2h-2v-1zm24,0h1l1,1v2h-1l-2-1v-1zm44,0h1l1,2v1h-1l-1-1zm49,0h2v1h-2zm-65,1h1v4h-1zm24,0h1l1,2v1l1-1h1v1l-1,1h-1l-1-1v-1h-2v-1zm22,0h4l3,1v1l1-1h1v1l-3,3c-3,0-1,1-1,3l2-2h2v1h-2v2l-1,1h-1c0-2-1-2-2-3v-1h-4v-5z"/><path d="M248,245h3v1l-1,3h-1l-1-3zm-55,1h1l2,2v1h-1l-2-2zm30,0h1v1l-1,2h-1l2,1v1h-2l-1-1v-1l1-2zm6,0h1l1,1v1l1-2h1v2c-1,2,0,2,1,3v1h4v1l-1,1h2l1,2v1h-1v-1v4l-1,1h-1c0,2,1,2,1,1l1-2h1v2l-2,2l6-6h1l3,1v1l-1,1l1-1h1l2,2c0,2,1,1,2,1l1,2v8l-1,2l1-2h1l1,1v1l-1,1h-4h1v1h-1l-3-1l-10-5l-1-1c0-2-1-2-2-3l1,1v1h-1l-2-2c0-2-1-1-4-1v-2l2-1c-2,0-2,1-3,2h-1l-1-1v-2h1c2,1,2,0,3-1h1l1,1c0,2,1,2,2,3v-5l-1,1h-1l-3-1l-2-1v-1l4-2h-2v-3h-3l-1-1v-1h1l3,1l6,3v-2h-2l-1-1v-1h-2l-1-1v-1l1-2l-2,2h-1v-1z"/><path d="M284,247h5v1l-3,1c-2,0-2,1-5,4h-1v-3l2-2zm14,0h2l2,4v2h-2l-1-1l-1-4zm-132,2h1l1,1v1h-2zm72,0h1l1,1v1h-1l-1-1zm39,0h2v1l-3,3h-1v-1l1-1h1zm11,1h1l3,1l1,1v1h2v1h-3l-1-1v-1h-2l-1-1v2l-1,2h-2l-1-1v-2zm7,0h2l1,1v2h-1l-2-2zm-38,1h1v2h2l1,1v1l2-2h1l1,1v1l-2,2h-3l-2-2v-2h-2v-1zm-38,1h2v1h-2zm32,0h2v1h-2zm-7,1h1l2,2v1c2,0,1-1,1-2h6l4,4v2h-1l-1-1c0-2-1-2-2-3v-1c-2,0-2,1-3,2h-4l-1-1v-1h-3v-1z"/><path d="M192,254h1v2l-1,2l1-1h2v1c-2,0-1,1-1,2h-1l-2-2l-1-2v-1h1l1,1zm-29,1h1l1,1v1h-1l-1-1zm11,0h1l1,1l1,2v1h-1l-1-1l-1-2zm27,0h2v2h-1l-1-1zm76,0h1v2l1-2h1v2l-1,1l1-1h1v1l-1,1h-1l-2-2zm25,0h1v2h-1zm-135,2h2v1l-1,1h-1zm33,0h1l1,1v1l1-1h1l1,1v1h-3l-1-1v1l-1,2h-1v-2l2-2l-2,2h-1v-1zm13,0h2v1l-1,1h-1zm8,1h4v3h-5v-2zm-36,1h1v2h-1zm-31,2h3v1h-2v2h-1zm62,0h1v1l-1,1h2v1l-2,1h-3v-1h3l-1-1v-1z"/><path d="M167,262h1l1,1v1l1-1h1v1l-1,1h-3zm52,0h2v1l-1,1l2-1h1l1,1v2h-7v-1h2zm-38,1h1l2,2v2h-1c0-2-1-2-2-3zm11,0h1l1,1v1c-1,2,0,2,1,3v2h-1v-2l-1,2h-2v-1l2-2l-2,1h-1l-1-1v-1h1c1,1,1,0,2-1h1l-1-1zm-35,1h2l1,1l1,2v1h-1l-2-2v1h-3v2h-1l-2-1v-1l6-2h-1zm47,0h1v1l-4,4l-3,1h-2v-3h3c2,1,2,0,5-3zm57,0h1v4l-3,3h-2v-3h1l1,1v-4h1l1,1zm3,0h1l1,2v1l-2,4h-1l1,4v1h-6v-1l4-4h1v-2l1-2h1l-1-1z"/><path d="M174,265h3v3v-1h1v2l-1,1h-1c0-2-1-2-2-3zm34,0h3l2,1v1l-5,5h-1l-5-1v-1l1-2l1-1zm1,3h2v-1h-2zm16-3h1l2,2c0,5,1,5,4,6l1,2v2h-1l-3-3v-1l-1,1h-1l-1-1l-1-7zm-11,2h5v6h-1l-2-2v-1l2-1h-5v-1zm8,0h2v2h-1l-1-1zm7,1h1l2,2v2h-2l-1-1zm4,2h1l1,1v3h-1l-1-3zm-44,1h2l1,1v3h-1l-2-2zm-17,2h1v2l-1,1h-1v-2zm35,0h1v4h-1z"/><path d="M158,274h1v4h-1l-1-1v-1l-2,2h-1v-2l2-1h1l1,1zm41,1h1v1l-2,2c-3,0-3,1-4,2h-1v-1l1-3zm36,0h2v1h-2zm-18,2h4v1l-2,1h-1l-1-1zm11,0h1l1,1v1h-1l-1-1zm9,0h2v1h-2zm-67,4h2v1l-1,2h-2v-2zm-14,1h1v3h-1zm19,0h1v1l-1,1h-1v-1zm112,0h2v2l-1,3l1-1h1l1,1v1h-6l-1-1v-1h1v1v-2l1-2zm-129,1h4v2l-1,1h-1v-1l1-1c-2,0-1,3-1,4h-1l-1-1zm94,0h4l1,3v1h-2c-1-1-1,0-2,1h-1v-1c1-1,0-1-1-2v-1zm12,0h3l1,1v1h3v1l-3,1h-1l-3-3z"/><path d="M213,285h2l1,2v1h-1l-2-2zm22,0h5v1c-2,0-2,1-3,2h-1l-1-1zm60,0h1l2,1v2h-4l-1-1v-1zm-37,1h1v2h-1zm-79,1h1v1h-1zm63,0h1v1h-1zm3,0h3v1h-3zm30,0h1v1h-1z"/></g><g style="fill:rgb(164,164,164);fill-rule:evenodd;stroke:rgb(164,164,164);stroke-width:0.1;" id="l7"><path d="M239,6h1l2,1v1h3l2,1v1l1-1h3v3h-5c0-2-1-1-2-1l-1-1v1l-1,2h-1l-1-2l-1-4zm-2,2h2v1l-2,1h-2v-1zm-8,3h3v1l-1,1c-2,0-1,1-1,2l-2,2h-1v-2c2,0,1-1,1-2zm4,1h5v1l-1,1l1-1h1v1l-1,1h-1l-2-1v1c-2,0-2,1-3,2h-1v-3h1l1,1zm-11,4h4v2h-1l-3-1zm-3,2h3v1h-2v2l-1,1c-3,0-3,1-4,2h-1l2,1v1l-1,1h-2v-1l1-1c-2,0-2,1-3,2h-3v-2v3l-1,1c-3,0-3,1-5,3l-2,1h-3v-1l1-2l1-1l4-1c2,0,2-1,5-4h1l2,1l-1-1v-1l1-1h1c1,1,1,0,4-3zm-1,2v1h1v-1z"/><path d="M277,21h1l1,1v1h-1l-1-1zm5,7h3v2h-2l-1-1zm-88,9h1v4l-1,1h-1v2c-1,2,1,2,3,3l-1-1v-1h1l1,1v2l-3,1h-1v-1l1-1c-2,0-2,1-3,3h-1l-1-2v-3l2-2l-1,1h-2v-1l2-1h2v-3zm9,0h2v1h-2zm82,0h3v1h-3zm7,4h1l1,1v1h-1l-1-1zm-88,1h2l2,1l1,1v1h4l2,2v1c-1,1,0,1,1,2v1h-1l-1-1c0,4,1,4,3,6v1h2l1,1v1h2l4,2l3,3c0,2,1,2,4,5v1l-2,1h2l1,1v1h2v1l1-1h9l1,2v2h-1c0-2-1-2-2-3v3l-3,1h-6l-1-1c0-2-1-2-2-3l-1-2v-1h-4v-1h4l-3-3l-1-2v-2h-2l-1-1c0-1-2-1-5-2l-2-1l-1-1v-1h-2l-1-2l-1-5v-3h-3l-3-3v-1h-2z"/><path d="M201,43h1v1l-1,1h-2v-1zm93,2h1l1,2v1h-1l-1-1zm-110,3h1v2h-1zm113,1h2l1,1v1h-2l-1-1zm4,3h1v1l-1,2h-1v-2zm-117,1h2v2h-1l-1-1zm118,5h1v3h-1zm-117,1h1l1,1v2l-1,1h-1zm119,3h1l2,6v1h-2l-1-1v-2l1-1h-2v-2zm-120,2h3v1l-1,3h-1l1,1v3l-1,5h-2v2l-9,9h-1v2l-3,3l-2,1h-1l1,1l1,2v1h-1v-1c-2,0-2,1-3,3h-1l2,2q0,1,1-2l1-1h3l-1-1v-1h1l2,1v-2l2-1c2,0,2-1,4-3c2,0,2-1,3-2h1v2l-4,4c-2,0-2,1-11,10h-1c-1-1-1,0-3,2h-1l1,1v1l-2,2c-3,0-3,2-4,3h-1v2l-1,1h-1v3l-2,2h-1v2l-5,5h-2v-1l2-1h1l-1-1v-1l1-6l1-2l2-1h1v-3l-1,2h-1v-2l1-1c-4,0-4,1-7,4h-1v3l-2,2l-2,1l-4,1h-7v-1c3,0,3-1,5-3c2,0,2-3,3-6l1-1c3,0,3-2,4-3c2,0,2-1,3-2h2v-2l5-5c2,0,2-1,3-2c2,0,2-1,3-2c2,0,2-1,3-2c2,0,2-1,3-3c2,0,2-1,6-5c2,0,2-1,5-4h2v-2c2,0,2-1,6-5h1v-2l1-2h1l-1-2zm-27,47v-3h3v-2l2-2h2v-2l-3,1h-2v2l-1,2h-3v3h2zm12-10v-1h-1v1zm-8,9v1l2-2l-1,1z"/><path d="M193,68h1l1,2v1h2v1h-2l-1-1v-1c-1,0-1,1-2,4h1l2,1l2,4v1h-2c0-2-1-2-2-3v-2h-2v-4l1-1h1zm8,2h1v2h4v1l-1,1h-1l-2-1l-1-1zm105,0h3v3l1-1h1l-1-1v-1h1l1,1v1l-1,2l1-1h1l1,2v4h-1c0-4-2-4-2-3l-1,1h-1v-1c2-2,0-2-3-5zm-109,5h1l1,1v1l-1,1h-1v-1h1l-1-1zm62,3h1v3l-3,3h-1v2l-1,1c-2,0-2,1-3,2h-2v2h-1c-3-1-3,1-2,1l1,2v1h10c0,3,1,3,2,4v4c-1,1,0,1,1,2l1,4c0,4,1,4,2,5l1,2c0,3,1,3,4,6v2h2l1,3c0,4,1,4,3,6l3,6c0,2,1,2,5,6v1h2l2,1v1l-4,1h-3l-2-1v-2h-2l-1-1v-1h-2l-2-4v-1h-2c0-4-1-4-2-5c0-2-1-1-2-1v-2l-2,2h-1v3h-2l-2-1l-1-2v-1h-2v-3l1-2h1c0-2-1-1-2-1v-2h2c2,1,2,0,3-1h-1l-1-4c0-6-1-6-2-9v-3h-1v-2h-2v-2l1-1h-2v2h-2l2,2v2h-1v-2h-2v2l-1,1h2v1l-3,3h-1l1,1v1l-1,1h-1l1,1v2c-1,1,0,1,1,3v1c-2,0-1,2-1,3c-3,0-2,2-2,4h-1l-1-2v5l-1,3l-1,1h3v1l-1,1h-1v2c-1,0-1,3-2,9l-1,2h-1v3l-1,2h-2v4h-1l-1-1v-4l1-3l1-1h1v-19l1-5h1c0-3-1-3-2-4l-1-2v-3l1-1l-2,1l-6,2h-1c-2-2-2-1-4,1h-1v2l-8,4c-3,0-3,1-4,2c-3,0-3,1-4,3l-3,3h-1c-1-1-1,0-3,2h2v1h-2l-1-1v-2l1-2l3-3c2,0,2-1,4-3c2,0,2-1,4-3l2-1c3,0,3-2,7-6c2,0,2-1,3-2l2-1l3-1h2v-2h2c1,1,1,0,2-1l2-1l5-1c2,0,2-1,3-2h-2v-2h2q0,2,1-5h1l-1-3v-3l1-2h1l-2-2v-3c6,0,5-2,5-3l1-1l-3,1h-2v-2l1-1h3l2,2c0,4,1,4,2,5v-1l1-1h2v-2l1-1h1v-2l1-2zm-10,10v1h1v-2h-1zm32,59h-1v1h1z"/><path d="M309,78h2l2,2v2h-1c0-2-1-1-2-1l-1-2zm-57,1h1v1l-2,2h-1v-1zm-65,4h1v2h-2v-1zm126,0h1l1,1v1h-1l-1-1zm-126,3h2v1h-2zm128,3h1v2h-1zm-113,9h2v1h-2zm113,4h1v1l-1,2h-1v-2zm-111,1h2v1l-2,1h-2v-1zm113,1h1l1,3v1c-2,0-1,1-1,2c-2,0-1,1-1,10l-1,3h-1l1,2v3h-1l-1-1v-9l1-3c1-1,0-1-1-2v-1h1v1v-6h1q0,1,1-3zm-129,1h1l1,1v1l-1,1h-3v-1h3l-1-1zm11,0h2v2h-2v2l-1,1h-2v-1l1-2h2z"/><path d="M253,106h1v2h-1zm-60,16h1v3h-1zm121,10h2l1,3v1l-1,1h-1l1,2v1l-3,6l-2,2h-2v2l-3,3h-1v-1l1-2h1v-5h1c2,1,2,0,3-2l1-1h1l-1-1v-2l1-1h1zm-26,16h1l2,1v1h4l4,1l3,1v1h-8l-2-1v-1l-1,1h-3v-1l1-1l-1,1h-2v-2zm-102,4h1l2,1v1h-2l-1-1l1,2v1h-1l-2-1v-1zm92,0h2v1l-1,1c-2,0-2,1-4,3l-2,1h-1v-1l1-1c2,0,2-1,5-4zm-102,3h3v1h-3zm126,0h2v1h-2zm-50,6h2v1h-2z"/><path d="M232,162h1l1,1v1h-2zm64,0h1v1l-1,1h-1v-1zm-69,5h1v1l-3,3h-1v2l-1,2h-1v-4l3-3zm60,1h1v1l-1,1h-1v-1zm-48,1h1v1l-2,2l-2,1h-1v-1l1-1c2,0,2-1,3-2zm-6,4h1v1l-1,1l-2,1h-2v-1zm-16,4h1l1,1v1h-1l-1-1zm3,2h2v1h-2zm-7,1h1v1l-2,2h-1v-1zm2,2h3v1l-3,1h-1v-1zm5,1h1v2h-1zm62,0h1v1l-1,1h-1v-1zm-66,5h1v1l-2,2h-3v-1c3,0,3-1,4-2zm-55,2h1v1l-1,1h-1v-1zm7,3h3v7h-1l-1-1l-1-2v-1h-2v-1h2l1,1l-1-2zm2,4v-1h-1v1zm132,2h2v2h3c0,4,1,4,3,5v2c-1,2,0,2,1,5v2l-1,2h2v1l-1,1h-1l1,1v3l-1,1h1c0,12,1,12,2,21v2l-1,1h1l2,1c0,5,1,5,4,14v1c-1,1,0,1,1,6l1,7v9h-1c0-7-1-7-2-10l-1-4c0-5-1-5-2-8c0-3-1-3-2-5c0-3-1-3-2-4v-1c1-1,0-1-1-4l-1-4l-1-6c0-26-1-26-2-31c0-4-2-4-2,10l-1,4h-1l2,2v8l-1,1h-3l-2-1c0-2-3-2-5-3l-1-1v-1h-2l-2-1v-1l-1,1h-1l-1-1c0-2-1-2-2-3v-1l-2,1h-1v-1h1l-2-1v-1h-3l-3-3v-1h1l1,1v1l1-1h1l1,1v1h2l2,1v1h3l1,1v1h6c2,1,2,0,3-3c2,0,1-1,1-4l1-4c3,0,2-4,2-6l1-1h1v-3zm-2,8h1v-1h-1zm-14,18v1h1v-1zm8,0h1v-1h-1z"/><path d="M182,204h2v1l-1,1h-1zm37,0h2v1h-2zm-40,1h1v1l-1,2h-1v-2zm3,2h2v1h-2zm-4,2h1v1l-1,1h-1v-1zm16,2h1l1,1v1l-1,1h-1v-1h1l-1-1zm34,1h3v1l-1,1h-1l-1-1zm37,2h1v2h-1zm-27,4h3v1l-2,2h-1zm23,0h2v1h-2zm-5,1h1l1,1v1h-1l-1-1zm-75,1h2v2h-1l-1-1zm-11,2h1v1l-1,1h-1v-1zm70,0h1v1l-1,1h-3v-1zm34,2h1v1l-1,1h-1v-1zm-103,1h2v1l-2,4h-1v-4zm9,0h1v1l-1,1h-2v-1zm5,0h1v2c-2,0-2,1-3,2h-1v-2c2,0,2-1,3-2zm18,1h2v1h-2zm50,4h1v1l-1,1h-1v-1zm14,0h4v2h-3l-1-1z"/><path d="M227,232h1v1h-1l1,1v1h-1l-1-1v-1zm45,0h2v1h-2zm-113,2h2v1l-1,1h-1zm41,0h1v2h-1zm39,0h2v1h-2zm45,0h2v2h-1l-1-1zm-66,1h2v3h-1c0-2-1-1-2-1v-1zm13,2h1v1h-1l1,1v1h-1l-1-1v-1zm7,1h2v1h-2zm65,0h1l1,1v1h-1l-1-1zm-61,1h1v1l-1,1h-1v-1zm23,1h2v1h-2zm41,1h1c0,4,1,4,2,7v3h-2l-1-2v-1l1-1h-2v-4zm-116,1h1v2h-1zm-19,1h1v1l-1,1h-1v-1zm57,0h1v1l-2,2h-2v-2h1c1,1,1,0,2-1zm-74,3h1v1l-1,1h-1v-1zm100,0h1v1l-1,1c-2,0-2,1-3,2h-1v-1l2-2zm7,1h1v1l-2,2h-1v-1zm20,1h1v1l-1,1h-1v-1z"/><path d="M188,249h1v2h-1zm24,2h1v1c-1,1,0,1,1,2v1h-1l-2-2v-1zm39,0h2v1h-2v2h-1v-2zm-6,1h3v1h-3zm59,0h1l1,1v1h-1l-1-1zm-151,1h31v1l-4,1h-20l-7-1zm44,0h1l2,1v1h-2l-1-1zm8,1h1v2h-1zm-10,1h1v1l-1,1h-1v-1zm105,0h2v1l-1,1h-1zm-146,1h1l1,1v1h-1v-1l-1,1h-1v-1zm20,0h1v2h-1zm27,0h1l1,1c0,2,1,2,2,3v2h-1c0-2-1-2-2-3l-1-2zm8,0h2v1h-2zm11,1h1v2h-2v-1z"/><path d="M279,259h1v1l-1,1h-1v-1zm16,0h2v1h-2zm-142,1h3v1h-3zm17,0h1v3h-1l-1-1v-1zm28,0h1v2h-1zm71,0h1l1,1v1h-1l-1-1zm-109,1h7v3h-1v-2l-1,2h-1v-2h-4zm24,0h1l1,1v1h-1v-1l-1,1h-1v-1zm3,0h8v2h-3l-5-1zm24,0h1l1,1v1l1-1h1v1l-3,3h-1v-1l1-1h1l-2-2zm-4,2h1v1l-3,3h-1v-2h-2v-1h2c2,1,2,0,3-1zm82,0h1v1l-1,1h-1v-1zm17,0h1v2l-1,1h-1v-1zm-131,1h1v2h-1zm118,0h1l1,1v1h-1l-1-1zm-65,1h1v1l-1,1h-1v-1zm28,0h2v1h-2zm7,0h1v2h-1zm-73,1h1v1l-1,1h2v1h-2l-1-1v2h-2v-1z"/><path d="M221,266h1v1l-1,1h-2v-1zm-21,1h1l1,1v1h-1l-1-1zm12,0h1v2l-1,1h1l2,1v2h-3l-1-1v-1l-1,1h-1v-1l2-2h1zm1,5l-2-2zm90-5h1l1,1v1h-1l-1-1zm-135,3h3v1h-3zm31,0h1v3h-2v-2zm57,0h1v1l-1,1h-1v-1zm-92,1h1v1l-1,1h-1v-1zm75,0h1v1l-3,3h-1l-1-1v-1h1c1,1,1,0,3-2zm67,0h2v2h5v4h-1l-3-3l1,2v1l-1,2l-1,1h-1v3h-1l-1-1v2h-4c0-2-1-2-2-3c0-2-1-1-2-1v-2c-2,0-1,1-1,2l-1,1h-1v-3l1-1h5c0,4,1,4,2,5c0,1,2,1,2-5l4-4h-1l-1-1z"/><path d="M241,272h1v4h-1l-1-2v-1zm55,2h1v1l1-1h1v1l-1,1h-1l-1-1zm-76,1h1v2h-4v-1zm13,0h6v1l-1,1h-4l-1-1zm40,3h1v2h-1zm-116,1h1v1l-1,2h2v1l-1,1h-1l-1-2v-2zm31,0h4v1l-1,1h-2l-1-1zm82,0h1v2h-1zm-50,1h2v1h-2zm7,0h1v2h-1zm17,0h1c0,2,1,2,2,3v2h-1l-1-1l-1-2zm-82,2h2v1h-2zm66,2h2v1h-2zm22,0h1v2l-1,1h-1v-1zm8,0h2v1h-2zm30,0h2v1l-1,1h-1zm-68,1h3v3h-1v-2h-2zm86,0h1l2,1v2h-3zm-40,1h1v2h-3v-1zm8,0h1v1l-1,1h-1v-1z"/><path d="M230,287h1v1h-1zm10,0h1v1h-1zm60,0h1v1h-1z"/></g><g style="fill:rgb(108,108,108);fill-rule:evenodd;stroke:rgb(108,108,108);stroke-width:0.1;" id="l8"><path d="M251,16h1l1,1v1l1-2h6l1,1v1h-2v2l1-1l2-1h3l2,1l1,1c0,3,2,2,6,2v3h3l2,2v1l-2,1c2,0,2-1,3-2h1v2l-2,1h2l1,1c0,2,1,1,2,1l1,4c0,4,2,3,3,3l2,1v1l1-1h1c0,2,1,2,2,3c0,5,1,5,3,6l1,1v1l-1,1h2l1,1v3l-2,1h3v5h-2c0-2-1-2-2-3v-1c1-1,0-1-1-6v-1l1-1h-3h1v1h-1l-1-1v-1l-1,1h-2c0-2-2-2-2-1l-1,1h-1l-1-2v-1h1l2,1c0-3-2-3-2-2l-1,1h-3v-1c2,0,2-1,3-3h2c0-2-1-1-4-1v-2c1-2,0-2-4-4l-1-1v-1h-2v-4h-5l-1-1v-1l-2,1l-4,1c-5,0-5,1-9,2h-3l-2-1v2l-4,1h-3v-1c3,0,3-1,7-3l6-2h2c1,1,1,0,4-1h-7v-1l1-1h-2v-1v3h-1c0-2-3-2-3-1l-1,1h-1c0-2-5-2-5-1l-4,1h1v1l-6,1h-4l5,1v1h-6l3,1v1h-3v2l-2,1l-3,1h1v1l-2,1h-6l3,1v1l-3,1h2l2,1v2h2v1l-2,1h2l2,1l1,1v1h2c0,3,2,3,3,4v1l-2,1c-5,0-2,3-2,4h2l2,1v1h3l3,1c0,2,7,2,7,1l1-1c2,0,2-1,3-2h2l2,2v2h-1l-2-2v-1v7h-1c0-2-5-2-5-1l-4,1h-3l-2-2c0-2-1-2-2-3v-1h-2l-4-2l-1-1v-1h-2l-3-3v-2l1-1l2-1h1l-4-4v-1h-3l-1-1v-2h-2l-3-3v-1h-6v-1h6l1,1v-3c5,0,5-1,6-2h-3l-9-1v-2l1-1c2,0,2-1,3-2h6l6,1v-2h2v-2l2-1l3-1h5v-2h4h-7v-1l6-3h1c2,1,2,0,8-1h1v1l-1,1c2,0,2-1,3-2zm38,29v-1h2l-1-1v-1h-2v3zm-71-11v1h1v-1z"/><path d="M242,41h7l2,1v4h-1l-2-1l-1-1v-1q2-1-5-1zm-56,13h1v2h-1zm1,9h1v2h-1zm113,0h2v1l-2,1h-1v-1zm-50,4h5v3h-1l-3-1l-1-1zm52,1h1l1,1v2l-1,1h1c0,2,1,2,2,3l1,2v-1h1v3l-1,1h2l1,1l1,5v-1h1v1l-1,2h4v3l-1,1h2l1,8v5l-1,2l-2,2c-2,0-1,1-1,2l-2,1h-2v-1l1-1h1l-2-1v-1q3-1-3-1v-1l1-2h3v-3l-1,1h-1v-2h5v1l-1,2l-1,1c-1,0-1,2,4,1h1c0-4-1-4-3-6v-5l-2,2h-1v-2c2,0,2-3,1-3l-1-1v2h-1v-4l1-2h-3l-1-1v-2h3c0-2-1-1-3-1l-1-3v-3h-1c0-2-1-2-2-3z"/><path d="M258,69h1l1,1v1h-1l-1-1zm-9,1h1l1,1v1l1-1h5l3,1v2l-2,1h-1l-4-1l1,1v1l-2,1h-5v-4h2c2,1,2-1,1-1l-1-1zm-54,2h6v1l-1,1c-2,0-1,1-1,2h-1l-2-1v-1l1-1l-1,1h-1zm-10,6h1v6h-1l-2-2v-1h2zm76,1h1l4,2c0,17,1,17,2,21c0,4,1,4,3,6l1,4c0,3,1,3,2,4l2,4c0,3,1,3,2,5l2,6c0,2,1,2,2,3l1,2c0,2,1,2,2,3c0,2,1,2,2,3c0,2,1,2,2,3v1h-1l-4-4c0-2-1-2-3-4l-5-10c0-3-1-3-8-17c0-4-1-4-2-6c0-4-1-4-2-5l-1-13c0-2-5-2-5-1l-1,2c-2,0-2,1-3,2h-2v-1l1-1c2,0,2-1,3-2h1v-2l2-1h1v-2z"/><path d="M313,85h1v2h-1zm-126,17h2v1h-2zm123,20h1l1,3v1c-1,1,0,1,1,5v-1h1v5l-1,1h-1v2l-2,2l-2,1h-2v-1c2,0,2-3,3-5l2-2h1l-1-1l-1-3zm-89,15h6l2,1l1,2v2h-1l-2-1v-1c-7,0-7,1-10,2h-1l-12-1v-1c10,0,10-1,12-2zm-23,3h4v1l-1,1h2v1l-2,1h-2l2,2v1l-2,2h-1zm107,2h1v3h-1l-1-1v6l-1,2h-2l-2-1v-1l2-2h1l-1-2v-1c2,0,1-1,1-2zm-4,8h1v-1h-1z"/><path d="M231,146h1v3h-1zm-18,2h1l1,2v2l-2,1h-2v-1l2-1h1l-1-1zm-17,3h2v1l-1,1h-1zm-5,2h3v1l-4,4h-1l-2-1l1,1v2l-2,2c-2,0-2,1-4,3h-1v2l-2,4c-1,0-1,5-2,12h-1l1,4v7l-2,1h3v-6h1l1,5v3c2,0,1-1,1-4h1c0,3,1,3,3,4l-1-1v-1l1-2l2-2h1v3l-2,1h-1l1,1v1l3-3h2c0,3,2,3,2,2l1-1h1v-2l3-3h1v-2l4-4h3v2l-4,4c-2,0-2,1-8,7h-1v2l-4,4h-1v2h-1l-1-1v-2l1-1h-3v-1l1-1l-1,1h-1v-1c1-1,0-1-1-2v1c-1,1,0,1,2,3v1h-1l-1-1v3l-1,2h-1v-7v1h-1v-1l1-1l-1,1h-1c-2-1-2,0-4,1h-1v-2l1-1h1v-2l-2,2h-1v-3c2,0,2-1,4-3l-1,1h-1v-4l1-1l-1,1h-1l-1-1l1,2v4h-1l-1-4v-3c2,0,2-1,3-2h1v-2h1v-3l-1,1h-1v4h-2v-1l1-4h1v-6l1-4l1-2h1l-2-1v-1l1-2h2l-2-1v-1l2-1h3v1l-1,1l3-1h2v-3l2-2c3,0,3-2,4-3zm-12,8h-1v1h1zm-4,17h1v-2h-1zm14,23v-3l1-1l-1,1h-1l-1-1l1,1z"/><path d="M198,154h1v1l-1,1h-1v-1zm-3,2h1v1l-1,1h-1v-1zm36,0h1v3h-1zm68,1h2v1l-3,3h-1v-1l1-1h1zm-4,3h1v2l-1,3l-2,2h-1v3l-1,1h-1v2l-1,1h-1v2l-1,1h-1v2l-1,1h-1v2l-1,1l-2,1h-1v4c-2,0-2,1-3,3l-1,1h-1l1,1v1l-6,12c-2,0-1,2-1,3h-1l-1-1l1,2v1h-5l-1-1v-3l1-2l1-1h1v-3l1-3l2-2h1v-3l1-2l1-1h1v-2l1-1h1v-2l3-3h1v-2l2-2h1v-2l1-1h1v-2l6-6h1v-2z"/><path d="M229,205h1c0,2,1,2,2,3v2h-4v-4zm-33,4h1v2l-1,1h-1v-1zm46,3h2v1l-1,1h-1zm16,0h2l1,1v1h-1l-2-1zm5,0h1l1,1v1l-1,1h-2v-1zm-60,1h1v1l-1,1h-2v-1zm-4,3h1l1,1v1h-2zm63,0h2l1,1v1h-1v-1l-1,1h-1zm-6,1h1l1,2v1h-1l-1-1zm-73,3h3v1h-3zm123,0h1v12h-1zm-50,1h1l1,1v1h-1l-1-1zm3,0h1l1,1c0,2,1,2,2,3v1h-1c-2-2-2,0-3,2h-1l2,2v1h-1l-2-2v-4l1-1h1zm-19,2h2v1l-1,1h-1zm-19,2h1l1,1v1l-2,2c-2,0-2,1-3,2h-2v-1c2,0,1-1,1-2h1l1,1l-1-2v-1h2c0,2,1,1,2,1l-1-1z"/><path d="M265,226h4v1l-2,1h-1l-1-1zm9,0h2v1l-1,1h-1zm-33,2h1l1,1v1l-1,1l-2,1h-2v-1l2-1h1zm11,0h1v3l-1,1h-3v-1zm-5,1h1v1l-1,1h-1v-1zm-26,1h1l2,1v1h-2l-1-1zm58,0h2l1,1v1h-1c-2-1-2,0-4,1h-1v-2zm-24,2h1v1l-3,3h-4v-2zm37,0h3v1h-3zm-79,1h1l2,1v1l-1,1c2,0,2-1,3-2h1v1l-2,2h-2l-1-1l-1-2zm12,0h1v3h-2v-1zm21,0h1l1,1v1l-1,1h-1zm-26,1h1c0,2,1,1,2,1v3h-1l-2-2zm44,0h1l2,1v1c-2,0-1,2-1,3c-2,0-1,1-1,2h-2v-5z"/><path d="M206,235h1l4,1v1h-4l-1-1zm32,0h1v3h-2v-2zm4,0h2l1,1v1h-1v-1l-1,1h-1zm28,0h3v1h-3zm14,0h6v4h-1v-2l-1,2h-1l1,1v1h-1l-5-1v-1c5,0,2-3,2-4zm3,1h-1v1h1zm6,0h1v2l-2,1h-1v-1zm-44,1h1l2,2v2h-1l-2-1l-1-1v-1zm50,1h1l1,1v2l-2,1h-1v-3zm-74,1h1l1,2v1l-2,4c2,0,2-1,3-2c1,0,1-2,2-5h1l1,1v8h-1c0-2-1-2-2-3v2c-2,0-2,1-4,3h-2v-3l1-7zm18,0h1v1l-1,1h-1l1,1v1h-1l-1-1v-1z"/><path d="M219,240h3v1c-3,0-3,1-4,2h-1l1,6v2h-1l-1-1v-7zm-14,2h1v1l-1,2l-1,1h-1v-1l1-2zm29,1h1l1,1c0,2,1,2,3,4v1h-1l-4-4zm26,0h3v2l-1,2l-1,1h-2v-4zm19,0h2v1h-2zm6,0h1v2h-1zm-43,1h6v1l-1,1h2v3l-1,1l-3,1h-2v-1l2-1c2,0,2-3,1-3l-2-1v2h-1l-1-1zm10,0h1l3,1v1l-3,1h-1zm25,0h1l1,1l1,2v2h-3zm-66,2h1l1,6v1h-1l-1-1zm62,0h3v1l-1,2h-2z"/><path d="M296,247h1l1,1l3,6v1h-1l-1-1c0-2-1-2-2-3l-1-2zm-11,2h6v1c-6,0-6,1-7,3c-2,0-2,2-1,2l3,3v1h-2l-2-1l-1-1v-4zm-29,1h1v1l-1,1h-1l2,2v1h-2l-1-1v-2zm36,0h2l2,2v1h-1l-2-1l-1-1zm-54,1h1l2,2v1h2l8,4v1h-2l-4-1l-1-1v-1l-1,2h-1l-1-2c0-2-1-2-3-4zm27,0h1l1,1v4l-4,4h-1l1,1v3h-1c0-3-1-3-4-6v-1c6,0,6-1,7-2h1l-1-1v-1l1-1l-1,1h-1v-1z"/><path d="M272,251h1v2l-1,1h-1v-2zm33,0h3l2,1v3h-1l-1-1v-1h-3zm-29,2h1v2l-1,1h1c0,2,1,2,2,3v1h-2l-2-2v-3zm-50,1h1v2h-1zm27,1h1v3h-2v-2zm42,0h1l2,1v1h3v1l-5,1c-2,0-2,1-4,3c-2,0-2,1-5,4l-2,1h-1v-2l1-1h-2v-1l1-1c2,0,2-1,3-2c2,0,2-1,3-2h3v-2zm15,3h2l1,2v2c-1,1,0,1,1,2v2l-2,2h2v-1h1v1l-1,3l-1,1h-4v-2l1-1h1l-1-1v-3l2-2h-2v2h-1v4l-1,1h-2v-5c3,0,1-2,1-3l1-2h2zm2,12v-1h-1v1z"/><path d="M270,259h1v10l-1,2l-2,2h-4v-2h1c3,1,3-2,4-4h1v-3l-1,1h-1c0-2-1-2-3-3l-1-1v-1h1l5,1zm-68,4h4v2h-1l-3-1zm54,3h2l1,1v1h-1l-2-1zm42,0h2l3,1v2l-2,4h-1c0-3-2-1-5-1l-2-2v-2h1l1,2v1h3zm-44,1h1c0,3,1,3,2,4v1c3,0,3-1,4-2h1v1l-3,3h-3l-2-2zm2,5v-1h-1v1zm-22-3h1l2,1v1h-2l-1-1zm-42,1h1c0,2,1,1,2,1v1l-2,2h-1zm4,1h1v2h4v-2h1l5,1v1l-2,1h1l1,1l2,6v1h3l-3-3l-1-5v-2h1l1,2v1v-2l1-1h1v2h3v1l-4,1c5,0,5-1,6-2h1l1,1v1c-3,0-2,2-2,8h2v-4h1l4,2v1h4v2h3l1,1v1l1-1h1l1,1v1h-12v-3h-3v3h-3l-1-1c0-3-3-2-4-2l2,2v1h-5v-1h1l-1-1v-1h-2l-1-1l-1-3q0-1-1,3l-2,1h-1l-2-1v-2l1-1h1c0-3-2-1-5-1l1,2v2l-1,1h-1l-2-1v-1l-1,1h-1l-1-2v-1h1v1h2l2,1l-1-2v-1l2-1c2,0,2-1,5-4h1v-2l-1,1l-3,1h-4v-1c3,0,2-1,2-3zm7,10v-2l1-3h2l-1-1v-1h-2v2h-1v5z"/><path d="M188,272h1c0,3,1,3,2,4v1h2v2l-2,1h-1l-2-1v2l-4,1h-9l-1-1v-1h1l1,1c0-2-1-2-2-3v-1h1l2,1v-2h1l4,2c0,2,2,1,4,1v-2l2-1h1l-2-1v-1zm34,0h1l1,1v1l1-1h1v2h-2l-1-1v-1l-1,1h-1v-1zm56,2h1v1l-1,3l1-1h1v-2h1v2l-2,2h-1l-1-1v-3zm-108,1h1v3h-1zm112,2h3v1l-2,1h-1v2h-2v-1l1-1h1zm-49,1h2l1,1v1h2l4,2v1h3v2l-1,2h-1l-1-3v-1l-1,2h-1c0-3-2-3-6-5l-1-1z"/><path d="M271,279h2l1,1v1c-1,2,0,2,1,3v2l-1,1h-1l-1-1v-2l1-1h-2zm-39,1h1v3h-1zm44,0h3v3l-1,1h-2l-1-1v-2zm-18,2h1l2,1v1h-2l-1-1zm24,0h2l1,1v1h-3l2,1v1h-2l-2-2v-1zm-20,3h2v1h-2zm17,0h1l1,1v2h-2zm-22,1h1v2h-1zm19,0h1l1,1v1h-2z"/></g><g style="fill:rgb(196,196,196);fill-rule:evenodd;stroke:rgb(196,196,196);stroke-width:0.1;" id="l9"><path d="M280,25h3v1l-1,1h-1l-1-1zm-92,12h1l1,1v1l-1,1h-1zm0,15h1l1,1v1h2v1c-2,0-1,1-1,2h-1l-1-1v-1c1-1,0-1-1-2zm-1,2h1v2h-1zm-7,15h2v1l-2,2c-2,0-2,1-4,3l-2,2c-2,0-2,1-5,4c-3,0-3,1-6,4h-1c-1-1-1,0-3,2c-2,0-2,1-3,2l-2,1c-2,0-2,1-4,3c-2,0-2,1-5,4c-2,0-2,1-3,2c-2,0-2,1-6,5h-2v2c-2,0-2,1-4,3h-2v2l-1,1c-2,0-2,1-3,2c-2,0-1,1-1,3l-1,1h-1c0,3,1,3,3,5v1h2l4,4v1h2c0,2,1,2,3,4v1h8l4,2v1c4,0,4-2,3-2l-1-1v-1h1l3,1l2,2c0,2,1,1,2,1v1l-1,1h2l6,3l1,1c0,1,2,1,5,2l6,3l2,1v1h-2l-3-1l-1-1v-1l-1,1h-1l-1-1v-1c-6,0-6,1-7,3h-1l2,1v2l-1,3l-1,1h-1l-1-1v2l-1,1h-1v2h-13l-1-1v-1h-4l-1-1v-1h-2l-1-1v-1l-11,1h-1l-2-1v-3c-2,0-1,1-1,2h-3l-1-1c0-2-1-2-4-5v-3h2v2h2v1l1-1h1c0,2,1,1,2,1c1,1,1,0,2-1h1l5,1l1,1v1l3-1h1v2h2v1h18c2,1,2-1,3-2h1l-2-2v-3l1-1h-2l-1-1v-1h-3v-1l-4,1h-1v-2h-7l-3-1l-2-1l-6-6l-2-4v-2h-2l-4-4v-5l2-4l2-1h2v-2l1-1c2,0,2-1,5-4h2v-2l1-1l2-1c2,0,2-1,4-3c2,0,2-1,3-3l2-1c2,0,2-1,4-3c2,0,2-1,3-2c2,0,2-1,3-2c2,0,2-1,3-2l2-1c3,0,3-1,4-3l4-2c2,0,1-1,1-3h1v2l2-2c2,0,2-1,5-4c2,0,2-1,3-2zm-57,82h-1l1,1l1,2l-1-2z"/><path d="M189,84h1v2h-1zm5,54h1v1l-4,4h-1v-1zm-6,11h1v3h-1zm-2,1h1v2h-1zm133,1h1l4,1v3h3l-1-1v-1h2l3,3v1c2,0,1-1,1-2h1l4,2l5,5v1h-3c0-2-2-1-3-1l-1-3v-2h-2v3h2v1c-6,0-6,2-7,4h-3v3h-1l-1-1v2l-2,1l-4,1h-3l1,1v1c-3,0-3,1-4,2c-2,0-2,3-3,5c-2,0-2,1-3,2c-2,0-2,1-3,2h-1c0-2,0-1-2,1h-2c-2-1-2,0-3,1h-1l-1-1v-1c-2,0-1,1-1,2h-1l-1-1c0-3-1-3-3-5v-2l1-1h3l-2-1v-1l1-1h1v-3l1-1h1v-2l1-1h1v-2l8-8h1v1l-1,1l3-1h4v-2h5v-2h5zm19,9v-1h-1v1zm-37,1v-1h-1v1z"/><path d="M250,163h8l5,1l3,1l1,2v5c-3,0-3,2-1,2l1,1v1l-2,1h5v2h2v2l-2,1h-1v5c-2,0-1,2-1,3h-1l-1-1v1l-1,2l-1,1c-1,0-1,2-2,5l-1,2h-1v3l-1,2c-2,0-1,1-1,2l-1,2h-1l-3-1v-1h-4v-1h-7v-1h7l1,1v-2l1-2h1l2,2v-4l1-2h1v-3l1-2l1-1h1v-3l2-1h1c0-2-2-1-3-1v-1l1-3l-1,2h-1l-1-1c0-2-1-2-2-3v-1l-1,1h-3v-1c2,0,2-1,3-2h-4v2h-4l-2-1v1c-3,0-3,1-5,2l-4,1h-3c-1-1-1,0-10,3h-1v-2l1-2l2-2h1l1,1l-1-1v-1h2l1,1v-2l2-2l4-2h1v1l-1,1h-1v2h1v-2c2,0,2-2,3-4h4l-1-1v-1c2,0,1-2,1-3h1c2,1,2,0,4-2zm-18,14h-2v1h2zm24,30h1v-1h-1zm7-18v-1h-1v1zm3-21v-1h-2v1z"/><path d="M281,186h1l1,1v1h2v2h-1l-1-1v-1l-1,1c-2,0-1,1-1,2h-1l-1-1c0,2,1,2,2,3v1h-1l-2-1l1,1v8l-1,1h-1l1,2v1h-2v2c-2,0-2,1-3,2h-2v2l-1,1h-1l-1-1v-3l1-3l2-2h1v-4l1-2l2-2c2,0,2-3,3-6l2-2c2,0,1-1,1-2zm-115,15h1v3h-1zm9,4h1v3l-1,2l-1,1h-1v-1l1-2h1zm34,1h2v1h-2zm-40,1h1l1,2v3h-1l-1-3zm70,4h1v1l-1,1h-1v-1zm-52,3h1l1,1v1l-1,1h-1v-1h1l-1-1zm-10,4h1l1,1v1h-1l-1-1zm92,0h3l1,1v3l-1,1h-2v-1l1-1l-2,1h-1v-3z"/><path d="M172,219h1v2l-1,1h-1v-1zm10,0h2v1h-2zm50,2h1v3h-1zm24,1h1l1,1v2l-1,1h-1zm-46,2h2v1l-1,1h-1zm69,0h1v1c-1,1,0,1,1,2v1l1-1h1l1,1v-2h1v2l-1,1h2l1,1v1l1-1h1v3l-1,1h-1v-3l-1,2h-1c0-2-2-1-3-1l-1-1c0-2-1-2-2-3v-1h-2l-1-1v-1zm-19,1h2v1l-2,1h-1v-1zm-32,1h1l1,1v1l-1,1h-1v-1h1l-1-1zm43,0h1l1,1v1h-1l-1-1zm-71,4h1v1l-1,1h-1v-1zm36,2h2v1h-2zm-29,3h1v1l-1,1l-2,1h-1v-1l1-1zm-51,2h1v3h-1zm42,0h1v3h-1l-1-1l1,1v1h-1l-1-1v-1zm64,1h1v2h-1z"/><path d="M270,238h1v1l-2,2c-1,0-1,2,4,1h1v1l-1,1h1l2,1v1h-3v1c-2,0-2,1-4,3l-3,1h-1v-3h3c1,1,1,0,3-2h-1l-3-1v-1l-2,1h-1l-1-1v-3h1c1,1,1,0,3-1c2,0,2-1,3-2zm1,7v1h1v-1zm-68-4h1v1h-1l1,1v1h-1l-1-1v-1zm84,2h3c0,2,1,2,2,3v2c2,0,1-1,1-2l1-1h1v3l-1,2h-2l-3-1v-2h-4v-1l1-1h1zm-116,1h1v1l-1,1h-1v-1zm33,3h1v1l-1,1h-1v-1zm6,1h1v3h-1zm51,0h2v1l-1,2h-2v2l-2,1h-1v-1l1-3h1l1,1v-2zm-13,1h1l2,2v1h-2l-1-2z"/><path d="M225,253h1v2h-1zm-59,1h6v1l-2,1h-1l-3-1zm8,0h1l1,1v1h-1v-1l-1,1h-1v-1zm19,0h2v2h-1l-1-1zm26,0h1l1,1v1h-1l-1-1zm52,0h3v1c-1,2,0,2,3,5v1h7v1l-2,2h-1v2h2v1c-1,6,1,6,1,2l1-1c2,0,2-1,3-2h1v1l-1,1l1-1h1c0,3,1,3,2,4v1h2l1,1v3h-3c-2-1-2,0-4,1h-3l-3-1v-2h-3v-1l-2,1h-1v-1c1-1,0-1-1-2v1l-3,3h-3v2h-2v-1l1-2h2v-3c3,0,1-2,1-7l3-1h-1l-2-1v1h-1v-1l1-1c2,0,1-2,1-3h-2v2h-1l-1-2v2h-4v-1l1-1c2,0,2-1,3-2c2,0,2-1,3-2zm14,20v-1h-1v1z"/><path d="M213,255h2v1h-2zm30,1h1l2,2v1h-1l-2-2zm12,1h1l1,2v1l1-1h1c0,2,1,2,3,4v1l-1,2h-3v-2h-2v2h-2l-1-1v-6zm5,7h1l-2-2l1,1zm-100-6h1v1l1-1h1v1l-1,1h-1l-1-1zm31,1h1l1,1v1h-1l-1-1zm51,0h1c0,3,1,2,4,2v-1l1-1h2l1,1l1,2v2h-1c0-2-1-2-2-3v-1l-4,4h-2c0-2-1-1-2-1v-1l1-1l-1,1h-1v-2zm-39,2h1v1l1-1h1v1l-1,1h-1l-1-1zm25,0h2v1h-2zm37,1h2v3c-1,1,0,1,1,2v2l-2,2h-1l-1-1v-7zm1,5v-1h-1v1zm-36-1h3l2,2v1h-1l-4-2z"/><path d="M228,267h1l1,2v1l-1,1h1l3,1v1c-4,0-1,3-1,4h-1l-2-1l-1-1zm-46,1h2v1h-2zm7,0h1v2h-1zm47,0h1v2h-1zm-71,3h1v2h-1zm88,2h1v2l-1,1c2,0,2-1,3-2l3-1h1v1l-1,1c-1,0-1,1,5,1l-1-1v-2h1l2,1v3h-1c-1-1-1,0-3,1h-5h1v1h-3c0-2-1-1-3-1l-1-2v-1h2zm-14,1h2v1h-2zm3,1h2l1,1v1h2l1,1v1l-2,1h-1v-3h-5v-1zm-60,2h1v2h-1zm-7,7h1l1,1v1l-1,1h-1zm-3,2h2v1h-2zm-9,1h1v1h-1zm88,0h1v1h-1z"/></g><g style="fill:rgb(212,212,212);fill-rule:evenodd;stroke:rgb(212,212,212);stroke-width:0.1;" id="l10"><path d="M221,15h2v1h-2zm58,8h2v2h-1l-1-1zm4,1h1l1,1v1l-2,1h-1v-1zm24,22h1v3h-1zm-116,3h1v1l-1,4l-1,1h-1v-1l1-4zm-3,13h1v2h-1zm-1,7h1v2h-1zm-1,4h1v2h-1zm-33,61h1l1,1v1h2l2,1l1,1v1h2l2,1l1,1v1h2l1,1v1h2l4,2l1,1v1h-1l-4-2v-1h-3l-2-1l-1-1v-1h-2l-6-3v-1l1-1l-1,1h-1c0-2-1-2-2-3zm-39,15h1l1,1v1h-1l-1-1zm64,0h2v1h-2zm146,3h2l1,2v1c2,0,1-1,1-2h1l2,1l1,1v1l1-1h1v1l-1,1l2-1h1v1l-1,1h-2l-2-1l-1-1v-1l-1,1h-2l-3-1z"/><path d="M318,156h5v2l-1,3l-1,1h-3l3,1v1l-2,2c-3,0-3,1-5,3l-3,1h-1l-1-1v2h-1l-1-1v2c-5,0-5,1-6,2h-2v2h-2v-5c-2,0-1,1-1,2l-1,1h-1v-3l-1,1h-1v-1l1-2l3-3l2-1h3v-2h3c2,1,2-1,4-3c3,0,3-1,4-2h1l1,1v-2zm-21,14l-1-1v-1l-1,1h-1v1zm0-2v-1h-1v1zm27-12h2v1h-2zm-73,10h1l3,1l1,1v1l-3,1l-4,1h-2l-1-1v-2h1l1,2l-1-2v-1zm39,9h2v2h-1v-1l-1,1h-1v-1zm-140,9h1l1,1v1h-1l-1-1zm65,2h1v2h-1zm-49,13h1l2,1v2l-1,1h-1l-1-3z"/><path d="M165,203h1v2h-1zm4,0h1v1l-1,2h-1v-2zm8,1h1v2l-1,1h-1v-1zm33,1h1l1,1v1l1-1h2v1h-2l2,1v1h-2l-3-3zm-30,2h2v1h-2zm-14,2h1v2h-1zm27,1h1v1l-1,3h-1l-1-1v-1zm66,0h2v1h-2zm-51,1h1v1l-1,1h-2v-1zm10,1h1l2,2v1h-1l-2-2zm14,0h2v1h-2zm-29,2h1v1l-1,1h-2v-1zm28,0h1v1l-1,1h-1v-1zm30,1h2v1l-1,1h-1zm-40,1h2v1h-2zm26,0h1v1l-1,1h-1v-1zm-63,1h1v1h-1l1,1v1h-1l-1-1v-1zm59,3h3v3h-1l-2-2zm13,0h1l1,1v1h-1l-1-1zm-20,1h1l1,1v1h-1l-1-1zm24,0h1l1,1v1h-1l-1-1zm-48,2h1v2l-1,1h-1v-1z"/><path d="M242,223h2v1l-1,1h-1zm-16,1h1v2h-1zm5,0h2v1h-2zm-67,1h2v1h-2zm22,0h1v2h-1zm74,1h2v2l-1,1h-1l-1-1v-1zm-90,1h1l1,1v1h-1l-1-1zm52,0h1v3l-3,1h-1l1,3v1h-1l-2-1v-1l2-4h3zm56,0h1l2,2v1h-1l-2-2zm-119,3h1v1l-1,2h-1v-2zm23,0h1l2,1v1h-3zm18,1h1v2h-1zm53,0h1v2h-3v-1zm30,0h2v2h-1l-1-1zm-49,1h2v1h-2zm-31,1h2v1h-2zm35,1h1v1l-1,1h-1v-1zm-81,1h1v1l-1,1h-1v-1zm42,0h1l1,1v1h-1l-1-1zm-35,4h1v1l-1,2h-1v-2zm42,0h3v1h-3zm6,4h2v1h-2zm11,0h1v3h-1z"/><path d="M255,246h1v2l-1,1c-2,0-2,1-3,2h-2v-1l2-2c2,0,2-1,3-2zm-9,4h3v2h-5v2h-2l-2-2v-1zm13,0h1l1,1v1h-1l-1-1zm-79,4h2v1h-2zm37,0h2v1h-2zm0,2h2v1h-2zm-56,1h2v1l-2,2h-1v-1zm9,1h1v1l-1,2h-1v-2zm13,0h2v1l-2,1h-1v-1zm33,0h1v1l-3,3h-1l-1-1v-1h1c1,1,1,0,3-2zm52,0h1v2h-1zm3,0h1l1,1l1,2c0,3,1,2,3,2l1,1v1h-1l-2-1l2,1v2l-1,1h-1l-1-2v-2h-3v-2h2l-1-1l-1-2zm-65,2h5v1l-1,1h-1c-1-1-1,0-2,1h-1z"/><path d="M152,261h1v3h-1zm111,0h1l1,1v1h-1l-1-1zm-98,1h1l1,3v1h-1l-2-1v-1zm18,1h1v1l1-1h1v1l-1,1h-1l-1-1zm25,0h2v1h-2zm48,1h2v1h-2zm22,3h2v1h-2zm-66,2h2l1,1v1h-1c-2-1-2,0-3,1h-1v-1zm-55,1h1v2h-1zm67,1h1v2h-1zm-69,8h1v2h-1zm14,5h1v2h-1zm3,0h1v2h-1zm33,0h1v1l-1,1h-1v-1zm-39,1h2v1l-2,1h-1v-1zm33,0h1l1,1v1h-1l-1-1zm64,1h1v1l-1,1h-2v-1z"/></g><g style="fill:rgb(92,92,92);fill-rule:evenodd;stroke:rgb(92,92,92);stroke-width:0.1;" id="l11"><path d="M268,28h2l1,1v1h5c0,4,2,4,3,5v1h2v1l2-1h1v3h-3l-3-1v2h-2l-1-1v-1l2-1h-1l-2-1v-3h-2v-1l1-1h-8l-1-1v-1zm9,0h2l1,1v1h-1l-2-1zm-18,2h4v1h-4zm18,0h1v2h-1zm-48,1h3l4,1v1l-1,1l-3,1c-3,0-3,1-4,2h1v1l-4,1h-2v-1c2,0,1-1,1-2l3-1h2v-2l3-1h-3zm26,0h2v1h-2zm-39,1h2v1l-1,1h-2v-1zm54,0h1v2h-1zm-31,1h1v1h-1l1,1v1h-1l-2-1v-1zm3,0h1v1l-1,1h-1v-1z"/><path d="M230,37h2v1h-2zm42,0h2v1h-2zm-36,3h2v1h-2zm45,0h2c0,2,3,1,4,1v2h-2v2l-1,1h-1v-2l1-1h-3zm8,2h1l1,1v1h-1l-1-1zm-3,3h2v3h2v2h-3v-1l1-1h-2v2h-2l-1-1v-1zm-1,3h1v-1h-1zm-49-2h2v1h-2zm56,3h3v1l-1,1h2v1l1-1h1v6v-1h1v1l-1,1h-1l1,1v1h-1l-1-1v-1h-2v-1l1-1h1l-1-1v-1l1-1h-3l-2-2v-1zm2,3v-1h-1v1zm-57,1h1c0,2,2,1,3,1l1,1v1h-5l-1-1v-1zm-13,3h5v1c-1,2,0,2,4,4v1h-2l-4-2l-3-3zm74,5h1l1,1v1h-1l-1-1z"/><path d="M234,62h4l1,1v1h4v1h-6v-2h-3zm14,0h1l2,2v1h-1l-2-2zm4,3h1v2h-1zm-4,1h3v3l-1,1h-1v-1c1-1,0-1-1-2zm52,0h2v2h-1l-1-1zm-47,3h3l1,1v1h3v1l1-1h1l1,2v2h-3c0-3-3-3-9-4v-1zm48,1h1v2h-1zm-104,2h2v1h-2zm106,3h1l1,1v1h-2zm2,5h1v2h-1zm3,1h1v2h-1zm-42,2h1v15h-1zm40,2h1c0,2,1,1,2,1l1,1v1h-3l-1-1zm5,6h1v2h-1zm-44,8h1l1,3l1,4v1h-1l-1-1l-1-4z"/><path d="M313,99h1v2l-1,1h-1v-1zm-5,3h2v1h-2zm1,7h2v1l-1,1h-1zm-38,1h1v2h-1zm1,3h1v2h-1zm7,17h1l1,1v2h-1l-1-2zm31,2h2v1l-1,1h-1zm-109,11h2v1h-2zm86,0h1l1,1v1h-1l-1-1zm14,0h1l1,1v1h-2zm-4,2h1l1,1v1h-1l-1-1zm-98,3h1v2l-1,1h-1v-2zm100,1h1v1l-1,1h-2v-1zm-106,5h2v1h-2zm3,1h1v2h-1zm-9,2h4v1l-3,3h-1zm33,0h2v1l-2,1h-1v-1zm78,1h1v1l-1,1h-1v2l-1,1h-1v-1l1-2zm-117,2h1l1,1v1h-1v-1l-1,1h-1v-1zm3,2h1v1l-1,1h-1v-1zm-4,12h2v1h-2v2l-1,1h-2v-2h1l1,1v-2z"/><path d="M281,183h1v1l-1,2l-1,1h-1v-1l1-2zm-109,1h1v2h-1zm10,0h1l1,1v2h-1l-1-2zm95,0h1v1l-1,1h-1v-1zm-78,2h1v1l-2,2h-1v-1zm79,2h1v1l-1,1h-1v-1zm-101,2h1v5h-2v-1zm6,0h1v1l-2,2h-1v-1zm93,1h1v1l-1,1h-1v-1zm-85,1h1v2h-1zm-8,1h1l1,3v1c-2,0-1,1-1,2l-1,1h-1l-1-3v-1h1v1v-2zm11,1h1v1l-2,2h-1l-1-1v-1zm-8,1h1l1,2v1h-1l-1-1zm82,11h1v2l-1,2h-1v-2zm-4,4h1l2,1v1h-2l-1-1zm-4,2h1v1l-1,1h-1v-1zm2,0h1v2h-1zm-6,3h1v2h-1zm-60,1h1v2h-1zm57,5h1v1l-1,2h-2v-2z"/><path d="M257,226h1l1,2v1h-1l-1-1zm-15,1h1v2h-1zm33,0h2l2,2v1h-1l-1-1v-1h-2zm-40,4h3v1h-3zm12,2h1l1,1v1h-1l-1-1zm18,0h1v2h-1zm10,2h2v1h-2zm-32,1h1l1,1v1h-1l-1-1zm27,0h3v2h-1c-2-1-2,0-4,2h-1v-2c2,0,2-1,3-2zm24,0h2v1h-2zm-68,2h1v3h-1zm32,5h2v1h-2zm17,0h2v2h-1l-1-1zm-29,1h1l1,1v1h-1l-1-1zm34,0h2l3,1v1h-4l-1-1zm-77,2h1v2h-1zm76,0h1l1,1v1h-1l-1-1zm-4,1h2v1h-2zm-39,2h1l1,1v1h-1l-1-1zm38,1h1v1l-1,1h-1v-1zm-9,2h1l1,1v1l-1,1h-1v-1h1l-1-1zm-9,3h1l1,1v1h-1l-1-1zm-28,1h1v1l-1,1h-1v-1z"/><path d="M259,257h1l1,1v1h-1l-1-1zm-4,11h1v2h-1z"/></g><g style="fill:rgb(100,100,100);fill-rule:evenodd;stroke:rgb(100,100,100);stroke-width:0.1;" id="l12"><path d="M253,24h1l2,1v1l-1,1l2-1h2l3,1v1l-3,1h-4l-2-1l1,2v1h-1l-3-1l2,1v1l-1,1h-1v-2l-4,2h1v1h-1l-2-1v-1l1-1h1l-1-1v-1l-1,1h-1c-4-1-4,0-5,1h-3l-5-1v-1l4-1h6l-1-1v-1l4-1h5l1,2v-1l1-1zm0,3h1v-2h-1zm-36,12h3l2,1v1c-2,0-1,1-1,2h3l3,1v1c-3,0-2,2-2,3h6l3,1v1l2-1h3l3,1l2,1v2h-1l-2-1v-1h-7l-5-1v1h4v1l-2,2h4v1h-4l-1-1v-1h-2c0-3-2-3-3-4v-1h-2l-2-1v-1l2-1h-2c0-2-2-2-4-3v-1h3l-3-1z"/><path d="M239,40h6v1q-3,1,4,0h2l4,2v2h2l2,2v1h-3l-5-1l-1-3v-1l1-1l-2,1c-2,0-1,1-1,2h2v3h-2l-5-1v-1h5l-2-2v-1l-7,1h-2l-5-1v-1l8-1h-1zm3,8h4l4,1l4,2l1,1v1h-5l-1-1v-1l-2,2h-1v-1l1-1h-2l-1-1v-1h-2zm19,27h1l1,1l1,2v2h2v1h-2l-2-1l-1-4zm45,37h4v3l-1,3h2v1h-2l-1-1l-1-2v-2l1-1l-1,1h-1z"/><path d="M218,142h1v2h-2v-1zm-3,1h1v2h-1zm-33,16h4v1l-1,1h-1l-2-1zm-4,20h1v3l-1,5h-2v-1l1-4zm2,6h1l1,3v1l-1,1h-1v4h-1v-7zm0,4h1v-1h-1zm65,18h1v2h-2v-1zm-19,2h2v1h-2zm12,2h1l1,1v2h-1l-1-2zm19,2h2v1l-1,1h-2v-1zm-21,2h2v1h-2zm-1,3h2l2,1v1l-2,1c-2,0-2,1-3,2h-1v-2l2-1h2l-2-1zm16,1h2l2,2v1h-1l-1-1v-1h-2zm16,4h1l1,1v1h-2zm-20,1h1l1,1v3h-1l-1-3zm29,0h2v1h-2zm-14,5h1v2h-2v-1zm5,0h2v2l-1,1h-1v2h-1v-2l1-1h1l-1-1z"/><path d="M243,233h3v2h-2l-1-1zm29,0h1v2h-1zm17,0h3v2h-3zm-11,3h2v2h-2zm19,1h2v2h-1l-1-1zm-63,2h1l2,1v1h4v1l-1,1h-1l-4-2l-1-1zm-12,1h2v1h-2zm37,8h1v1l-1,1h-1v-1zm3,3h3v1h-3v2h-1v-2zm43,3h1v3h-2v-2zm-54,6h1l1,1v1h-1l-1-1zm-38,5h2v1h-2zm16,1h1l1,1v1h-1l-1-1zm1,17h1v2h-1z"/></g><g style="fill:rgb(172,172,172);fill-rule:evenodd;stroke:rgb(172,172,172);stroke-width:0.1;" id="l13"><path d="M232,10h1l1,1v1h2v1h-2l-1-1v3h-3l-1-1v-1l2-1h1zm-44,44h1c0,2,1,1,2,1v1l-1,1h-2zm64,23h1v2l-1,1h3v1l4-4h1v1l-1,1h-1v2l-1,2l-1,1h-1v2l-2,1h-1v-1l2-2h1c0-2-1-2-3-3l-2-2v-1h1l1,1zm62,24h1v2h-1zm-121,7h3v1l-1,1h-1v2h-1l1,2v1h-1l-1-1v3h-1l-1-1v-1l2-4h1h-2v-1zm-9,47h1v2l-2,1h-1l-2-1v2l-4,2c-3,0-3,3-4,5l-2,2h-1v3h-2v-5l1-1h1v1l-1,1h2v-2l1-1h1l-1-1v-1l2-2h3v-1c2,0,2-1,4-3z"/><path d="M165,173h3v5h-1l-1-1v2l-1,2c-2,0-2,4-1,4l1,1l1,2v3h2v4l-2,1h-1l-3-3v-1c2,0,1-1,1-2c2-1,0-1-1-3v-3h-2l-1-2v-1l1-3l1-2h1l1,1v-2zm-1,20v1h1v-1zm78,17h1v2h-1zm-21,7h2v1h-2zm31,1h1l1,1v4h-1l-1-1zm6,4h1v2h-1zm-80,1h1v2l-1,2h-1v-3zm46,3h1v1l-1,1h-1v-1zm3,0h1l1,1v1l-1,1h-1v-1h1l-1-1zm29,0h1v2h-1zm-87,1h1v2h-1zm56,1h1v2h-1zm-12,1h2v1l-1,1h-1zm-26,1h1v1l-1,1h-1v-1zm48,0h1v1l-1,1h-1v-1zm42,2h1v1l-1,2h-1v-2z"/><path d="M274,235h1l1,1v1h2v1h-2l-2-2zm16,3h1l1,1v1h-1l-1-1zm-2,2h2l1,1v2h-1v-2h-2zm-33,3h1v1l-1,1h-1v-1zm31,5h3v1h-3zm-119,1h1l1,1v1h-1l-1-1zm140,4h1v4h-2v-1zm-91,1h1v1h-1l1,1v1h-1l-1-1v-1zm-26,2h1l1,2v1h-1l-1-1zm77,4h2v1h-2zm-3,1h1v1l-1,2h-1v-2zm-67,2h3v1l-1,1h-1l-1-1zm-16,1h1c0,2,1,2,2,3v1h-2l-1-2zm118,7h1v2l-1,1h-1v-1zm-132,1h2v1h-2zm87,0h1l1,1v1h-1l-1-1zm-95,1h1l1,1v1l-1,1h-1v-1h1l-1-1zm122,1h1v2h-1zm-85,6h1v2h-1zm-31,1h2v1h-2zm11,1h1v1l-3,3h-1v-2c2,0,2-1,3-2z"/><path d="M225,282h2v1h-2zm55,0h1v4h-1l-1-1v-2zm-114,2h1v1l-1,1c-2,0-2,1-3,2h-1v-1l2-2zm36,0h1v1l-1,1h-2v-1zm74,0h2v2h-1v-1l-1,1h-1v-1zm-68,1h1v2h-2v-1zm-36,2h1v1h-1zm3,0h1v1h-1zm39,0h1v1h-1zm54,0h1v1h-1zm25,0h1v1h-1z"/></g><g style="fill:rgb(156,156,156);fill-rule:evenodd;stroke:rgb(156,156,156);stroke-width:0.1;" id="l14"><path d="M268,11h1v2h-1zm2,1h2l3,3v1h-1l-2-2v-1h-2zm-74,22h1v1l-1,1h-1v-1zm93,4h2l1,1v1h-1l-2-1zm-101,12h1v1l-1,2h-1v-2zm65,27h3v1h-3zm1,2h2v2h-1l-1-1zm58,6h1v2h-1zm-116,12h1v2l-2,1h-1v-1zm-2,14h1v1l-1,1h-1v-1zm87,39h3v1l-2,1h-2v-1zm-101,7h2v2h-2zm-6,4h1v1l-1,1h-1v-1zm-5,7h1v3l-1,2h-2v-2h2zm-3,9h1l1,1l1,2v2h-1l-1-1v3h-1l1,2c0,3,1,3,2,5v1h-1l-2-1l-1-3c0-2-1-2-2-3v-4c2,0,2-2,3-4zm56,2h2v1h-2zm-2,1h1v2h-1zm58,9h1v1l-1,1h-1v-1z"/><path d="M251,211h1v2h-2v-1zm-34,2h1v2h-2v-1zm-29,1h1v1l-1,1h-1v-1zm44,0h2v1l-2,1h-1v-1zm-49,1h1v3h-1zm40,2h1l1,1v1h-1l-1-1zm-30,3h1l1,1v1h-1l-1-1zm18,0h3l1,1v1h-1l-3-1zm-13,2h1v2h-1zm45,4h1v3h-1zm33,0h1l3,3v1h-1l-3-3zm-61,1h1v4h-2v-3zm5,0h1l1,1v1h-1l-1-1zm-27,8h2v1h-2zm-22,2h1l1,1v1h-1l-1-1v3h-2v-1l1-2zm34,0h2v1h-2zm40,0h1v1h-1l1,1v1h-1l-1-1v-1zm35,0h2v1h-2zm14,0h1v1l-1,2h-1v-2zm-113,2h1v1l-1,1h-1v-1zm21,0h1v1l-1,1h-1v-1zm-37,1h1v2l-1,1h-1v-1z"/><path d="M237,240h1v1l-1,1h-1v-1zm42,0h2v1h-2zm18,0h1v2h-1zm-8,1h1v2h-1zm-13,1h1l1,1v1h-1l-1-1zm21,1h1v1l-1,1h-1v-1zm-62,3h1l1,1v1h-2zm-8,1h1v1l-2,2h-1v-1zm35,5h2l1,1v1h-1l-2-1zm-36,1h2v2h-1l-1-1zm82,2h1l1,2v3h-1l-1-1zm-107,2h1v1l-2,2h-1v-1zm69,1h1l1,1v2h-1l-1-2zm16,2h1v1l-1,1h-1v-1zm-19,3h1v2h-1zm-67,1h1v1l-1,1h-1v-1zm102,1h1v1l-1,1h-1v-1zm-17,1h1l1,1v1h-1l-1-1zm-128,1h1l1,1v1h-1l-1-1zm58,3h1l1,1v1h-1l-1-1zm-57,2h1v2h-1zm89,3h1v1l-1,1h-1v-1zm-54,2h1v2h-1zm9,0h1v4h-1z"/><path d="M160,278h1v1l-1,2h-1v-2zm76,1h1v1l-1,1h-1v-1zm18,0h1v1l-1,1h-1v-1zm-70,2h1l1,1v1h-1l-1-1zm95,0h1v2h-1zm-114,2h2v1h-2zm5,1h1v2h-1zm42,1h1l1,1v1h-1l-1-1zm32,0h1v2h-1zm57,0h1l1,1v1h-1l-1-1zm-132,2h1v1h-1zm151,0h1v1h-1z"/></g><g style="fill:rgb(220,220,220);fill-rule:evenodd;stroke:rgb(220,220,220);stroke-width:0.1;" id="l15"><path d="M305,52h1l1,1v1h-2zm12,26h1v2h-1zm-119,23h1l1,1v2l-4,1h-2v-1c2,0,2-1,4-3zm0,2h1v-1h-1zm6,8h1v1l-1,1h-1v-1zm-14,5h1l1,1v1h-1l-1-1zm8,3h2v1h-2zm-38,73h1l1,1v1h-1l-1-1zm70,14h2v2h-1l-1-1zm-1,4h2v1h-2zm-19,1h1l1,1v2h-1l-1-2zm3,0h1v2h-1zm-9,1h1v2h-1zm3,7h1l1,1v1h-2zm68,0h1l1,1v1l-2,1h-1v-1zm-107,4h1l1,1v1h-2zm102,0h3v1h-3zm103,0h2v1h-2zm-185,4h1v2h-1zm60,3h2v1h-2zm-34,1h1v1l-1,1h-1v-1zm-18,2h1v1l-1,1h-1v-1zm66,1h2v1l-1,1h-1zm-38,3h1v3h-1l-2-1v-1zm16,0h2v1h-2zm-46,4h2v1h-2z"/><path d="M190,246h1l1,1v1h-2zm47,7h2v1h-2zm-6,2h1v1l-1,1h-1v-1zm8,0h1l1,1v1h-1v-1l-1,1h-1v-1zm8,0h2l1,1v1h-1l-2-1zm-54,1h1v1l-1,1h-1v-1zm17,1h1l1,1v1h-1l-1-1zm33,0h1v2h-1zm-21,3h1l5,1l1,1v1h2v1h1c0-2-1-2-2-3v-1h4v5l-1,1h-1l-1-1v-1l-2,1h-1v-1h1l-2-1v-1l-1,1h-1l-2-1l-1-1zm11,4h-1v1h1zm5-4h1c0,2,1,2,2,3v1c-3,0-1,2-1,3h-3v-1l1-1h-2v-1l2-1h1h-2v-2zm11,2h1v2h-1zm-7,2h1l1,1v1h-1l-1-1zm-60,1h1v1l-1,1h-1v-1zm24,0h2v1h-2l2,2v2h-1c0-2-1-2-2-3v-1z"/><path d="M234,266h1l1,1v1h-1l-1-1zm-18,1h2v1h-2zm-18,2h3v1h-3zm18,0h2v1h-2zm-62,4h1v3h-1zm78,0h1v2h-1zm-35,7h1v3h-1zm54,5h1l1,1v1l1-1h1l2,1v1h-4l-2-1zm-30,1h1v2h-1zm60,0h5v1l-1,1h-3l-1-1zm7,0h1v1l-1,1h-1v-1zm-90,1h1v1h-1zm176,0h1v1h-1z"/></g><g style="fill:rgb(116,116,116);fill-rule:evenodd;stroke:rgb(116,116,116);stroke-width:0.1;" id="l16"><path d="M241,16h4v1h-4zm-6,54h4v1h-4zm11,7h1v3h-1zm3,1h1v1l-1,1h-1v-1zm60,19h1v2h-1zm-119,4h3v1h-3zm15,3h1v1l-1,1h-1v-1zm108,11h1v1l-2,2h-1v-2zm-4,5h2v1h-2zm-169,6h2v1h-2zm160,30h2v1h-2zm-81,18h1v1l-1,1h-1v-1zm-3,3h1v1l-2,2h-1v-1zm-39,24h1v1l-1,1h-1v-1zm32,9h1v2h-1zm24,0h2v1h-2zm0,9h1v1l-1,1h-1v-1zm42,4h2v1h-2zm-68,2h3v1h-3zm65,3h1v2h-1zm-69,6h2l1,1v1h-1l-2-1zm87,5h1v2h-1zm16,0h1l1,1v1h-1l-1-1zm-117,8h1v2h-1zm90,3h1v1l-2,2h-1v-1zm-66,3h1l1,1v1h-1l-1-1z"/><path d="M304,253h1v2h-1zm0,4h2v1h-2zm-65,1h3v1l-1,1h-2zm-12,1h2l1,1v1h-2l-1-1zm-3,4h1l1,1v1h-1l-1-1zm-21,4h1v1l-1,1h-1v-1zm59,0h1v2h-1zm22,0h1v1l-1,1h-1v-1zm-52,2h1v2h-1zm-66,1h1v2h-1zm79,5h2v1h-2zm26,1h3v2h-2l-1-1zm27,0h1v2h-1zm17,1h2v1l-1,2h-2v-1zm-148,1h1l2,1v2h-2l-1-1zm-3,1h2v1h-2zm89,0h1l2,1l1,1v1h-1l-2-1l-1-1zm-82,1h1l1,1v1h-1l-1-1zm138,1h3v1l-3,1h-1v-1zm-122,1h2v1l-1,1h-2v-1zm60,1h1v3h-2v-1zm48,0h3v1h-3zm10,0h1v4l-2,1h-1v-1c1-1,0-1-1-2v-1h1l2,2z"/><path d="M174,285h1v2h-1zm76,2h1v1h-1zm49,0h1v1h-1z"/></g></svg>