<svg xmlns="http://www.w3.org/2000/svg" xmlns:xlink="http://www.w3.org/1999/xlink" width="100%" height="100%" viewBox="0 0 288 288" preserveAspectRatio="xMidYMid meet" ><g style="fill:rgb(242,242,242);fill-rule:evenodd;stroke:rgb(242,242,242);stroke-width:0.1;" id="l1"><path d="M0,0h288v172l-1,1h-1v11h-2l2,2v1l-1,2l-1,1h2v1h-2l-1-1v-1l1-1h-2l-1-1l-1-2l-1-3c0-3-1-3-2-4c0-3-1-3-2-5v-3l1-1h-2l-1-1l-1-2c0-2-1-2-3-4v-2h1l1,1l-1-1v-2l-1,2h-2l-2-2v-1h-2l-2-1l-1-1v-1h-3l-3-1v-1h-5l-1-1v-1h1l3,1l-1-1v-2h2v-2l1-1l-2,2h-1v-3h1l1,1v-2h2h-3l-1-2v-1l1-1h1v1l-1,1l2-1h2l1,1l-1-1v-1h-2l-1-1v-1h-2v-1h3c1,2,1,0,4-1h1h-5l-2-1v-1h2l1,1l-1-2v-1l-1,1h-1v-1l1-1h2l1,1l-2-2v-3h3c0-2-1-1-2-1l-1-1v-8l1-3h1l-2-2v-2h2v1c-1,1,0,1,1,2v4h1v1v-5h2c0,2,2,2,2,1l1-2c2,0,1-1,1-2h1c1,1,1,0,2-1h-1c0-2-1-2-2-3v-1h2h-1l-1-1l-1-4v3h-1l-1-4v1h-1v-1l1-1h-2v3h-4c0,2,2,1,3,1v1l-1,1h-3l-1-3v-3h-2v-8l1-1l-1,1h-2v-1l1-2h-1v-3h-2v-3h1l1,1v-5h-2v-2h-3v-1h3l-1-1v-1l-1,1h-3v-1c2,0,2-3,1-3l-1-2v1h-1v-3l2-1h1l1,1l-1-1v-1l1-2l-1,1h-1v2l-2,1h-1v-2h-2v-1c2,0,2-1,3-2h1v1l-1,1c2,0,1-2,1-4l-2,2l-2,1h-2v-1l2-1h-2c0-2-1-1-2-1c0-3-1-3-2-5v-2h2c0,4,1,4,1,2l1-1h-1v-2h-2v-2h2q0,2,1-8l-1,7h-3l-1-1v2l-2,1h-1v-2h-2v-1l2-1h-1l-2-1v-1l1-2l-1,2h-1v-4h-3v-1l1-1h-3l-1-1c0-2-1-1-2-1l-1-1v-1l1-1h-2v-1l1-3l-1,2h-1l-1-2v-1l-2,2h-1v-2c2,0,2-1,3-2l-1,1h-3l-2-2c0-3-1-3-3-5l-1-2c0-2-1-2-2-3v-1h-2l-1-1v-1h-2v-1l1-1l-3,1h-6l-4-1v2h-2l-2-1c0-2-3-2-7-3v-1l-2,1h-2v-1l2-1l-2,1h-3l-3-1v1c-2,0-2,1-3,2c-2,0-1,1-1,2l-1,1h-1c-4-1-4,0-6,1h-1v-1l1-1h-2v1h-1l1,1v1h6v1l-2,2h-1c-1-1-1,0-2,1c-3,0-3,1-4,2h-1l-1-1v-1l1-1h1l-1-1v-3l2-1c-2,0-2,1-3,2h-1l1,1v1l-2,6c-2,0-2,1-3,2c-2,0-2,1-3,2l-6,1h-1l-1-1v1c-2,0-2,1-3,2h-1q-1-2,0,0v4h-1v-3l-1,4h-2l-2-1v-1c-3,0-1,1-1,6l-1,2h-1v3l-1,1h-1l1,2v1l-2,4h-1v10h-2v2h-1v4l-6,3c-3,0-3,1-6,4h-1l-1-1v1l-1,2h-1l-1-1v2l-4,2c-2,0-2,1-5,4l-3,1c-2,0-2,1-3,2h-4v2c-2,0-2,1-3,2c-3,0-3,1-4,3l-1,1l-2,1c-3,0-3,1-5,3h-1l-2-1l1,1v1c-2,0-2,1-3,2c-2,0-2,1-5,4h-4l1,1v1c-3,0-3,1-4,2h1v1h-2l-1-1v2l-2,1h-2v2l-1,1h-2v2l-1,1h-1v2l-2,2h-1v-1l1-1c-2,0-1,3-1,8h1c0,2,1,2,2,3c0,3,1,3,3,5c0,2,1,2,3,4c0,2,1,2,2,3c0,2,1,2,2,3c0,2,1,2,4,5c0,2,1,2,6,7l17,17v1h2l8,8v1h2l4,4v1h2l3,3v1h2l2,1l2,2v1h2v3l1-1h1l1,2v1h-1l-2-1v2c-2,0-1,1-1,3l1-1c2,0,2-1,3-2h5c0,3,1,3,2,5v-1l1-2h1v2l-1,4l-1,2h-1l1,1v1h-1l-1-1v3l-1,1h-1v-1l1-1l-1,1h-1v-3l3-3l2-1h-1v-2l-1,3h-2v2h-1v-5l1-1l2-1h-2v-2l-1,2h-2l-1-1l1,2v2l-1,2h2v6l-2,2l1-1h2l1,1v1l-1,2h-3l1,1v1l-1,3h-3v-1l1-1h1c-2-1-2,0-3,2h-1l-1-1c0,2,2,2,6,3c0,2,1,1,2,1l1,1v-2l1-1h1v-4h-2v-1l1-1c2,0,1-1,1-3h1c0,2,2,1,4,1l1,1v1l-1,3l-1,1c-1,0-1,2,3,1c2,0,2-1,3-2h1v-2l-2,2c-2,0-2,1-3,2h-1v-1l2-2c2,0,2-1,3-2l4-1h1l-1-1v-3l-1,1h-1l1,2v1h-2l-1-5v-1c-2,0-2,2-1,2l1,1v2h-4l-1-1v-1c1-2,0-2-1-3v-3h1l2,1q1,2,0-1v-1l2-2h2l1,1v2v-1c2,0,1-2,1-3l1-1h1l1,2v1l1-1h3h-1v-1h1c2,1,2,0,5-1h2c1,1,1,0,6-1h1l1,1v1h3v-2h-3v-5h2c1,1,1,0,2-1h-11c-1-1-1,0-2,1h-1v-1l2-2l-2,2h-1v-1l1-1h1l-1-1v-1l3-3h1v1l-1,1l1-1h1l1,1l-2-2v-1l3-3h2v-2h1l1,2v2l-1,1l2-2h1v1c-2,2-1,2,1,4l-1-1v-1c4,0,4-1,8-5h2v-7h1l2,1v1l2-2h1v1l-1,2h-3l-1-1l2,2c0,2,1,1,3,1v1l-1,1h-1l1,1v1l-2,1h-2c-1-1-1,0-2,1h-1v4c-2,0-2,1-5,4h-1v3l-1,2l-1,1l5-1h2v3v-1c2,0,2-1,3-2h6v2l-1,2h2v1h-2c-1-1-1,0-2,1q-2,1,2,0h2l3,1v1c-3,0-3,2-1,1h1v2l-1,2l1-1h7l-1-1v-1l-1,1h-1l-1-1v-3h3l1,1c0,3,4,2,5,2q1,2,0-2v-1c3,0,3-2,4-4h4l6,2l2,1v2c-2,0-2,1-3,2h-1c0,5,1,5,3,7v1h-1l-1-1v-1h-3v-2h-2v-2c2,0,2-1,3-2h1l-1-1v-1h-2c0-2-1-2-1-1l-2,4l-2,2h2c0,2,1,2,2,3c0,5,2,5,2,2h3l1,2v6h-1l-1-1v3l-2,1h-3v-1l3-1h1c0-4-2-4-2-3l-3,3h-1v2h-1v-2l2-4l2-2h-2l-4-2l-2-2v-1c-3,0-3,1-4,2h-2v2h2v1l-1,1h-1v2l-1,2h-3l-2-1l-1-1v-2l1-1l-1,1c-6,0-6,1-7,2h-1c0-4-2-3-4-3l1,3v1h-1l-1-1v-1c-2,0-2,1-3,2h-1l1,2v1l-2,2h1c0,2,1,2,2,3v1c2,0,2-1,3-2h1v2h4v-2h1l1,2v1c-6,0-6,1-7,2l-2,1h-1l1,7c0,2,1,2,4,3v2l-1,1h-1l-3-1l-3-3v-5l1-3l-1,1h-1v3h-1c0,5,1,5,2,7v1h-4l-5-1v-1l1-1l-1,1c-51,0-51,1-52,3h-1c0,2,1,1,2,1l1,4v1l-1,11h2c0,6,1,6,3,12v3h-85zm229,44v1h-1v1h1z"/><path d="M221,39h2v1h-2zm-105,1h1v2h-1zm13,5h4l1,2v11c-2,0-1,1-1,2l-1,2h-2l2,1v1l-1,1h-2v-2v1l-2,1c-5,0-5,2-7,4h-1v2l-1,2l-2,2h-1l1,1v2l-1,5h-1v-10l1-3h1v-8l1-4l2-4l8-8zm-15,1h1v2h-1zm4,4h1v2h-1zm18,24h5v1c-2,0-2,1-3,2c-2,0-1,1-1,2l-1,2l-1,1h-1v3c-2,0-2,1-4,3c-2,0-2,1-5,4h-5l2,1v1l-1,1c-2,0-2,1-4,3h-2c-1-2-1-1-3,1c-2,0-2,1-3,2h-1c0,3,1,3,3,5v1h2l2,1l1,1c0,4,1,4,2,6c0,2,1,2,2,3v1l-1,4h1c0,2,1,2,2,3l1,3v1h-1l-1-1c0,3,1,3,2,5v4l-2,2h1v-1l2-1h1v8l-1,1h-1v3l1-2h1v2l-2,2l-4,1h-1l-5-1l-3-1v-1h-4l-1-1v-1h-2l-6-3l-2-2v-1h-2l-1-1v-1h-2l-4-2l-1-1v-1h-2l-4-2l-1-1v-1h-2l-1-1v-2l8-8h1v-2l2-2h1v-2l4-4h1v-2l6-6c2,0,2-1,11-10c2,0,2-1,4-3c2,0,2-1,3-2h1v-8h1l1,1c0,3,1,3,2,5v-2l3-1h1l1,1v-1c2,0,2-1,4-3l4-1h2h-4v-1l2-2h2z"/><path d="M244,76h1v2h-1zm2,1h1l1,1v1h-1l-1-1zm-70,8h1v1l-1,1h-1v-1zm-51,18h3v1h-3zm136,1h1l1,1v1h-1l-1-1zm-131,5h3v4h-1l-1-1v2h-1zm-8,3h1v3l-1,1h-1v-1zm3,10h1l3,1v1l-2,1h-1v2l-2,1h-1v-3l1-2zm99,41h1v1l-1,1h-1v-1zm-7,1h1v1l-1,1h-1v-1zm-68,9h1v1l-1,1h-1v-1zm4,2h1v1l-1,1h-1v-1zm-7,1h1v2h-1zm-4,6h1l2,1v1l1-1h1v2l-4,4h-2l-2-1v-1l2-2h1v1l-1,2c2,0,1-5,1-6zm-2,1h1v1l-2,2h-1v-1zm-18,14h1v1l-1,1h2l1,1v2h-3l1,1v1h-1l-1-1v2l-2,2h-1l-2-2v-1h1l1,1v1h1l-2-2v-1h1l2,2l-1-1v-1l2-1h-2v-1h4l-1-1v-1l-1,1h-1v-1z"/><path d="M161,205h5l8,1v1l-2,1h-1v2l-2,4h-1c0-2-1-2-2-3v-1h-3v-1l3-3l-2,2h-2v2h-2c0-2-1-2-2-3v-1h1c1,1,1,0,2-1zm29,6h2l1,1v1h2l1,1v1h2l1,1v1h2l3,3v1l-1,2h-1v3h-1l-1-1v-1h-4l-2-2v-1h-2v2h2v2h-3l-6-6v-3l2-2h3v3h-1l-2-1l1,2v2l1-1l3-1h2l1,1v-2l1-2l-2,2h-1v-1l1-1h-1c0-2-1-2-3-3zm-86,4h1v2h-1zm101,6h1l1,1v1h-1v-1l-1,1h-1v-1z"/><path d="M170,223h1l2,1l2,2v3l-2,2c-2,0-2,1-4,3c-3,0-3,1-4,2h-1l1,2v1h2v-2h3v3l-1,1h-3l-3-1l-4-4l-1-2v-2h-2v-2h3l2,1c0,2,1,1,2,1l2,1l1,1v-2c3,0,3-1,4-2h1v-6h-1zm34,2h1l2,2v1h2v2l1-2h1c0,2,1,1,2,1v1l-1,1l1-1h1v2l-1,2h-1l-1-1v-1l1-1l-1,1h-1l-3-3v-1h-2l-1-2zm-17,1h5l2,2l1,2v1l-1,1h-1v-1l1-1h-3l-1-1v-1l-1,2h-1l-1-1zm10,0h2l1,1v1h-3z"/><path d="M166,228h2v1l-1,1h-2v-1zm37,1h1v2l-2,1h-1l-1-1v1l-1,2h-2v-1l3-3zm-19,2h4l3,1l1,1v2l-1,2l-1,1h-1l2,2v1h-1l-1-1v-1h-2c0-2-1-2-2-3v3l-1,1h-1l1,2v1h-2v2h-1v-2l1-1c-2,0-2,1-3,5l-1,1h-1l-2-4v-1h-4v-1l2-2c2,0,1-1,1-2h1l1,1v1l-1,1l2-1h1c2,1,2-1,1-1l-2-2v-1c5,0,5-1,6-2h1zm31,0h1v4h-1zm-103,2h1v1l-2,2h-2v-1l1-1zm43,0h2l1,2c0,2,1,2,3,4v2h-1c-3-3-3,1-4,2h-1v2l-1,1h-1v-1l1-2h1v-5h1l-1-4z"/><path d="M220,234h2v1h-2zm-48,1h1l1,1v1h-1l-1-1zm29,0h1l1,1v1l-1,1h6v1l-1,2h-1c0-2-3-2-3-1l-1,1h-1v2h-3v-1l1-1l-2,2h-1v-3l2-2h3zm10,1h1l2,2v1h-1l-2-1zm11,2h1v1c-1,1,0,1,1,2v1h-1l-2-2v-1zm-108,2h2v3h-2zm97,0h2v1h-2zm8,0h1v4h-1zm-72,1h4v7l-1,1h-4l-1-1v-4l1-2zm38,0h2v1h-2zm-22,1h2l3,1l1,1c0,2,1,2,5,3v2h-6l-2-1l-1-1v-2c1-1,0-1-1-2v2h-1zm52,0h2v1h-2z"/><path d="M191,243h1l3,1v1l3-1h3v2h-2l-1-1l1,1v1l-2,2h-1v-1l1-1l-1,1c-2,0-1,1-1,2l-1,1h-1l-3-1v-6zm-30,1h1l1,2v1c-1,2,0,2,1,3v2h-2l-2-1l-1-1v-2l1-1h1zm56,0h1v1l-1,1h2l1,1v1l1-2h2v2l-2,1h-3v-2v1l-4,1c-3,0-3,1-4,3l-1,1h-1l-1-1v-1l5-5h3l2,1l-1-1v-1zm-60,2h1l1,5c0,1,2,1,5,2v1l-2,1h-3l-2-2v-1l-1,1c-3,0-2,2-2,3l-1,2l-2,1h-2v-5l1-3l1-1l2-1c2,0,2-1,4-3z"/><path d="M183,246h1v1l-1,2c-2,0-2,1-3,2h-2v-1l1-1c2,0,2-1,4-3zm21,3h2v2h-1l-1-1zm19,0h1c0,2,1,2,2,3v1h-1l-1-1v-1h-2v-1zm-49,1h3v2c-5,0-5,2-3,2l4,1l1,1v1h-4l-2-1l-1-1v-1h-2c0-2-1-1-2-1v-2h2c2,1,2,0,4-1zm13,0h1l1,1v1h-1c-1-1-1,0-2,1h2l1,1c0,2,1,1,2,1l-1-1v-1h1l1,1v1l-2,2h-2c0-2-1-1-2-1v-1l1-1l-1,1h-1v-1l1-1h-2v-1c2,0,2-1,3-2zm11,0h1v1l-1,1h-1v-1zm5,1h1v2h-1zm10,0h1v4h-3v-2zm5,0h2v1h-2zm-39,1h2v1h-2zm42,0h1l2,2v1h-3v-1l1-1l-1,1h-1v-1z"/><path d="M124,254h1l5,1v1h6l1,2c0,2,1,2,3,4v2h-2l-4-1v-1l1-1h-2l-1-1v-1l1-1h-2l-1-1v-1l-5,5h-4v-2l1-2l1-1h1zm56,0h2l1,1v3h-1v-3h-2zm-97,1h3l1,1l1,2v2h-3l-2-4zm10,0h3v2l-4,4h-3v-1l3-3h1zm4,0h6v6l1-1h1v-2h1l-1-1v-1h1c1,1,1,0,2-1h3v5h-1c-1-1-1,0-2,1l-4,1h-1l-4-1l-1-2l-1-3zm16,0h3l2,2l1,2v2h-4l-2-4z"/><path d="M145,256h3v1h-3zm84,0h2v2h-1l-1-1zm-126,1h1v2h-1zm68,0h1v2h-1zm13,0h1v2h-1zm-55,1h1v1l-1,1h-1v-1zm15,0h1v1l-3,3h-1v-1zm21,0h1l1,2v1l-1,2l1-1h1l1,1v1h-3l-1-1zm-18,1h1v1l-1,5h-5v-2l2-2c2,0,2-1,3-2zm26,0h3v1h-3zm20,0h2v1h-2zm-44,1h2l5,1v1h2v-2h4v3l-1,3h-1v-4c-2,0-1,1-1,3h-1l-2-1c0-2-2-1-4-1l-1-1v-1h-2zm28,0h1c0,2,1,2,3,3v1h-2l-1-1v-1l-1,1h-1v-1zm11,1h1v2h-1z"/><path d="M199,261h1v6h-1l-1-4v-1zm7,0h2v1h-2zm-123,1h3v2l-1,1h-2l-1-1v-1zm4,0h3l2,2c0,2,1,2,2,3v1l2-2h1v-2l1-1h10l3,6v-1l2-2h1v-2l1-1h4v2l-2,2h-1v2l-1,1h-9l-1-1l-1-3c0-2-2-2-2-1l-1,1h-1v2l-2,1h-8l-3-6zm6,1h1l1,2v1h-1l-1-1zm27,0h5l1,1l1,2v1l-1,1h2l1,1v1l5-5h2l4,1v1l-4,4h-7l-5-1l-1-2c0-2-1-2-3-4z"/><path d="M148,263h2v1h-1l1,1v1h-2zm45,0h1l1,1v1h-1l-1-1zm9,0h1v1l-1,1h-1v-1zm-38,1h1v1l-1,1h-1l1,1v1h-1l-1-1v-1zm-33,1h1v1l-2,2h-1l-1-1v-1h1c1,1,1,0,2-1zm22,1h1l1,1v1l-1,1h-1v-1h1l-1-1zm-11,1h4l1,1v1l-1,3h-1l-1-1c0-2-1-2-2-3zm8,0h2v5h-1l-1-4zm73,0h1v1l-1,1h-1v-1zm-142,1h1l1,1v2l-1,1h-1zm103,0h1v2h-1zm7,1h1v1l-1,2h-1v-2zm18,0h1v3h-1zm-122,1h1v2h2v2h-2l-1-1zm74,0h1v2h-1zm-66,1h2v1h-2zm3,0h1l1,1c0,5,1,5,2,6v1l-1,1h-1l-1-2l-1-6z"/><path d="M101,271h5v1l-1,1h-3l-1-1zm16,0h2v2l-1,1h-1zm-32,3h1v2h-2v-1zm43,0h1v1l-1,1c-2,0-2,1-3,2c-2,0-2,1-3,2h-1l1,1v1h-1l-1-1v-1l1-1h1l-1-2v-1c5,0,5-1,7-2zm2,3h1v3h-1zm15,0h2v1h-2zm12,1h1v2h-2v-1zm17,0h2v1l-2,1h-2v-1zm8,0h1l2,1v1h-2l-1-1zm-21,2h1l1,1v1l-1,1h-1zm-63,1h1v2l-1,4h-1v-5zm34,0h1v3h-1zm41,0h3v1h-3zm-85,1h1l1,1v2c-2,0-1,2-1,3h-1l-1-1l-1-2v-2zm15,0h1v1l-1,1c4,0,4-1,5-2h1v1l-1,1h-1v3h-4l-1-3v-1z"/><path d="M178,282h1v3h-1zm2,0h1v2h-1zm-21,1h1v3h-1zm-29,2h4v1l-1,2h-4v-2zm-38,1h1v2h-1zm3,0h1v2h-1z"/></g><g style="fill:rgb(18,18,18);fill-rule:evenodd;stroke:rgb(18,18,18);stroke-width:0.1;" id="l2"><path d="M165,6h3l2,1l1,1v1h3l1,1v1l1-1h2l2,1v1l1-1l3-1h11l3,1l5,5l1,2c0,2,1,2,2,3l2,4c0,3,1,3,2,4l1,2v-2h1c0,9,6,9,9,12l1,3c0,4,1,4,3,5l3,3v6v-1l1-1h1v10l-1,1h2v1l-1,1h2c0,6,2,6,2,5h1v1q-1,2,2-1h1v1l-2,2h-1v3l1-1h1l2,4v2c-1,3,1,3,2,4v-3h1l1,2c0,9,1,9,2,14v4l-1,1c-2,0-2,1-3,2h-1l1,1v1h-1l-2-1v2h-1l1,2c0,10,1,10,2,16v1l1-2l1-1h1v1l-1,3l-1,2h-1l1,1v1l-1,1h-1v2l-1,1h-4v5h-1v-2c-2,0-1,3-1,7l-1,2h-3l-6-2l-2-1l-2-2v-1h-2l-2-2l-1-1c0-2-1-2-2-3l-6-12c0-3-1-3-2-5c0-3-1-3-2-5c0-3-1-3-5-11c0-4-1-4-2-6l-1-5v-10l1-2h-1v-3h-4v-1c1-4,0-4-2-6v-1h-8l-2-2l-1-2l-1-4v-1l-1,2c-3,0-3,1-5,2l-3,1h-3l-2-2v-1c1-1,0-1-1-2c0-1-2-1-5-2l-1-1v-1h-2l-1-1v-1h-2l-3-3v-1h2v-3h4h-1l-1-1v-1h-2v-2h-6v-1l2-1h-1l-3-1c0-1-3-1-9-2v1c-3,0-3,1-7,5h-3l-1-2v1l-1,1l-3,1h-1v-1l1-1h1v-2l1-1h2l-2-1v-1h2v-3l1-1h1v-2l1-2c2,0,1-1,1-3l1-1h2v-3h1l1,2v1l-1,1c2,0,2-1,5-4h1c1,1,1,0,2-1h1c2,1,2,0,3-1c2,0,1-1,1-2l1-2l3-3l9-1h-4v-1h5l1,1v-2c1-1,0-1-1-2v-1h1l1,1v-3h1l1,2v1l-1,2l1-1h1l2,1l-1-1v-2h-2v-1h3c0,2,2,1,3,1l1,1v1c-2,0-2,1-3,2l1-1c2,0,2-1,3-2h2v-2l1-1h-2v-3h-3z"/><path d="M162,9h2v1h-2zm-50,38h1v2h-1zm33,1h2v1h-2zm-34,4h1c0,2,1,1,2,1l1,1l1,2v1l2-2h1v1l-1,1h-1v5l-1,3h-1v6l-1,5h-1l1,3v6l1-1h2v2h-1v-1l-1,2h-1l1,1v1h-1c-3-1-3,0-4,1h-1c-1-1-1,0-2,1c-2,0-2,2-1,2v1h-1l-1-1v-2l-1,2l-1,1h-2v-1h2v-3h2v-3l1-1h1v-2l2-2h1v-2l1-1h1v-3h2v-5l1-2h-2v-2c2,0,1,0-1-2v-1h1c2,1,2-1,1-1l-1-4v-1c1-2,0-2-1-4zm5,1h1v2h-1zm4,17h1l2,1v1l1-1h1l4,1l3,1v1c-4,0-4,1-7,4h-1l-1-1c0-2-1-2-2-3v-1v2h-1l-1-1v-2z"/><path d="M126,70h3v1h-3zm36,0h4v1h-4zm-32,1h2v1h-2zm46,2h1v6l-1,1h-2v-3l1-3zm2,2h1l1,1v1h-1l-1-1zm62,8h1v2h-1zm-61,6h1v1l-1,1h-1v-1zm-84,8h1l1,1v1l-1,1h-1v-1h1l-1-1zm29,0h1v1l-1,1h-1v-1zm-2,3h1v1l-1,1l-6,2h-2v-2l2-1zm11,3h1v2l-4,4h-1l-1-1v-1l2-2c2,0,2-1,3-2zm-19,4h2v1h-2zm10,1h1l2,1v1h-2l-1-1zm-2,2h2v1h-2v2h-1v-2zm-2,4h1v2l-1,1h-1l-1-1v-1h1l1,1zm-51,9h3l1,1v1l-1,1l2-1h1v3l-1,1h-3l-4-2c0-1-3-1-8-2v-1z"/><path d="M126,139h1l1,1v1l1-1h27l2,2l1,3l1,16v3l-1,2l-6,3c-2,0-2,1-3,3l-6,6l-3,3c-2,0-2,1-3,2c-2,0-2,1-5,4h-2l-1-1l1,1v1l-11,11h-1v2l-2,2h-1v2l-2,2h-1v-1l1-1l-1,1c-2,0-1,1-1,2h-1l-1-1v-1l1-1l2-1h1l-1-1v-1l1-2h-1v1l-3,3h-1v2h-1v4h-1l-1-1v2l-1,1h-1v-1l1-2h1l-1-1v-1h1l1,1c0-3-1-3-3-4v-3l-1,1h-1v-1l1-1l-1,1h-2l-1-1v-1h-2v-1l2-1h1l-2-6v2h-1v-5h1q0,1,1-2h1v-4l1-4h1v8v-2l1-1c1,0,1-4,2-13l-1,2h-1v4h-1v-4l1-2h1v-3h1l1,1v2l1-2h1l-2-1l-1-1v-1l-1,1h-1v-1l1-2h1l-2-1v-1h3l1,1l-1-1v-1l3-1h1l1,1v-1c2,0,2-1,3-2l3-1h3v-3h1c2,1,2,0,3-2h1l1,1v-6h1l1,1v-2l1-2l1-1h-2v2h-2z"/><path d="M227,157h2v1c-2,0-2,1-3,2h-1v2l-1,1h-1v2l-2,2h-1v2l-1,1h-1v2l-1,1h-1v2l-1,1h-1v2l-1,1h-1v2l-1,2l-2,2h-1v2l-1,2l-1,1h-1v2l-1,2l-1,1h-1v2l-2,4l-1,2h-1v3l-2,4h-1v3h-1l-1-1v-1h-3l-1-1v-1l1-3l6-12l1-1h1v-2l1-2l1-1h1v-2l2-2h1v-2l2-2h1v-2l1-1h1v-2l4-4h1v-2l11-11zm-130,20h1v5h-1z"/><path d="M156,205h2c0,2,1,2,2,3v2l-6,1h-1v-2c3,0,2-1,2-3zm76,0h1l1,3l1,4l1,19c0,13,1,13,2,17c0,4,1,4,2,6c0,3,1,3,4,9c0,4,1,4,2,6l1,5l2,12v2h-19c0-2-1-2-2-3v-1l1-1h1l2,1v-2h2l1,1l-1-2v-1l1-1h1v-2h1l-2-4c0-2-1-2-3-4v-1l-1,1h-1v3l-2,2h-1q-1-2,0,0v4l-2,1h1l2,1v1c-2,0-2,1-3,2h1l1,1v1h-7l1,1v2h-1l-1-1v-1h-3v-1l4-2l4-1h1l-1-3v-1l1-1l-1,1h-1v2l-2,2h-1v-1l1-2l2-2h1l-2-2v-1c1-2,0-2-1-3v-3h1c0,2,3,1,4,1l-2-1v-1l2-2h2l1,1v1l1-1h1l2,2v-3h2v-5l1-1h1l-2-2v-1h1l1,1l-1-1l-1-2q0-1-1,4h-2l-1-1v-2l1-2h1v-3h1l2,1l1,1c0-4-1-4-3-10c0-2-1-2-3-3l-2-2v-1h-2l2,2v2l-2,2h-2v-2c1-1,0-1-1-2v-1h-3v5h-1l-1-2v-3l1-1l2-1h2c3,1,1-1,1-2h1l1,1v1h2l2,1v1l1-2h1l-1-8v-12h1l1,1v-3h-1l-1-5z"/><path d="M173,207h1v2c-2,0-1,1-1,2h-2v-2zm-50,2h2v2l-1,1h-1v2h-1v-2l1-1l-1,1h-1v-1zm-6,2h2v3h-3v-2zm23,0h1v2h-1zm25,0h2v1h-2zm14,0h1v1l-1,1h3v1l-2,1h-1v4l1-1h1l1,2v1c3,0,2-1,1-3v-2l1-2l2-2h5l2,1v4l-1,1h-4v-1h2c0-3-4-3-4-2l-1,2h-1l1,1c0,2,1,2,3,4v1h2l1,1v1h2v2h-1l-2-1v-1h-3v4h4v2l-1,1h-2l-2-1l-1-1l-1-2v-2l1-1h1v-2h1l-1-1v-1l-1,1h-4v2h-2v-2c1-2,0-2-2-4v-3l1-3z"/><path d="M146,212h6v1l-1,1h-6v-1zm24,0h1v2h-2v-1zm-42,1h3v2h-2v3h-3v-3h3l-1-1zm15,1h1v2h-1zm-19,1h1v3h-1zm24,0h2v1h-2zm15,0h3v1h-3zm-50,2h1l2,2v1h-1l-2-2zm36,0h2v1h-2zm16,0h1c0,2,1,1,2,1v1l-2,2l-2,1h-3l-1-1v-1l2-2zm-58,2h1l1,1v1l1-1h4v1l-3,1h-2l-2-2zm32,1h3l1,1v1h-1l-3-1zm-12,1h1c0,2,3,2,6,3v1h4v1c-6,0-5,2-5,3h-1l-3-1l-2-2v-1l-1,1h-1v-2l1-2z"/><path d="M170,221h1l1,1v1h3l2,2v3l-1,1h-1v2h-1v-2c1-4,0-4-2-5l-2-2zm23,0h1l3,3v1h4v1l1-2l1-1h3v2c-2,0-2,2-1,2l7,7v1l1-2h1c2,2,2,0,5-1c2,0,1-1,1-2h-3l-1-2v-1h1l1,1v1h2l1,1v1h2l1,1v1l-4,1h-1v2l-1,1h-1l1,1v3c-9,0-8,3-8,4l2-1h1l-1-1v-1h1l1,1v2l-2,2h-2l-2-1l1,1v2c-11,0-11,1-12,2h-1v-1l4-4h5l1,1l-1-1v-1h-2l-2-2v-2h1l2,1l2,2v2c2,0,1-1,1-6l2-1h-1l-3-1l-2-1l-1-1v-4l1-1l4-1h-2l-2-1v1c-4,0-4,1-5,2h-1c-1-1-1,0-2,1h-1c0,5,2,5,2,4l2-2h2l1,2v1h-2c-1-1-1,0-3,2l-2,1h-3l-1-2v-1l1-3l1-2l2-1h1l-1-2v-2h1l2,2v1l1-1h1v-2h2l2,1l-1-1v-1h-2v-1l-4,1h-1c0-3-1-3-2-4zm12,15l1-1h2l1,3v1l1-1h2l4,2l-1-1v-3l-1,1h-1l-5-5v-1l-1,1l-2,1h-1l1,2z"/><path d="M122,222h1v2h-1zm44,0h1l2,1l2,2v5l-2,2h-7l-2-1l-1-1v-1h1l3,1v1c4,0,4-1,5-2h1l-1-3c0-2-1-2-2-3v1h-1v-1zm43,0h1l1,1v1h-1l-1-1zm-112,1h4v1h-4zm9,0h1v1l-1,2l2-1h1v1l-1,1h-3v-3zm-7,2h1v2l-2,1h-1v-1zm13,0h2v2h-3v2h-1v3h3v1c-2,0-2,1-3,2h-1v-6l1-2zm37,0h1v3l-1,1h-2l-1-1v3h-5v-1c2,0,1-1,1-2l1-1h2l1,1v-2h2l1,1zm4,1h2l1,1v4l-1,2h-1v3l-1,1h-1l-1-2v3h-4v-2l1-1h1l-2-2v-2l1-1h3l1,1v1l-1,1h-1v2l2-2c2,0,1-1,1-2l2-2h-1l-1-2v3h-1l-1-1v-2z"/><path d="M181,227h1v2l-1,2l-1,1h-3v-1zm-61,2h1v2h-1zm6,0h2l1,1v1h-1l-1-1v3l-4,4h-3l-1-2v-2h1c0,2,1,2,3,3v-1l2-2h1zm-29,1h1v2h-1zm45,2h3v3v-1h1v2l-1,1h-3l-1-1v-3zm15,0h1v2h-1zm43,0h1v2h-1zm-113,1h1l1,1v2h-2l-1-1v-1zm41,0h1v2h-1zm42,0h13v1l-1,1l-2,1h-3l-2-1l1,1v1h2l1,1l1,2v1h-1l-2-1l-3-3q0-1-1,3h-1c0-2-1-2-3-3v-1l-2,1h-1l1,1v1h-1l-1-1v-3h8h-1l-2-1z"/><path d="M130,234h4l1,1v1h4v1l-2,2c-4,0-4,1-7,4h-1v3h-1v-3l1-3l2-2l3-1q1,0-3-1l-1-1zm-25,1h8v1l-1,2l-3,3h-1v-1c2-2-1-2-3-4zm-9,2h1v2h-2v2l-1,1l-2,1h-1v-2l1-1h1l1,1v-3zm20,0h1v2h-2v-1zm38,0h1v3l-1,4l-1,2h2v-2l1-1h1v-5h1l2,2v8h-2l-1-3v1l-4,4h-3v2h-5l-1-1l-1-2v-5l1-2l2-2c7,0,7-2,8-3zm-9,7l1,5v1h4v-2l1-2h1v-5h-5v1l-1,2z"/><path d="M159,237h1l1,1v1h2v1h3v1c3,0,3-1,4-2h1v1l-2,2h-5l-2-1l1,2c0,2,1,2,2,3v2c-1,1,0,1,4,5v1h2l4,2v1l5-1h2v2c-3,0-3,2-2,2l1,1v2h-1l-1-1l-1-2v-1h-3l-2-1l-1-1v-1l-1,1h-1v3h-3l-1-1v-1c3,0,3-2,2-2c0-2-1-2-4-5l-1-2v-1c1-1,0-1-1-2l-1-2c0-5-1-5-2-6zm-75,1h1v5h-1zm4,0h1v3l-1,2h-2v-1l1-1h1zm38,0h1v1l-2,2h-4v-1c4,0,4-1,5-2zm-27,3h1v3l-1,1h-2v-2z"/><path d="M119,241h1l1,4c0,2,1,2,3,4v1h-3l-2-2l-1-5v-1zm-24,1h1v4h-2v-3zm17,0h1l1,1v1h-1l-1-1zm4,0h1v2l-1,1h-1v-1zm16,0h1v4l-1,2h-1v-5zm54,0h4l1,1v1l-2,4l-3,3c-2,0-2,1-3,2h1l3,3v1c4,0,4-1,5-4h-1c-1-1-1,0-2,1h-1v-1l2-2h4l1,1v4c-4,4-1,4,2,5v-1l1-1h1v2l-1,1h-1l2,2v3l-1,4l-1,1h-1v2l-1,1h-1v-2h-3v-2h2c1,1,1,0,2-1h1v-3h1c0-2-1-1-2-1l-1-3v-1h-2q0-1-1,7l-1,2l-3,3h-4l-2-2v-5l1-1h4l1,1v1h-3c0,3,4,3,4,2l1-2h1v-6h-1c0-2-1-2-2-3v-1h-2l-2-2c0-2-7-2-7-1h-2v-2l1-1h3c4,1,4-3,6-5h1v1l-1,1h-1c2,1,2,0,3-3l1-2l-1,1c-3,0-3,1-4,2c-2,0-2,1-4,3h-1c-1-1-1,0-3,1h-5l-2-1l-1-1v-1h1l2,1v1h3v-1h2c0-3-2-2-4-2l-1-1v-1l1-1h5l2,2l1,3v-2l1-3h2c1,1,1,0,2-1z"/><path d="M122,244h3v2h-3zm103,0h1l1,1v1h-1l-1-1c0,4,1,4,2,6c0,2,1,2,2,3v1h-2c0-2-1-2-2-3l-2-4v-3zm-134,1h1v2h2v4h-1l-1-1l-1-2zm26,0h1v3l-1,3h-1v-3zm-36,1h1v2h-1zm16,0h1v4h-3v-3zm41,2h1l1,2c0,2,1,2,2,3v1h2v1h-3l-2-2l-1-3zm74,1h7l4,2l3,3v1h-1l-2-2v-1h-2l-2-1v-1c-6,0-6,1-7,2h-1c0,4,1,4,3,5v2l-1,1h-1l-2-1l-2-2v-3l1-2z"/><path d="M180,250h1v1l-1,1h-1v-1zm21,0h3v1c-2,0-2,1-5,4h-2v-1l1-2l1-1zm3,2h2v1l-1,1h-1l1,3c0,2,2,2,6,3v1h-5l-1-1v-1h-2v-5zm-123,1h20l1,1v2h-1c0-2-8-1-21-1v-1zm22,0h22v1l-1,1h-19l-2-1zm51,0h1v2h-1zm-28,1h8l4,1v1h6l4,1v1l-2,2h-1v-1l1-1c-3,0-3,1-4,2h-1l-1-1v-1h3h-4l-1-1v-1l-1,1h-1l-2-1v-1h-8z"/><path d="M222,255h2l3,1l2,1l1,1v1h-1c-3-1-3,0-4,2l-2,2h-1v-1l1-2h1v-1l-1,1c-2,0-2,1-3,3h-1c-1-1-1,0-3,2h-1v2c-3,0-3,3-4,5h-1v-5l1-2h-2v-1l1-1c2,0,2-1,4-3l4-2h2v-2zm-141,1h2v1h-2zm15,0h1l1,1v2h-1l-1-2zm57,0h4v1l-1,1h-2l-1-1zm-24,1h1l1,1v1h-1l-1-1zm-18,2h1l1,1v3h-1l-1-3zm8,0h2v1h-2zm35,0h3l1,1v1h-3l-1-1zm-74,1h4v1h-4zm34,0h1v3h-1zm12,0h1v1l-1,1c2,0,2-1,3-2h1l1,1v2h3v2l-2,2h-1v-1l1-1h1v-1l-2,1h-1l-1-1l1,1v1h-1l-2-2v-1v2h-1l-1-1v-1h-2v-1c2,0,2-1,3-2z"/><path d="M86,261h9v1h-9zm22,0h1v1l1-1h1v2h-3zm34,0h1v1l-1,1h-2v-1zm6,0h2l2,1l1,1v1h2l1,1v1h2l1,1v1h2l2,1v1h3l1,1v1h2l10,5l1,1v1h2l4,2l1,1v1h2l1,1v1h2l4,2v1h-4c0-2-2-1-5-1v-1l3-1h-4v-2l-1,3h-1c0-4-1-4-2-5v-1h-2v-1h-3v3h-1c0-5-2-5-4-6v-1l-3,1h-3v-1q3,0-3-1l-1-3v-1l-1,2h-1l-1-3v-1h-2l-2-1l-2-2v-1h-2l-2-1l-1-1z"/><path d="M86,263h1l1,1v1h-1l-1-1zm49,1h4l5,1v1h-5l-4-1zm86,0h1v3h-1zm-140,1h2v1h-2zm5,1h1v1l-1,1h4l2,1v1l-2,2h-1c0-2-1-2-2-3v3h-1l-2-4v2h-1v-3zm35,0h1l1,1v1h-4v-1zm24,0h8v4h-1c0-3-3-2-5-2l-2-1zm-17,1h1l1,1v1h-1l-1-1zm12,0h1v1l-3,3h-1v2l2-2h1v2h2l-2-2v-1h1l2,2c0,2,2,1,3,1l1,1v-1h2l-2-2v-2h4c0,4,2,4,2,2h1c0,3,1,3,2,4v1h2l8,4v1h6v1h-2l3,1c0,2,2,1,3,1l1,2v-3h1l1,4v1h-3l-5-1v-1l2-1l-2,1h-1q0-2-1,2h-1l-1-5v-1h-2l-2-1l-1-1v-1h-2l-4-2v-1h-8v-1l3-1h-4v2c-3,0-2,2-2,8l1-1h1v-3h2l6,1v1q-2,1,1,0h2v1h-2c0,2,2,1,3,1v2c2,0,1-1,1-4h1c0,3,1,3,2,5v1h-13v-3l-1,1h-1v2h-4l-1-1c0-3-2-2-3-2l2,2v1h-7v-1l2-2h-2v2h-1c0-4-1-4-2-7v5h-1l-1-2v2l-1,1h-1c-1-1-1,0-3,2h-4v-2l-2,2h-11l-1-1v-2c2,0,2-2,3-4l-1,1c-2,0-2,1-3,2h-3v-1l1-1h-2v2h-2v4h-2v-5l1-1h1l1,1v-1l1-2h1l-1-2v-1h-2v-1l1-3l4-1h1h-6l-2-1v-1l5-1h1c11,1,11,0,12-1h1v1h-1h8l2,1v1l-1,2h3l-1-1v-1h6c3,1,3,0,7-4zm-21,14h1l2,2v-3l2-2h2v-1l3-3l-1,1h-8l-1-2v-2h-2v4h1l2,1l1,1v2l-1,1l-3,1zm10-4v1l-1,1h-1v2l1-1h1zm1-1v5l1-4l1-3l-1,2z"/><path d="M142,269h1l1,1v1h-1l-1-1zm-51,3h7l1,2l1,4v3c-3,0-3,1-4,4h-1l-1-1c0-4,0-3-1,1l-1,1h-1v2h-1l-1-1v-1l2-2h1v-2h-3v-3l-1,1h-1v-1c1-2,0-2-1-5v-1h1c3,1,3,0,4-1zm-8,1h2v1l-1,1h-1zm78,0h1v3h3v1h-4zm39,1h9v3h4v4h-2l2,2v1l-1,2h-3l-1-1v2h1v1h-5v-3h1l1,1v-1h2v-3h2l-2-1v-3l1-1h-1v1l-1,1h-1l1,1v3l-1,1c-3,0-3,2-4,3h-2l-1-1v-2l1-1h-2v-4c3,0,1-2,1-3z"/><path d="M84,280h2l1,1v1h-3zm72,0h4v1h-4zm17,0h2v1h-2zm-72,5h2v3h-1l-1-1zm-5,1h1v2h-1zm8,0h1v2h-1zm81,1h1v1h-1zm41,0h2v1h-2z"/></g><g style="fill:rgb(144,144,144);fill-rule:evenodd;stroke:rgb(144,144,144);stroke-width:0.1;" id="l3"><path d="M159,6h2l1,1v1h-3l1,1v1l-1,1h-3l-1-1v2h-1v-2l1-1h1c1,1,1,0,2-1h1zm18,1h2v1h-2zm-9,4h1v2h-1zm-32,11h1v2l-2,1h-2v-1c2,0,2-1,3-2zm-7,3h3v1l-3,3h-1v-3zm-3,1h1v3h-1zm85,0h1l1,1v2h-1l-1-1zm1,5h1v5h-1zm-92,1h1l1,4v2h-1l-1-2v3h-1v-2h-2v2h-1v-4h1l2,1v-3zm10,11h4l2,2v1l3-1h1v1h-1h2l2,1v1h-2l-1-1l1,1v7h2v1l-1,1h3v2h3v1h-3l-1-1v-1h-2l-2-2l-1-3c0-6-3-6-5-8v-1h-4z"/><path d="M224,48h1l2,1v1h-2l-1-1zm-111,2h2c0,2,1,1,3,1v1l-2,1h-1l-2-1zm116,1h1c0,2,1,1,2,1v2l-3,1h-1v-3zm-118,4h1l1,1v2h-1l-1-1zm121,0h1v2h-1zm-123,4h4v4h-1v-2h-2l-1-1zm40,1h2l2,1l2,2v1h2l1,2v2h2v2h-2l-1-1l-1-2c0-2-1-2-3-4v-1h-2l-2-1zm84,3h1l1,1v1l-1,1l-2,1h4l1,1v1h-3l-2-1l-1-1v-1l1-2zm-123,1h1l1,1v1l-1,1h-2l2,2v3l-1,2c-2,0-1,1-1,2c-2,0-2,1-5,4c-2,0-2,1-5,4c-2,0-2,1-6,5c-2,0-2,1-4,3c-2,0-2,1-3,2l-2,1c-2,0-2,1-3,2h-1v2l-2,2l-2,1h-2v2l-4,4c-3,0-3,2-4,3c-2,0-2,1-3,3c-2,0-2,1-5,4c-2,0-1,1-1,2l-1,1c-2,0-2,2-1,2v1h-2l-2-1l-2-2v-3l1-4h3v-2c3,0,3-2,5-4h5l-1-1v-1c2,0,2-1,7-6c2,0,2-1,5-4c2,0,2-1,3-3l2-1c2,0,2-1,3-2l2-1h2v-2l6-3h2v-3l3-1h1l1,1v-2l1-1h2v-2c2,0,2-1,6-5h1l-1-3v-1l1-2z"/><path d="M129,65h2v1h-2zm-8,2h1l2,1v1h-2c-1-1-1,0-2,1h-1v-1zm7,0h7l1,1v3l-1,2l-1,1h-1v-1l1-3h1c0-1-2-1-5-2l2,1v2l-3,1h-4v-2h1l3,1v-2h-3v-1zm104,3h4v3h-1l-1-1v-1h-2zm-74,1h3v1l-1,1h4v1l1-1h6l-1-1v-1h1l1,1v1h2l1,1v3h-1c0-3-3-3-3-2l-1,1h-1v2l-1,1h-2l-2-1c0,3,1,3,2,4v1h-3v-1c1-1,0-1-1-2v4h-1l-1-1v-1c-2,0-1,1-1,2l-1,1h-1v2h-2l-1-2v2l-1,2h-1l-2-1v2h-1c0-2-1-2-2-3v-6l2-2h1v1l-1,1l2-1c3,0,3-1,4-2h1l1,1v-1l1-2h3l-2-2l-1-2z"/><path d="M129,74h3v4h-1l-2-1v-1l1-1l-2,2h-2v-1c2,0,2-1,3-2zm57,0h1l2,2v1h-1l-2-1zm-68,1h1l2,2v1h2l1,2v1h-3v-1l1-1h-2v-1l-1,1h-1zm65,0h2l1,2v1l-1,2h-5v-1l1-1l2-1h1l-1-1zm54,0h5v2h-3l-1-1v2h2v2l-1,1h-2l-1-2v-3zm-109,3h2v1l-1,1h-2v-1zm60,0h1v2l-1,1h-2v-2h1l1,1zm-63,1h1v2h-1zm-10,2h1l1,1v1l-2,1h-1v-1zm58,0h1l1,1v1l-1,1h-2v-2zm12,1h2v1l-4,4h-1v-3h1l1,1v-2z"/><path d="M242,82h1v1h-1l1,1v1h-1l-1-1v-1zm-66,2h1l1,1v1h-1l-1-1zm-6,1h1l1,2v1l3-1h1v2l2-2h1v2c-2,0-1,1-1,2h-1l-3-1q-1-1,1,5v1l2-1c4,0,4-1,5-2l4-1h1l1,2v1h2v1c-1,2,0,2,2,8l1,4v4h2v1c-1,1,0,1,1,2c0,2,1,2,3,4c0,2,1,2,2,3l1,3c0,4,1,4,2,6c0,2,1,2,2,3l3,6c0,2,1,2,3,4c0,2,1,1,2,1v1l-1,1h2l2,1c0,2,1,1,5,1l6,2l2,1v3h-4v-3l-1,2h-1l-2-1l-1-1v-1h-4l-2-1c0-2-4-2-3-1v2l-2,1h2v1h-5v-2l1-1l3-1h-2c0-4-2-2-3-2c0-2-1-1-2-1l-2-1c0-2-1-2-2-3v-2c3,0,3-3,2-3c0-3-1-2-3-2c0-9-3-9-4-10l-1-3v3l-1,1h-2l-1-2c0,4,2,4,4,5v2h-1l-2-1l1,2l1,3v4h2v1l-2,2h4v1h-4c-1-1-1,0-3,2c-1,0-1,2-2,5h-1v-3l-1,4l-1,1h-2v-1c2,0,2-5,1-4h-1v-7h-2v-2h-3v-1l1-3h1l-1-1v-2l1-1h-2l-2-2v-1c1-1,0-1-1-2v4l-2,1c-2,0-2,5-1,5v-4h2l2,2v1l-2,1h-2v2l-1,1h-1v2l-2,1h-1v2l-1,1h-1v6h-2v2l-1,1h-1v3h-1l-1-4v-3l1-2h1c0-3-1-3-2-5v-2l1-2h1l-1-2v-1h1v1c2,0,1-1,1-3l1-2h1v-3l2-1h1v-10c2,0,1-1,1-2h2c0-4-4-4-4-3l-4,2h-4l1,1v1l-4,1h1v1c-7,0-7,1-8,2h-2v3c-2,0-1,1-1,2h-1l-1-1v2c-4,0-4,1-5,2c-2,0-2,1-3,2l-4,2h-1c-1-1-1,0-3,2h-1v2h-3l-1-2v-2h1c2,1,2-1,5-4c3,0,3-1,7-5l3-1h3v-3l1-1c2,0,2-1,3-2h1v-3c2,0,2-2,1-2v-1h1l2,1v-2h2l1,1l-1-1v-1h3l-1-1v-1h1l2,1v-2h1l1,3l-1-3v-1l1-2h2v2l-1,1l2-2c3,0,3-2,5-4h1c0-3-2-3-2-1h-1v-2l1-2h2l1,2v-3h-2v-2h2v-2h1l-1-2v-1z"/><path d="M115,86h1l1,1v1h-2zm17,6h5l1,2v2h-1l-2-1l1,1v3h-3l-1-1v-1h-3v-1v3h-1c0-2-1-1-2-1l-1-1v-2l3-1h1l1,1v-2zm-9,2h1v1l-1,3l-2,2l-2,1l-3,1h-3v2h3v1l-3,1h-1v-1q1,0-3-1v-2h1l2,1l-1-1v-1c5,0,5-1,7-2h2v-2h2v-2zm7,5h2v1h-2zm-7,1h1v1l-1,2l-4,4h-1v-1l1-1h1l-1-1v-1c2,0,2-1,4-3zm10,0h1v2l-1,1h-1v-1zm109,0h1v3h-3v-1zm-116,4h2v1h-2zm119,0h1l1,1v2h-1l-1-1z"/><path d="M119,108h1v1l-2,2h-1v-1zm2,5h1v2h-1zm121,2h2l1,1v4l-1,1h-1l-1-1v3l1-1h1v6h-1l-1-1l-1-2v-7h3l-3-1v-1zm-124,1h1l1,1v1h-1l-1-1zm6,0h1v1l-1,1h-1v-1zm-3,3h1v1l-1,2h-1v-2zm1,4h1v3h-2v-1zm-63,2h2l2,1v1l1-1h2l2,2v1l1-1h2v1q-1,0,2,1v1l1-1h1l1,1c0,2,1,1,2,1v1l-1,1h-6l-3-1v-1l-1,1h-1v-1h1c0-2-1-1-2-1l-1-1v-1h-3v-2h-3v-1zm-30,4h1v1c-1,1,0,1,2,3v1h-1l-3-3v-1z"/><path d="M242,129h1v2l1-2h1v2l-1,2h-1l1,1v1c-1,2,0,2,1,3v1l-1,1h-1v2h-1l1,1v1l-1,4h-1c-1-1-1,0-2,1h-1v2c-2,0-2,1-3,2h-2v-1l1-1h1v-2h1l-1-2v-1l3-1c2,0,1-1,1-2l2-1h1c0-2-1-1-2-1v-1l1-1c2,0,1-1,1-10zm-209,8h1l1,1v1h-1l-1-1zm3,4h4v1l-1,1h3v1l-1,1h2l1,1v1h2v1l-1,1h2v-2h1c0,2,1,1,2,1l1,1v1h3l1,1v1h2l8,4l1,2c0,2,1,2,2,3v1h5c0,2,2,2,5,3l2,1c0,2,1,2,2,3v1h2v1h6l1,2v-3h1l1,3v-4l1-1h1v-3l1-1h1v2c-1,1,0,1,1,2v3l-1,3h-1l1,1v7h-1l-5-1l-2-1l-1-1v-1l-3,1h-2l-3-1v-2l-1,2h-1l2,2v1h-1l-1-1v-1l-1,1h-3v-4l-1,2l-1,1h-1l-1-1v-2h1v2c1-2,0-2-1-3v-1l-1,1h-1v-2h-2l-13-13v-1l-1,1h-1v-2l1-1h-2l-1-1v-1l-1,1h-1c0-3-1-3-2-4v-1h-2l-2-2v-2l1-1l-1,1h-1l-2-2c0-2-1-2-2-3z"/><path d="M195,144h3v1h-3zm-102,2h3l1,1v1h2l2,1v3l-1,1h3v1l-3,1h-1c0-3-2-3-3-4v-1h-2l-1-2zm32,0h1v3h-3v-2zm-8,7h1v1l-1,1h-1v-1zm86,0h2v1h-2zm-101,2h2l2,2v1l1-2h4v2l-1,1l-3,1c-3,0-3,1-4,2h-1l-1-1l1,1v1h-1l-1-1l1,1v1l-1,1h-1v2h-1v-2l1-2h-2v-1l2-1h-2v-1l2-2h1v-2zm11,0h2v1l-2,2h-1v-2zm108,0h4v1l-3,1h-2v-1zm39,0h1l1,1v1h-1l-1-1zm-62,2h1l1,1v1h-1l-1-1zm65,0h1l1,1v1l-1,1l2-1h1l3,3l1,2l1,3v-1h1l2,4v2l-3,1h4v1l-1,1h2c0,5,1,5,3,7c0,3,1,3,5,11l1,3v3v-1h1v1l-1,7h-1l1,5v39l-1,10h-1l1,3v3h-2l2,1v6l-1,6l-3,3h-1v2l-1,1l-2,1c-6,0-6,1-10,2h-8l-1-1v-1h-3l-2-1l-1-1l-1-2v-3c1-9,0-9-1-10v-1l2-1h-1l-1-2v-2c2-1,1-1-1-3c0-5-1-5-3-6l-1-4v-1l1-2h-2v-1c1-2,0-2-1-4v-3h-2l-1-3v-5l1-1h-2l-1-6v-1l1-4l1-3l1-1l-2,2h-1v-3c1-2,0-2-1-4v-1c1-1,0-1-1-3v-1c1-1,0-1-1-2v-4l-1,1h-2c0-2-3-2-3-1l-1,1h-1l1,9v1h-2v2c-2,0-1,6-1,7l-2,4h-2l2,1v1h-2l-1-1v-1l-1,1h-2l-1-1v-1l-1,1h-1l-2-1l-1-1c0-2-1-1-2-1l-1-1v-1l-1,1h-1l-1-1v-1l-2,2h-1v-1h1l-1-1v-1l-2,1h-1v-1l1-2l3-1h1v1l-1,1h5l2,1v1l2-1c2,0,1-1,1-3l2-1h2v-2h2v-7l1-2l1-1h1l-1-1v-2h1l1,1l-1-1v-2h1l1,1v-4h8v-3h1v2h4l1,1c0-2-1-2-2-3v-1h2v-3l1-1l2-1h1v-2l2-4l2-1c2,0,1-1,1-2h3v-2h2v-2c3,0,3-2,4-7l1-1h2l-2-1v-1h4l1,1l-2-2v-1zm7,39h1l2,2v7l1-1h3l-1-2v-3h-2v-1l2-1h1v-2l-1,1z"/><path d="M178,158h1l2,1v1l5-1h2v1h-2v2h-4l-1-1v-1h-2l-1-1zm28,0h2v1l-1,1h-4v-1zm-17,2h5v2h-4l-1-1zm-20,7h1v1l-1,1h-1v-1zm-16,1h1v1l-1,1h-1v-1zm-3,2h1l1,1v1l-1,1h-1v-1h1l-1-1zm15,0h1v2h-1zm-17,3h1v1l-1,1h-1v-1zm12,0h2v1l-1,1l-4,2h-2v-1l1-1zm-16,4h1v1l-2,2h-1v-1zm2,1h1l2,1v1h-2l-1-1zm-66,5h1l2,1v1h-2l-1-1zm61,0h2v2h-1l-1-1zm-2,2h2v1h-2zm-56,3h1l1,1v1h-1l-1-1zm4,3h1l1,1v1h-1l-1-1zm40,0h1v1l-5,5l-1,1h-1v-1z"/><path d="M287,201h1v1h-1zm-188,2h1v2h-1zm46,2h1v2h-1zm43,0h3v1h-3zm-90,1h1v2h-2v-1zm7,2h5v1l-2,2h-1l-2-2zm3,1h-1v1h1zm27-1h1v2h-2v-1zm21,2h4l1,1v1h-1l-4-1zm-17,2h1v2h-1zm-31,1h1l1,1v1h-1l-1-1zm40,1h2v1h-2zm11,0h1l1,1v1h-1l-1-1v2h-1v-2zm-61,2h1l1,1v1h-1l-1-1zm7,2h2v2h-1l-1-1zm80,1h1l1,1v1h-1l-1-1zm-3,1h2v1h-2zm-86,1h1v1l1-1h1v1l-1,1h-1l-1-1zm64,0h1l1,1v1h-2v2h-1v-2zm32,0h1v2h-1zm-100,4h1l2,2v1h-3zm25,1h1v1l-2,2h1l1,1v1h-1l-2-2v-1z"/><path d="M201,227h1l1,1v1h-2zm-25,1h1v1l-1,1h-1v-1zm40,0h1v2h-1zm-87,2h1v2h-1zm44,1h1v2h-1zm-32,1h1v1l-1,1h-1v-1zm10,0h1v4h-1l-1-1v-2zm59,0h1v1c-1,1,0,1,2,3v1l1-1h1v1l-2,2h-1v-1c1-1,0-1-3-4v-1zm-11,1h1l1,1v3h-1l-1-2zm7,1h2l1,1v3h-1v-3h-2zm-53,2h1v2h-2v-1zm65,0h2v1l-1,3h-1l-1-2v-1zm-119,1h2v2h-1l-1-1zm61,0h1l1,1v1h-1l-1-1zm-78,1h1v2h-1zm10,1h2v1l-2,1h-1v-1zm3,0h1l1,1l1,2v1l-1,3l-1,1h-1v-5v1l-1,1h-1v-1l2-2h1l-1-1z"/><path d="M113,239h1v4l-1,1h-1v-4zm5,0h1v1l1-1h1v1l-1,1h-2zm61,0h1v1l-1,1h-1v-1zm42,1h1l1,1v1l-2,1h3v2h-3l-1-1v-2zm7,0h2v2h-1l-1-1zm-84,1h1v1l-1,2h-1v-2zm24,1h1l1,2v1h-1l-1-1zm38,0h1v2h-1zm-122,1h1v1l-1,2l-1,1h-1v-2zm142,1h1l3,3v1h-1l-1-1v-1l-1,1h-1zm-22,1h4l2,1v2h-1l-1-1v-1l-2,1h-1l-1-1zm-106,1h1v2h-1zm84,0h1v1l-1,1h-1v-1zm50,0h1v2l-1,1h-1v-1zm-116,1h1l1,1v1h-1l-1-1zm51,1h1v1l-1,1h-2v-1zm2,1h3v1l-3,1h-1v-1z"/><path d="M206,249h3v1h-3zm5,0h1v1l-1,1h-1v-1zm8,0h1v1l-1,1h-1v-1zm14,0h2v2h-1l-1-1zm-11,3h3v1c-1,1,0,1,1,2v1h-2c0-2-1-1-2-1zm-54,4h1v2h-2v-1zm66,0h1l1,2v1l-1,1h-1l1,1v1h-1c-1-1-1,0-2,1h-1v-2l1-3l-1,2h-2l-1-1v-1h1l1,1l-1-1v-1h3l2,1zm-86,1h1v2h-2v-1zm49,1h1v2h-1zm29,0h1v1l-1,1h-1v-1zm-146,1h2v1h-2zm22,0h3v1l-1,1l4-1h1v1l-1,1l-4,1h-5v-2h4l-1-1zm1,3h1v-1h-1zm26-3h2v1h-2zm-16,2h1v2h-1zm-27,1h1l1,1v1h-1l-1-1zm31,0h3v2h-1l-2-1z"/><path d="M131,262h2v1h-2zm22,1h1v1h-1l1,1v1h-1l-1-1v-1zm38,0h1v4h-1zm-60,1h2l1,1v1l-2,2h-1v-1l1-1h1l-2-1zm85,0h1v1l-1,1h-1v-1zm-20,1h1v2h-3v-1zm36,0h1v3h-1l-1-1v-1zm-132,1h2v1l-1,2h-1zm42,0h2v1h-2zm-53,1h1v1l-1,1h-1v-1zm124,0h2v1h-2zm-73,1h1v1l-2,2h-1v2h-1l-1-2v-1h1c1,1,1,0,3-2zm-45,1h2v1l-2,2h-1v-1zm104,0h1v2h-1zm32,0h1l2,2v1h-1l-1-1v4l-2,2h-1v2h-2v-4l1-1h1l1,1l-1-1v-2l1-1h1zm-147,1h2v2h-1l-1-1zm7,0h2v1h-2zm43,3h2v3h-1l-1-1z"/><path d="M200,273h3v1h-3zm-83,1h1l1,1v1h-1l-1-1zm14,0h1v3h-2v-1zm16,0h2v1l-1,1h-1zm-36,1h2v1h-2zm97,2h1v1l-1,3h2v1h-2l-2-2v-1zm10,0h1l1,1v1h-1l-1-1zm-83,1h2v1h-2zm63,0h3v1h-3zm-44,2h2v2h-1l-1-1zm-66,1h1v1l-1,1h-2v-1zm21,0h1v2l-1,1h-1v-1zm109,0h1l4,1v1l-3,1h-2zm-46,1h1l1,1v2h-1l-1-2zm11,0h1v2h-1zm43,0h2v2h-1l-1-1zm-70,1h1l1,1v1h-1l-1-1zm56,1h1c0,2,2,1,3,1l2,1l1,1v1h-8v-1c2,0,1-1,1-3zm-83,1h1v1l-1,1h-1v-1zm13,0h1v3h-1z"/><path d="M220,285h6v2l-1,1h-1v-2c-2,0-1,1-1,2h-2l-1-2zm-58,1h2l1,1v1h-1l-2-1zm16,0h1l4,1v1h-4l-1-1zm-89,1h1v1h-1zm14,0h1v1h-1zm45,0h2v1h-2zm25,0h2v1h-2zm17,0h1v1h-1z"/></g><g style="fill:rgb(184,184,184);fill-rule:evenodd;stroke:rgb(184,184,184);stroke-width:0.1;" id="l4"><path d="M164,7h1v1l-1,1h-1v-1zm21,1h2v2h-3v-1zm-20,2h2v1l-1,1h-1zm-22,3h1v2h-1zm69,16h1l1,1v2h-1l-1-1zm-89,1h1v2h-1zm-7,1h3v4h-1l-1-1l1,1v1h-1l-1-1zm97,4h3l2,1l2,1l1,1v1h-1l-4-2v-1l-1,1h-2zm-95,2h1l1,2v1h-1l-1-1zm-4,4h1l1,1v1h-1c-1-1-1,0-2,1h-1v-1zm108,2h2v3h-1l-1-1zm-92,1h3l1,1v1h-1l-3-1zm-4,2h1v1l-1,1h-1v-1zm8,1h3l2,1v3c-1,2,0,2,1,4c0,3,2,3,3,4v1h4l1,1v1h5l1,1c0,2,1,2,3,4l1,2v1h-3l-1-1v-1h-3v-1l1-1l2-1h-3l-2-1l2,1v1h-2l-1-1c0-1-2-1-2,5h-1l-3-1v1h-3v2l-2,1h-1v-2l1-4h-8v-1l2-1l4-1h1l-1-3v-3l1-1h2l-1-1l-1-2v-3l2-1h-2v-2h-2z"/><path d="M119,48h1l1,2v2h-1l-1-2zm108,2h4v2h-3l-1-1zm7,1h1v2h-1zm-118,1h3v2l-1,1h-1l-1-2v3h-1v-3zm114,2h1l1,1v3h-1l-1-1zm3,1h1v3h-1zm-123,2h1l1,1v2h-1l-1-1zm133,0h1l1,1v1h-1l-1-1zm-9,2h1l1,1l1,2v1h3v1h-2c0,2,1,1,2,1v1l-1,1h-1l-1-1v-2l-2,2h-1v-1c1-1,0-1-1-2v-1l1-1h1h-2v-1zm-126,3h1l1,5v1h-1l-2-1v-4zm16,3h3v1h-3v2h-1v-2zm-9,2h1v3h-1zm-9,1h2v2l-5,5c-2,0-2,1-5,4c-2,0-2,1-3,2h-3v2l-3,1c-3,0-3,1-4,3c-2,0-2,1-3,2c-2,0-2,1-3,2c-2,0-2,1-4,3c-2,0-2,1-3,2c-2,0-2,1-4,3c-2,0-2,1-4,3h-1v2l-2,1h-3l1,1v1c-3,0-3,1-4,2h-2v2l-3,1h-3l2,1v1h-2v2l-1,1h-1l1,1c0,2,1,2,3,4c0,1,2,1,5,2l2,1l1,1v2h4v1c-1,2,0,2,2,3l1,1v1h7l2,1l1,1v1h3l1,1v1h2v1l1-1h1v1l-1,1h1l2,1v3l1-1h1l1,1v1c-1,1,0,1,1,2c0,2,1,2,3,3v2h2v1l-1,1h4l1,2v-1h1v1l-1,1h-1v2l-2,1h-1l1,1v1l1-1h1v1l-1,2h-1l-1-2v2h-1c-1-1-1,0-3,1h-2c0-2-3-2-2-1v1h-2v-3l-1,2h-1v-2l1-1h-3l-3-1l-1-1v-1h-2l-4-2l-1-1l-1-2v-1h-3l-6-3l-1-1v-1h-2l-1-1v-1l-1,1h-1l-1-1v-1h-2l-2-2v-1h-2l-1-1v-1h-2v-1l-2,1h-1l-2-1c0-2-2-2-4-3v-1l-1,1h-1v-1l1-5l-1,1h-1l-1-3v-1l-2,1h-1v-1c1-1,0-1-1-3v-1h1c1,1,1,0,3-2l2-1h2v-2l2-1h2v3c-3,0-3,6-4,11h2c0,2,1,1,2,1l4,1c0,2,2,1,8,1l5,1l-4-1v-2c1-3,0-3-4-7v-1h-2c0-3-2-3-4-4l-1-1l-1-2v-2l1-2l3-1h2v-2l1-1c2,0,2-1,3-2c2,0,2-1,4-3c2,0,2-1,3-2h2v-2c2,0,2-1,4-3l3-1c2,0,2-1,3-3l2-1c2,0,2-1,3-2c2,0,2-1,3-2l2-1c2,0,2-1,5-4l4-2c2,0,2-1,5-4h1c1,1,1,0,4-3h3v-2c3,0,3-1,4-2c2,0,2-1,3-2z"/><path d="M237,68h2v2l1-2h1v2l-1,1h-1l-2-1zm-90,2h5l5,1v1h-2c0,2,1,1,3,1v1h-2v2l-1,1h-10l1,1v1l-1,1c-2,0-2,4-3,7l-1,1h-1v2h-1c-3-1-3,0-5,1c-4,0-4,1-5,2l-4,2h-3v-3h1c2,2,2,1,4-1c3,0,3-1,4-2l2-1c2,0,2-1,3-2h1v-2l1-1c2,0,1-1,1-3l1-2c2,0,2-1,3-2l2-1h1h-4v-1l3-3zm94,1h1v1l-1,1h2v1h-2l-1-1v-1zm-107,2h1v2l-1,2l-1,1h-1v-1l1-3zm38,1h2v7h-1l-1-3v-3v2h-1v-2z"/><path d="M242,75h1l1,1l1,3v1h-2l-1-1zm-63,2h2v2l-1,1h-2v-1zm-49,1h1v2l-1,1l-4,2h-4l-3-1l-1-2v-1h2l1,1v1h4c1,1,1,0,2-1c2,0,2-1,3-2zm4,0h2v1h-2zm36,0h1l1,1v2h-1l-1-2zm16,0h1v1l-2,4l-2,1h-1v-2l1-2c2,0,2-1,3-2zm54,0h1v2l-1,1h-1v-1zm-125,1h1l1,2v1h-1l-1-1zm61,2h5v6l-1,1h-4v-1l1-1l2-1h1l-1-2v-1l-1,2l-2,1h-1v3h-3v-3h1l1,2l-1-2v-1h1l1,1v-2c2,0,1-1,1-2z"/><path d="M242,81h1l2,1v1l-2,1h1l1,1l1,2c0,7,1,7,2,8v1h-1l-1-1l2,2l1,3v3l-1,1h1v2h2l1,1v1l-1,2h-1l1,2v3l-1,1h-1l1,2v2c-2,0-1,2-1,9l-1,2h-1l1,2v3c-1,1,0,1,1,3v1l-1,1h-1l1,1v1l-1,2h-1l1,1v2l-1,2l-2,1h-6v-1c4,0,4-3,5-5c2,0,1-1,1-5l2-2h1h-3v-7l1-2h1h-2v-7l1-1h1l-1-2v-1l1-1h1v-4c1-1,0-1-1-3v-3l1-4l-1,1h-1v-2c1-2,0-2-1-3v-6c1-2,0-2-1-5v-1l1-2l-1,2h-1z"/><path d="M112,90h1v1l-2,2h-1v-1zm45,3h1l1,2v1h-1l-1-1zm-32,4h1v4l-3,3h-1v-1zm-9,1h2v1h-2zm-5,1h3v1c-3,0-3,1-4,2h-1c0,2,1,2,3,4v1h-1l-3-3v-2zm18,0h1l1,1v1h2v1l-1,1h-1l-2-1zm17,0h4v3c-4,0-2,2-2,3h-1l-2-2v-1h-2l2,2v2h-4v-4l2-1h2c1,1,1,0,2-1h-1zm-12,1h3v2h2l1,2v3c-2,0-1,1-1,4h2v3l-1,1h-1v4h-2v3c-2,0-2,1-3,2c-2,0-2,1-3,2c-2,0-2,1-6,5h-2v-1c2,0,2-2,3-4h1l1,1v-1l1-2h2v-2c2,0,2-1,3-3h1l-1-3v-1l1-4h1l-1-1v-5l2-2h-3z"/><path d="M149,103h1v2h-1zm109,2h1v5h-1zm3,0h1v2h-1zm-142,1h1l1,1v1c-3,0-3,1-4,2h-1l-1-1v-1h1c1,1,1,0,3-2zm22,1h2v1l-1,2h-2v-1zm-9,1h1v1l-2,2h-3l-1-1v-1h3c1,1,1,0,2-1zm130,0h2v1l-1,1h-1zm-138,2h2v1h-2zm3,2h1v3h-1l-1-1l1,1v3l-1,1h-1l-1-1v-1l-1,1h-3v-1l2-2h1l2,2l-2-2v-1h1c1,1,1,0,3-2zm117,0h1l1,1v1h-1l-1-1zm-61,2h2v1h-2zm-102,8h1v1l-1,1h-1v-1zm1,13h1l2,1l1,1v1h2v2h-3v-1l1-1l-1,1h-1v-1l1-1l-2,1h-1zm37,1h2v1c-2,0-2,1-3,2h-1v2h-1v-2z"/><path d="M251,137h2v1l-2,1h-1v-1zm-162,2h1l2,1l2,2v1h-2l-2-1l-1-2zm86,2h1c0,2,1,1,2,1v4h-1c-3-1-2,0-2,5h2v3l-2,1h2v1l-1,1h2v1l-1,1h-1v2l-1,1h-1h2v1l-1,1l1-1h3l-2-1v-1c2,0,1-1,1-2h1c2,1,2,0,4-1h2l-2-1v-1l4-1h1c0,3,1,3,2,4v1h-1l-3-1l2,1v1h-2l-2-1c-1-1-1,0-3,1c-2,0-2,1,7,1c8,1,8,0,12-1l10-2l8-1h1l1,1v-2h3v1l-1,1h-1v2l-2,2h-1c-1-1-1,0-2,1h-2h3v1l-2,2h-1l-2-1l2,2v1l-3,3h-2l-1-1l2,2v1l-1,1c-2,0-2,2-3,5l-1,1h-1v2l-2,2c-2,0-1,1-1,2c-2,0-2,1-3,4h-1l-1-1l1,1v2h-1v-1v3c-3,0-3,1-4,4l-1,2l-1,1h-1v2c-2,0-1,1-1,3l-1,2l-1,1h-1v-1l1-2h1v-1l-2,2h-6c0-2-2-1-3-1l-2-1v-1l-5,1h-3c0-2-3-1-4-1l-2-1l1,1v1h-3l-2-1v-1h-6v-1l1-1h5h-2v-1h2l1,1v1h2l1,1l-2-2v-1h5l1,1v-3h4l1,3v-2l1-2h4l1,1l1,3v-1l2-1h1l-1-1v-1h4v-3c2,0,2-1,3-3l2-2h1v-2h2c0-2-2-1-4-1v-3v2l-2,1c-2,0-1,1-1,2l-3,1h-3v-1l3-1q1,0-4-1l-2-2v-1h-4l-4-1v-1l-1,1h-3v-4c2,0,1-1,1-2l1-1h-2v-1h2l2,1l-2-2v-2h1v2l2-4l1-1h3v1l-1,1h-1l-1-1l1,1v1l-2,1h1c1,1,1,0,2-1l3-1h2c1,1,1,0,5-2h3c1,1,1,0,3-1h-3l-4-2v-1l-2,1h-2v-2v3h-1c-1-1-1,0-2,1h-1v-1l1-1l-2,1h-1v-2v1l-1,1h-1v3h-4v4h-1l-1-2v-1l-1,1h-1v-2l-1,2l-1,1h-1v-1c1-1,0-1-1-2v-2v4h-1l-1-1l1,2v1h-3l1,1v1l-1,1h-1l1,1v1h-3l-1-1v-2h4l-1-1v-1l1-1h1c0-2-1-2-1-1l-1,1h-1v-1l1-1h1v-2h1c1,1,1,0,3-2l2-1h4v-2h2h-3v-5l1-3h2l1,1v-1l1-2c3,0,3-5,4-8l1-1h2v-3h1c1,1,1,0,2-1z"/><path d="M96,144h1v2h-1zm2,1h1l6,3l1,1v1h2v1h3l2,1c0,2,1,1,2,1v2c-2,0-2,1-3,2h-1v-1l1-1h1h-5v-1l1-1h-2v-2h-2l-1-1v-1h-2v-1l-1,1h-1v-2h-2zm113,3h2v1l-2,1h-1v-1zm-88,1h1v1l-1,1h-1v-1zm80,0h1v1l-3,3h-1l1,1v1l-1,2l-2,1h-1l-1-2v1h-2l2,1v1h-5v-2h3v-3h4l2,1l-1-1l-1-2v-1l1-1h2c1,1,1,0,2-1zm1,2h3c0,3,1,2,10,2v1l-2,2h-1v-1l1-1h-7c0,2,1,1,4,1v1c-2,0-2,1-3,2c-5,0-5,1-9,2h-2v-1c2,0,2-1,4-3c2,0,2-1,3-2h1l-1-1v-1l-2,2h-1v-1z"/><path d="M213,151h2v1h-2zm34,0h1v2h2v1l1-2h3v1l-1,1h2l1,1v1l-1,1c-1,0-1,3-2,7l-1,3c-2,0-2,1-3,2h-1v2h-1c-2-1-2,1-4,3h-1l-1-1v3c-2,0-2,1-4,3h-1v2l-2,2h-1v3l-1,1h-2v-1l2-2l-2,1h-1v2h-2q-1-2,0,0v1l-2,1h-2v2h-1v-2c-2,0-1,2-1,5h-2v-1l1-1h-3l1,1v1l-1,3h-1l1,2v1l-1,1h-1l-2-1v4l-1,1h2v1l-3,1h-1l1,2v1h-2v2h-6l-1-1l1,1v1l-1,1h-1v-1l1-1c-2,0-2,1-3,2h-1l-2-1l1,1v1l-2,2h-1l-1-1v-1h1l1,1v-3l1-1l3-1h-1v-1l3-1h2v-3h2v-3c2,0,1-2,1-4h3l-1-1v-1h-2v-1l1-1h1l-1-1v-1l1-1h1v-1l-2,2h-1v-1l1-5l2-2h1v-2l4-4h1l-1-1v-1h2v2l-1,1l1-1h2v-2h1v3l-1,1h6v-3h3v-2c3,0,3-1,4-2h-2v-1h2l1,1v-2l3-1c2,0,2-1,4-3h1v-2h1c1,1,1,0,2-1c3,0,2-2,2-3c3,0,2-1,2-3h-2c0-2-6-1-7-1l-1-2v1l-1,1h-1v-1l1-1h-3v2h-1v-2l1-1h1v-2l2-1h9v2h2z"/><path d="M45,153h1l1,1v1h-1l-1-1zm214,1h1v1h-1l1,1v1h-1l-1-1v-1zm-100,1h1v3h-1zm68,0h1v2h-1zm-3,1h2v1l-1,2l-1,1h-1v-1zm0,6h1v1l-1,1h-1v-1zm-133,4h1v1l-1,1h-1v-1zm-32,1h1l4,4v1h-1l-4-4zm160,2h1l1,1v1h-1v-1l-1,1h-1v-1zm-74,8h1v3l-1,1h3v1h-4l-1-2v-1h1l1,1l-1-1v-1zm-73,2h1l3,3v1h-1l-3-3zm206,0h1v2h-1zm-137,1h1v2l-3,3h-1v-2l1-1h2zm4,3h1v1l-1,2l1-1h1v3l-2,2h-1v-1l1-1h1l-2-2v-2zm-13,4h1v2h-1zm154,3h2v8h-2l-1-2v-5z"/><path d="M287,199h1v1h-1zm-194,4h1v2l-1,1h-1v-1zm3,1h1l1,2v1h-1l-1-1v2h-1c0,4,1,4,2,6v1h-1l-1-1l-1-2v-4zm12,2h1l1,1v1h-2zm-6,2h1l2,2v1h-1l-2-1zm-12,2h1v1l-1,2l-1,1h-1v-2zm16,0h1l2,1v2h-1l-2-1zm82,0h1l1,1v1h-2zm-90,1h1l1,1v1l-1,1h-1zm61,1h3v1l-2,1h-1zm6,1h1v1l-1,1h-1v-1zm-27,1h1l1,1v1l-1,2l1-1h1l1,1v1h-3l-1-1v2l-2,2h-1l-5-1v-1h5l1,1l-1-1v-1h1l1,1v-3l2-2h-1zm8,0h1v2h-1zm16,0h1v3h-1l-1-1v-1z"/><path d="M110,215h1v2l-1,1h-1v-1zm40,0h1v1l-2,2h-1v-1zm-48,1h1v2h2v1h-2l-1-1zm9,2h1v2h-1zm3,1h1v2h-1zm86,0h2v2h-1l-1-1zm-103,1h1l1,2v1h-1l-1-1zm69,0h1l1,1v1h-1l-1-1zm-55,2h1v2l-1,1h-1v-1zm96,0h1l1,2v1l1-1h1v3h-1l-1-1v2h-1c0-3-2-3-2-2l-1,1h-1v-1l1-1h1v-2zm-72,1h1l3,1v2h-1l-4-1v-1zm-36,1h2v3h-1l-1-2zm7,0h1l1,1v1h-1l-1-1zm42,0h2v1h-2zm-44,1h1v2h-1zm-10,1h2l3,3v1h-3c0-2-1-2-2-3zm61,0h1l1,1l1,2v1h-1l-1-1l-1-2zm11,0h2l1,1v1h-1l-2-1z"/><path d="M109,228h1l1,1v1h-1l-1-1zm38,1h1v1l-2,2h-2v-1c2,0,2-1,3-2zm-61,1h2v1h-2zm24,1h3l1,1v2l2-2h1v1l-1,2h-4l-1-1v-1h1l1,1v-2h-3zm70,0h1l1,1v1h-1l-1-1zm16,0h1v1l-1,2h-2v-1zm6,0h1v1l-1,3h-1v-3zm15,0h1l1,1v1h-2zm-88,1h1l3,1v1h-3l-1-1zm23,0h1v1l-1,1h-1v-1zm3,0h1v1l-1,1h-1v-1zm8,0h2v1h-2zm42,0h1v4h-1l-1-1v-2zm-36,1h1l1,1v1h-2zm42,0h1l2,2v1h-1l-2-2zm10,0h3v1h-3zm-94,1h1l1,1v1h-2zm-38,1h1v4h-1zm137,0h1l1,1v1h-1l-1-1z"/><path d="M164,236h1v2h-1zm9,1h2v1l-1,2h-1zm-45,1h1l1,1v1h-1l-1-1zm41,0h2v1h-2zm52,0h1l1,1v1h-1l-1-1zm-109,1h5l1,2v3h-1l-1-3v-1h-2v2h-1l-1-2zm98,1h1v1l-1,1h2v1h-2l-1-1v-1zm22,0h1v1l-1,5h-2l2,1l1,1v1h-1l-2-1v-1l-1,1h-1l-1-1v-1h1l1,1l-1-1v-4h1v4l1-3l1-2zm-144,1h1v3h-1zm43,0h2v1l-1,1h-1zm20,0h1v3h-1zm51,0h5v4h-1l-2-2v-1h-2zm-117,1h1v2l-1,1h-1v-1zm95,0h1v1l-1,1h-1v-1zm-6,1h1l1,1v1h-1l-1-1z"/><path d="M113,244h2v1l-2,1h-1v-1zm88,0h2v1h-2zm13,0h2v1l-2,1h-1v-1zm6,0h1l2,1v1h-3zm-141,1h1v4h-1zm110,1h1v2l-2,2h-1v-1l1-1h1zm36,0h1v3h-1zm-63,1h1v2h-1zm21,0h3v1l-2,2h-1zm17,2h2v1c-2,0-2,1-3,2h-1v2l-1,1h-2v-4h2l1,1l-1-1v-1h1c1,1,1,0,2-1zm29,0h2l1,1v1l-1,1h-2v-1h1l-1-1zm-151,1h1l1,4v-1h1v1l-1,1h-1l-1-1zm138,1h1v2h2c0,2,1,1,2,1l1,1v1h-5v3c-2,0-2,1-3,2h-1v-1l1-1h1c0-3-2-2-3-2v-1l1-1h2l1,1l-1-1v-2z"/><path d="M148,252h2v2h-2zm58,0h2v4c-1,1,0,1,1,2v1l-1,1h-1l-1-3v-1l-1,1h-1v-2l1-2zm-51,1h1c0,2,2,1,3,1v1l-1,1h-3zm70,0h1l2,2v1h-2l-1-2zm3,0h1l1,1v1h-1l-1-1zm-144,1h2l1,1v1h2v1l-1,1h-1c0-2-1-2-3-3zm9,0h2v1h-2zm4,0h2v1c-2,0-1,1-1,2l-1,2h-2v-1l1-1h1l-1-1v-1zm23,0h1v1l1-1h1v1l-1,1h-1l-1-1zm24,0h2v1h-2zm55,0h4v4h-2l-1-1l-1-2zm-117,1h1l1,1v1l-1,1h-1v-1h1l-1-1zm109,0h1v1l-1,1h-1v-1zm-113,1h2v1l-1,1h-1zm116,0h3v1h-3zm-83,1h3v1l-2,4h-1z"/><path d="M138,257h1l1,1v1c-2,0-1,1-1,2h-1l-1-1v-1zm43,1h2l2,2v1h3l1,5v1h-1l-2-2v-1h-2v-1l-1,2h-3v-1l1-1h1c0-2-1-2-2-3v-1zm46,0h1l1,1v1h2v-2h1v3l-1,2l-2,1h-1v-4v5l-3,1h-1v-1l2-4h1zm-64,1h1v4l-1,2h-1v-4zm13,0h1v2c-2,0-2,1-4,3h-4l-2-2v-1h1l1,1l-1-1v-1h2c4,1,4,0,6-1zm-46,1h1v1l1-1h1v1l-1,1h-1l-1-1zm23,0h2v1h-2zm38,1h1l2,1l1,1v3h-1l-2-1l-1-2zm2,3h1v-1h-1zm29-3h1v1l1-1h1v1l-1,1h-1l-1-1z"/><path d="M220,262h1v2h-1zm-3,1h2l1,2v2c-1,2,0,2,1,3v1h-4v-1l1-1h-2l-1-1v-1h1l1,1l-1-2v-1zm-70,1h1v2h-1zm62,1h2v2h-2v3h-2l2,1v2l-2,1h-4v-1l1-1h1l2,1v-2h-2v-1l1-1c2,0,2-2,3-4zm-126,1h2v1h-2zm57,0h2v1h-2zm52,0h1l1,1v1l1-1h1v2l-2,1h-1v-1l1-1h-3v-1zm-36,1h1v5h2v1l-2,2h-2l-1-1v-2c2,0,1-3,1-4zm-72,1h1v2l-1,1h-1v-1zm101,0h2v3h-1l-1-2zm15,0h2l2,1v1l-1,2c-2,0-2,1-3,3l-1,1h-1l1,1v1l-1,3c-1,2,0,2,1,3l1,3v1h-1l-4-1v-5l1-1h-2v2l-2,2h-1v-1c1-2,0-2-1-3v-1l3-1h-4v-1l2-2h3c1,1,1,0,2-1h1l-1-1v-1l1-1h1v-3h1v2l1-1l2-1h-2z"/><path d="M212,268h1l1,1v1h-1l-1-1zm11,0h3v1l-1,1h-3v-1zm-77,1h1l1,3v1h-1l-1-1zm32,1h1l1,1c0,2,1,1,2,1v1l-1,1l1-1h1l1,1v1h2v1l-2,1l2-1h1v2l-2,1h-1v-2h-2v2h-1l-1-2v-1l1-2l-1,2h-1l1,1v1h-1l-2-1v-3l1-1h-2l-4-1v-1h7h-1zm33,0h1v4c-2,0-1,1-1,2l-1,1h-1v-3zm-112,1h1v1l-1,2h-1v-2zm34,0h3v1h-3zm-48,1h1v2l-1,1h-1v-1zm79,0h2v1h-2zm5,0h2l1,1v1h-1l-2-1zm50,0h1l3,1v4h-1c-2-1-2,0-4,1h-1l1,1v3h-1l-1-1c0-2-1-1-2-1v2h-2v-1l1-3l2-2c2,0,2-1,3-2c2,0,1-1,1-2z"/><path d="M160,273h1v2l-1,2h-1v-2zm14,0h1l1,2v1h-1l-2-1v-1zm15,0h1v1l-1,1h-1v-1zm2,0h1l1,1v1h-2zm-105,2h1v4h-1l-1-1v-2zm27,0h2v1h-2zm57,0h2c0,2,1,1,2,1v1l-1,1h-1v2l-1,1h-5v-1l1-1l2-1l-4,2h-1v-1l1-1l-1,1h-1v-2h2l2,1v-2zm-19,1h2v2l-1,1h-1v2h-2l-1-1v-2l1-1h1l1,1zm-30,1h1v2h-1zm-39,1h1l1,1v1h-1l-1-1zm77,1h2v1h-2zm42,0h2v1h-2zm-101,1h2l1,2v1h-1l-2-2zm24,0h2v1h-2zm38,0h1l2,1l3,3v4h-1v-2h-2v-3l-1,1h-1v2h-1z"/><path d="M177,280h2v1h-2zm-65,1h2v1l-1,1h-1zm33,0h1v2h-1zm37,0h1v1c-1,1,0,1,1,2v4h-1l-1-1v-2c1-1,0-1-1-2v-1zm-12,1h2v1h-2zm-43,3h1v2h-1zm51,0h3v1l-1,1h-1l-1-1zm35,0h1v1l-1,1h-1v-1zm-93,1h1v2h-2v-1zm89,0h1v2h-1zm-124,1h1v1h-1z"/></g><g style="fill:rgb(167,167,167);fill-rule:evenodd;stroke:rgb(167,167,167);stroke-width:0.1;" id="l5"><path d="M168,6h2v1h-2zm6,0h2v3h-3v-1zm-12,1h1v2h-3v-1zm31,1h1l1,1v1h2v1h-2l-2-2zm-45,1h1v1l-1,1h-1v-1zm4,0h3v1h-3zm11,1h2v2h-1l-1-1zm-14,1h5l1,1v3l-1,1h-1v-1l1-3h-5zm-2,5h2v1l-1,1h-1zm-16,8h2v1h-2zm76,0h1l2,1v1l-1,1h-1l-1-2zm-83,3h1v3h-2v-2zm-7,10h1v2h-1zm99,0h2l4,4v3h-1c0-3-1-3-3-5v-1h-2zm-102,2h2v1l-1,1h-1zm0,3h1v2h-2v-1zm15,2h1v1l-1,1h-1v-1zm4,0h1l2,2v1h-1l-2-2zm92,0h1v1l-2,2h2v2h-1l-1-1v-1h-2v-2h1c1,1,1,0,2-1z"/><path d="M137,47h2v1h-2zm2,2h1v6h-1l-1-2v-2zm92,2h1v1l-1,1h-1v-1zm-112,2h1v1l-1,1h-1v-1zm112,1h2v1h-2zm-92,2h2l1,1v1h2l1,1v1h-2l-1-1v-1h-2l-1-1zm91,1h1l1,1v2l-1,1h-1zm-83,3h2l2,1v1h-3l-1-1zm-38,3h1v2h-1zm45,1h1l1,1v1h-1l-1-1zm-39,1h1v2h-1zm12,0h2v1h-2zm108,0h1l2,2v1l-2,1h-1v-1l1-1l-1,1h-1l-2-1v-1zm3,0h1l1,1c0,4,1,4,2,6v1h-1l-2-1v-1c1-1,0-1-1-5zm-116,1h1v2h-1zm2,1h4v1c-2,0-2,1-3,2h-1zm11,0h2v4l-1,2h-1z"/><path d="M108,68h1v3l-5,5h-2v2c-2,0-2,1-3,3h-4v-1l1-1c2,0,2-1,5-4l2-1h1v-1l3-3h1zm49,3h1l1,1c0,2,1,2,2,3v1c-3,0-3,2-4,3h-1c-1-1-1,0-2,1l-3,1c-4,0-4,6-3,6l1,1v2l1-2h2l1,1v-2l1-2h1v2h2v-2l1-1h1l-1-1v-1h2l2,2l-1-1v-2l1-1l-1,1h-2v-2h3l2,2v-3h2c2,1,2,0,3-2l2-2h1v1l-1,3l-1,1h1c0,2,1,1,2,1v5l-1,2h-1c0-2-1-1-2-1l1,1v2l-1,2h-2v2h2v3l-1,3l-2,2h-1v2c-3,0-3,1-4,2h-1v-1l1-2h-2v6h-1c0-3-1-1-3-1l-1-1l1,1v1h-3l1,1v1h-1l-2-1v2h-2v2h-2v3l-2,2l-2,1h-1l1,1v1l-1,1l-3,1c-3,0-3,1-7,5c-3,0-3,1-4,2c-1,0-1,1-2,3h-2l-2-1v-1c4,0,4-1,8-5c2,0,2-1,3-2c2,0,2-1,3-2h2v-3h2v-4l1-1h1v-3h-2l-1-3v-1c2,0,2-3,1-3v-2h-2v-2h-3v-1h2l-2-2v1h-1v-1l1-1h1l1,1l-1-1v-1h2l1,1l-1-2c0-2-5-2-5-1h-2v2h-5v-1l2-1c2,0,2-1,3-2c4,0,4-1,6-2h3l1,1v-2l1-1h1v-3h1v-4c2,0,1-1,1-2l1-1c10,0,10-1,11-3l2-1c-2,0-2,1-3,2h-1v-1l1-2zm-14,30v1h2v-1zm-2,9l1-2l1-1h-2v2l-1,1zm5,0h1v1h1v-1zm4-5v-2h-1v2zm18-11h-2v2h2zm-2-12h-1l-1-1v1l-1,1h3zm-16,17h-2v1l-1,1h1l2,1l-1-1v-1zm0-19v-1h-1v1zm-7,26h2v-2h-1l-1-1v-1h-2v4zm3-2h1l1,1l-3-3l1,1zm13-10h-1v-1h-1v2h1v-1zm-12,8v-1h-1v1zm-1-23v-1h-1v1zm13,16h-1v1h1zm-13,5h1v-1h-1zm19-4v2h1v-2z"/><path d="M236,71h2v2h-2zm-119,3h1v2h-1zm15,0h1v3h-1zm-36,1h2v1l-1,1h-1zm143,0h1l1,1v2h-3v-2zm0,2h1v-1h-1zm-54-1h1l2,1v3h-1c0-2-1-1-2-1zm-4,1h2v1h-2zm-62,1h1l2,1v1h-2l-1-1zm63,1h1v3h-1c-4-1-4,0-5,1l-2,1h-1v-3h2c1,1,1,0,2-1zm-56,1h1v1l-1,1h-1v-1zm-34,1h2v3l-6,3h-2v2l-2,1c-2,0-2,1-3,2l-2,1h-2v2l-1,1c-2,0-2,1-5,4c-2,0-2,1-7,6l-2,1h1v1l-2,1h-2c-1-1-1,0-2,1h-1v2h-3v2c-3,0-3,4-4,7h1l1,1v1h2v1h-2l-2-1l-3-3l-1-2v-1l1-1h1v-2h2l-2-1v-1l3-1h3v-2c2,0,2-1,3-2h3l-1-1v-1l3-1h2v-2l3-3c2,0,2-1,4-3c2,0,2-1,3-2c2,0,2-1,4-3c2,0,2-1,3-2c2,0,2-1,3-2h2v-2l1-1l3-1h3z"/><path d="M152,81h1v2h-1zm33,0h2v1h-2zm-37,2h1v2h-1zm35,0h1v2l-2,2h-1v-2h2zm60,2h1v2c-1,1,0,1,1,4v2h-1l-1-2l-1-3v-1zm-66,2h1v1l-1,1h-1v-1zm-62,1h1v1l-1,1h-1v-1zm5,4h2v1h-2zm124,3h1v1l1-1h1v1l-1,1h-1l-1-1zm-139,1h1v1l-1,1h-1v-1zm22,1h1v1l-1,1h-1v-1zm-9,1h2v1l-4,2h-5l1,1v1h-2v-2l1-1l3-1zm62,1h1l1,1v3l1-2h1l1,2c0,2,1,2,3,3v1c-1,3,0,3,1,7v1l-1,4h2v1c-2,0-1,1-1,2l-1,2h-1v3h-1v-2l-1,2h-1v-3h-3l-1-1v-1l-1,1h-1l-1-1v-1l1-2l-1,1h-1v-1c1-1,0-1-1-5v-1c2,0,2-3,3-5l1-1h1l-1-1v-3zm5,15h-2v1h2zm-3,8h-1v1h1z"/><path d="M131,100h2v1h-2zm114,0h1v2h-1zm1,3h1v2h-1zm-121,1h1v1l-1,1l-2,1h-2v-1zm122,3h1l1,3v1h-1v-1v3l-1,4h-1l1,1v1l-1,2l-1,1h-2v-1l2-2h1l-1-1l-1-2v-2h2l-2-2v-4h1l2,2zm-129,1h1v1l-2,2h-1v-1zm10,1h1v1l-1,1h-2v-1zm-39,3h1v1l-1,1h-1v-1zm153,5h2v1h-2zm-122,1h2v1l-1,1h-1v3h-1v-4zm3,0h2v2l-1,3h-1zm71,4h1l1,3v1l1-1h1l1,1v9l2-1h1l2,6v1h-1c-3-1-3,1-2,1l1,1v2h4v2l2-2h1l1,2v3l-2,1c-2,0-2,1-3,2h-1l-1-1v1l-2,4h-1v-2h-2v-1c-4,0-4,3-2,3l-1-1v-1h1l1,1l1,3v1l2-1h3l2,1v1l-5,1h1v1h-5h1l1,1v1h-3v-1l1-1h-8v-1c6,0,6-1,7-2h-3v-2h1l4,2c0-1-1-1-3-2v-1h-3v2h-2v2h-1v-2c1-1,0-1-1-4v1h-4l2,1v1c-2,0-1,1-1,2h-1l-4-1l-1-1l1,2v1h-2v2h-1c-1-1-1,0-2,1h-1v-1l2-2h1v-2l1-1h1l-2-1v-1l1-1h-2v-1h2v-3h-2l-1-5v-1h3l1,1v-4l-1,1h-1v-2l-2,2h-1l-1-1v3c-2,0-2,1-3,4h-1l1,1v1l-1,3l-1,1h-1l-1-1v2l-1,1h-1c-2-1-2,2-3,4h-1v-3l1-2h1v-3l1-1h1v-2h2v-6l1-1h1v-2l1-1h2v-2l1-1h1l-1-2v-5l2-1h2v-4h1l1,1v1c-1,1,0,1,1,2v1h2v4l-1,3l-1,1h3v2h2l1,3v1l-1,3l1-1h1l1,5v-4h1l1,3v-3l1-2l5-5h1l-2-1c0-4-1-4-2-7v-2h2l1,1c0-2-2-2-4-3v-4h1c0,2,2,2,2,1zm-11,29v1h2v-1zm-11-20v4l2-1h2l-2-2v-1zm30,21h-2v-1l1-1l-2,1h-1l1,1v2l2-2zm3-2h-1l-1-1v1l-1,1l1-1zm-4,4h-1v1h1zm4-3h-1v1h1zm-12-8l4-1zm2,1v1h3v-1z"/><path d="M243,123h2v1h-2zm-214,1h1v5l-1,1h3v3l-1,1h3v1l-1,1h2l2,1v2h2v1l1-1h2l2,1l1,1v1h2l2,2v1h2l1,1v1l1-1h1l1,1v1h2l1,1v1h2l4,2v1h3l1,1l1,2v1h2l4,2l1,1v1h3l3,1l1,1v3c2,0,1-1,1-2h3v2l4-2h1l1,1v-4l1-1h2v-2l1-1h-1v-2h-4v-1l1-1h-2v-2h-2l-1-1c0-2-1-2-2-3v-1l1-1h-3c0-3-2-3-4-5v-1h-2l-1-1v-1h-3l-1-1v-1h-2v-1l-1,1h-3l-3-1l-1-1v-1h-2l-1-1v-2h4l1,1v1l1-1h1v2l-1,1l1-1h1l3,1v1h6l-1-1v-1h1l4,2l2,2v1h2l1,1v1l-1,1l3-1h1l1,1c0,2,2,2,5,3l1,1c0,2,1,1,2,1v2h2v2h-1l-2-1l-1-1v-1c-3,0-2,2-2,4l2-1h2l1,1v1h-1l-2-1l1,1v1h2c0,3,1,2,4,2l-3-1v-3l1-2h1l2,1l1,1v1h2v2h2v1l-1,1l-6,1h-2c0,2,1,1,3,1c1,1,1,0,2-1h2v2h-1l-1-1l1,1v1h-1l-1-1v2h-4v-2l-2,2h-1l2,1v1h-2l2,1v2l-1,3h-1l-1-1v-3v1h-1v3l-1,1h-1v4h-1v-3l-1,3h-1v-2h-6l-2-1l-2-2c0-2-2-1-3-1v-1q1,0-2-1l-2-1v-2h-5l-2-2l-1-2c0-2-2-2-10-6l-1-1v-1h-3l-1-1v-1l-1,1h-1v-2l-1,2h-2v-1l1-1h-2v2h-1v-2l1-1h-1l-2-1v-1l1-1l-2,2h-1v-3c-2,0-1,1-1,2h-1l-1-1v-1l1-1h-2l-1-1v-1l1-1h-1l-2-1c0-2-1-2-2-3v-1c1-1,0-1-3-4l-1-2v-1h1l2,1l-1-1v-1zm52,41h1v-2h-1zm9,3h1v-1h-1zm6-5v-1l-1,1h-1v2l1-2zm7-4v-1h-1v1zm-5-3h-1v1h1zm-17-17v1h1v-1zm11,27h-1v1h1zm-52-24v-1h-1v1zm42-4h1v-1h-1zm2,0v1h1v-1z"/><path d="M54,124h4l1,1v1l-1,1h3v1h-4c0-2-1-2-3-3zm128,1h1v2h-1zm61,0h2v1h-2zm1,2h1l1,1v1h-1l-1-1v3h-1v-3zm0,5h1v1l-2,2h-1v-1zm-75,3h1v1l-1,1h-1v-1zm75,0h1v2h2v1l-2,2h-1l1,1v4h-2v2h-1v-5l1-2l1-1h1l-1-2zm-116,4h1v2h-1zm62,0h1v2h-1zm-75,2h1v2h-1zm3,1h1v1l-1,1h-1v-1zm-77,4h1v1l-1,1h-1v-1zm75,1h1v2h-1zm124,0h1l1,1v2h-4v-1zm-27,2h5v1q-1,0,3,1l1,1v1h2v1l1-2h1l1,3v1h-2c-4-1-4,0-5,3h-1c-1-1-1,0-9,1h-3v-1l3-3h2h-4l-1-2v-1h1l7,1l-3-1v-1l-2,1h-2v-1l2-1c2,0,2-1,3-2zm0,3h2v-1h-2zm1,4l3-3z"/><path d="M124,150h1v1l-1,2h-1v-2zm112,1h11v3h-2c0-2-9-1-10-1v-1zm-123,1h2v1h-2zm46,0h1v3h-1zm89,0h3v2h-1l-2-1zm-19,1h5v1l-2,2h-1l-2-2zm24,0h4l2,1l2,2v1l1-1h1c0,2,1,1,2,1v1l-1,1l1-1h1v2h-2l-1-1v-1c-3,0-3,1-2,1l1,1v1h-1l-4-1l2,1v1l-2,1h-1v5l-1,2c-3,0-3,2-1,2v1h-2l-2-1v2h-3l1,1v1l-2,1c-2,0-2,2-4,6l-1,1l-2,1h-1v3h-2l2,2v2h-1l-4-1v-2l-1,3l-6,1h-1l-1-1v4h-1v-1v3h-1l-1-1l1,2v1l-1,1h-1v2h-1v7h-2v2l-2,1c-2,0-1,2-1,3l-2,1h-2l-2-1v-1h-5v-1l1-1l-1,1h-1v-1l1-1l-3,3h-1v-2l1-1l2-1h6l1,1v-2c2,0,1-1,1-3l1-1h3l-2-1v-1l1-4h4l-1-1v-2l1-3h1l-1-1v-1h3v1l-1,1c2,0,1-3,1-5h2c1,2,1,0,3-1c2,0,1-1,1-3h1v2h2v-2l1-1h2v1l-1,1h-1c2,1,2,0,3-3l2-2h1v-2l1-1h1l-1-1v-2h1c0,2,1,1,3,1v-3h1c1,1,1,0,2-1h-2v-1h2l1,1v-2h2l1,1v-2l2-2c2,0,2-3,3-7l1-3l1-1h1h-4v-1l3-1h-2zm5,3h1v-1h-1zm1,1h1v-1h-1z"/><path d="M110,154h2v1h-2zm-62,2h1l2,2v1h-1l-2-2zm60,0h2v1h-2zm114,0h2v1h-2zm-74,1h1v1l-1,1h-1v-1zm22,0h2l1,1v1h-1c-1-1-1,0-3,1h2v1h-2l-1-1v-1zm34,1h2v1h-2zm-152,2h1l5,5l1,1v1h-1l-5-5l-1-1zm38,0h2v1h-2v2h-3v-1l1-1zm71,0h1v2l-1,1h2v1h-2l-1-1v-1zm-76,1h1v2h-2v-1zm16,0h1v1l-1,1h-1v-1zm82,1h4v1h-4zm-24,2h1v2h-1zm10,1h1l1,1v1h-1c-1-1-1,0-2,1h-1v-1zm-75,6h1v3h-1zm117,1h1v1l-1,1h-1v-1zm6,0h1v1l-1,1h-1v-1zm-67,1h1v1l-1,1h-1v-1z"/><path d="M147,175h1l1,1v1h-1l-1-1zm6,1h2v2h-1l-1-1zm55,0h1v1l-2,2h-1v-1zm-58,1h1l1,1v2h-1l-1-2zm62,3h1v1l-1,1h-1v-1zm-73,1h2v1c-2,0-2,1-4,3h-1v-1zm9,0h1v2h-2v-1zm-14,4h1v1l-1,1h-1v-1zm66,0h2v1h-2zm-1,2h2v1l-1,1h-1v2l-1,2l-1,1h-2v-2h1l1,1l-1-2v-1h1l1,1v-3zm7,2h1v1l-1,1h-1v-1zm-68,1h1v2h-1zm2,1h2v1h-2zm99,1h1l1,1v1h-1l-1-1zm-46,3h3v1l-4,8l-1,1h-4v-1c2,0,1-2,1-3c3,0,3-2,4-5zm94,3h1v1h-1zm-189,2h2v2l-2,2h-1v-1l1-1l-1,1h-1v-2z"/><path d="M287,200h1v1h-1zm-170,2h1v1l-1,1h-1v-1zm-15,2h1v1l-1,1l-2,1h-1v-2zm2,0h1l1,2v1h-1c-1-1-1,0-2,1h-1v-1l1-1h1zm56,0h2v1h-2v2h-1v-2zm3,0h3v1h-3zm-25,1h1v2h-2v-1zm31,0h5v1h-5zm-15,1h1v2l-2,2h-1v-1l1-1h1zm23,0h2v1h-2zm9,0h4v2l-2,2h-2l-2-1v-1zm1,3v-2h-1v2zm-96-2h1v2l-1,1h-1v-1zm89,0h3v1h-3zm-83,1h2v3h-1l-1-2zm42,1h2v2l-1,1h-1zm-39,1h2v1l-1,1h-1zm19,0h3l2,2v1h-1c-2-2-2,0-3,2h-2v-1l1-1h1l-1-2z"/><path d="M195,210h1v3h2v2h-1l-2-2zm-56,4h1l1,1v1l-1,2l-1,1h-1v-1l1-2h1l-1-1zm114,0h1v2h-1zm-110,2h3v2c-2,0-2,1-3,3h-1v-3zm-12,1h3v1l-3,1h-2v-1zm21,0h1l1,1v1h-1l-1-1zm-30,1h3v1h-3zm-23,1h2l1,1v1h-2l-1-1zm37,0h1l2,1v1h-2l-1-1zm-29,1h1v1l-1,1h2v1h-2l-1-1v-1zm62,0h2l2,2v1h-1l-1-1v-1h-2zm-72,4h2v1h-2zm42,0h2v1h-2zm29,2h1v3l-2,2h-1v-1l1-1h1l-1-1v-1zm28,0h1v4h-1l-1-1v-2zm-76,2h2v1h-2zm26,1h1v1l1-1h1v1l-1,1h-1l-1-1z"/><path d="M153,229h2v1l-1,1h-1zm25,0h1v1l-2,2h-1v-1zm3,0h1v2h-1zm-73,1h1v3h-1zm91,0h1l1,1v1h-1l-1-1zm-113,1h1v1l-1,4h-1v-4zm56,0h2v1h-2zm-17,1h1v3h-1l-1-1l1,1v1h-1l-1-1v-1zm46,0h2v1h-2zm24,2h2l1,1v1h-1l-2-1zm-60,1h2v1h-2zm4,0h1v2h-1zm7,0h1v1l-1,1h-1v-1zm21,1h2v1h-2zm-56,2h1v1l-1,1h-1v-1zm64,0h1l1,1v1h-1l-1-1zm54,0h2l1,1l1,2v3h-1v-3l-1,2h-1v3h-1v-4h-2v-1h2l1,1l-1-2zm-78,1h2v1h-2zm65,1h1l1,1v1h-1l-1-1zm-134,2h2v2h-3v-1z"/><path d="M128,242h1l1,1v1h-1l-1-1zm93,0h2v1h-2zm-135,1h2v2h-1l-1-1zm83,0h2v1h-2zm-49,1h1l1,1v2h-1l-1-2zm5,1h1v1l-1,1h-2v-1zm85,2h1v1l-1,1h-1v-1zm-91,1h1l1,1v1h-1l-1-1zm58,0h1l1,1v1h-1l-1-1zm8,0h1v1l-1,1h-1v-1zm72,0h2v1h-2zm-55,1h2v1h-2zm22,1h1v1l-1,1h-1v-1zm-47,1h2v2h-1l-1-1zm-51,2h3v1h-3zm46,0h1v1l-1,1h-1v-1zm35,0h2v1h-2zm-118,1h1l1,2v3l-1,1h-1zm6,0h2v1h-2zm4,0h2v1h-2zm17,0h4l1,1v1l1-1h2v1l-2,1h-1l-1-1v-1l-1,1h-1l-2-1zm18,0h2v1h-2zm95,1h1v1l-1,1h-1v-1z"/><path d="M217,256h2v2l-1,1h-1l-1-1v-1zm-122,1h1v4h-1l-2-1v-1zm15,0h1l1,1v1h-1l-1-1zm-30,1h4v1l-1,1h-1l-2-1zm72,0h1v3h-1zm46,0h1l1,1v1h-1l-1-1zm-72,1h1v1l-1,1h-1v-1zm-17,1h1v2h-1zm119,0h1v3l-1,1h-1v-2zm6,0h1v1l-1,3l-2,2h-1l-2-1v-1l1-1c2,0,2-1,4-3zm-78,1h2v1h-2zm25,0h1v2h-1zm-41,2h1l1,1v1h-1l-1-1zm48,0h1l1,1v4h-1l-1-3zm31,1h2v2h-1l-1-1zm3,0h3l1,1v1l-1,1h-1v-1l1-1l-1,1h-2zm-134,1h1v1l-2,2h-1l-1-1v-1h1c1,1,1,0,2-1zm31,0h3v1l-2,1h-2v-1z"/><path d="M182,265h1v1l-1,1h-1v-1zm-87,1h1v1l-1,1h-1v-1zm-15,2h1v2h-1zm81,0h2l1,1v1h-1l-2-1zm-60,1h2v1h-2zm89,0h1l2,1v1h-2l-1-1zm-98,2h2v2h-2zm105,0h1l1,1v1l-1,1h-1v-1l1-1l-1,1h-1v-1zm6,0h2v1l-1,1h-3v-1zm-37,3h3l1,1v1h-1l-3-1zm18,0h2v1h-2zm-74,1h1v3h-1zm39,1h2v2h-1l-1-1zm12,1h2v1h-2zm55,0h4v1q-1,2,2-1h1v1l-3,3h-1l-3-3zm47,1h1l1,2v3h-3v-2zm-143,1h1v1l-1,1h-1v-1zm16,0h1l1,1v1h-2zm9,0h3v1h-3zm45,0h3v1h-3z"/><path d="M224,279h1v1l-1,2h-2v-1zm36,0h1v2l-1,2h-1l-1-2v-1zm-83,2h1v2h-3v-1zm20,0h1v2h2v1h-2l-1-1zm10,0h1v2h-1zm-123,2h1v2h2v1l-1,1h-1l-1-2zm32,0h2v1h-2zm17,0h1v2h-1zm31,0h1l1,1v1l-1,1h2v2h-2l-2-2v-2zm52,0h1v1l-1,1h-1l1,1v1h-1l-1-1v-1zm-75,1h2v1l-1,1h-1zm8,1h1v2h-2v-1zm-61,1h1v1l-1,1h-1v-1zm92,0h2v1h-2zm19,0h1v1l-1,1h-2v-1zm-108,1h1v1h-1zm2,0h1v1h-1zm41,0h1v1h-1zm55,0h1v1h-1zm13,0h1v1h-1zm8,0h1v1h-1z"/></g><g style="fill:rgb(117,117,117);fill-rule:evenodd;stroke:rgb(117,117,117);stroke-width:0.1;" id="l6"><path d="M163,5h3v3l-1,1h-1v-1l1-1l-1,1h-1zm7,1h4c0,2,1,1,3,1v1l-2,1h-1l-3-1l-1-1zm-11,2h1l2,1v1l-2,1h-1v-1h1l-1-1zm28,1h3v1h-3zm-35,1h2v1h-2zm30,0h2v1h-2zm-29,4h1v1l-1,1h-2v-1zm-12,4h1l1,1v1h-2zm-2,2h1v1l-2,2h-1v-1zm-13,5h1v1l-1,1h-1v-1zm6,0h2v1l-1,1h-1zm-10,7h2v1l-1,1h-1zm-6,1h1l2,2v1h-1l-2-2zm96,3h1l3,1v1h-3l-1-1zm-82,1h2v1h-2zm-14,2h1v1c-1,2,0,2,1,3l1,2v1h-1l-1-1v2h-1l2,2v1h-1l-1-1v-1v2h-1l-1-1v-1l1-1h1c0-2-1-1-2-1v-1l1-1h1l1,1c0-2-1-2-2-3v-2z"/><path d="M131,42h2v1h-2zm4,2h1l1,1v1h-1l-1-1zm4,0h1l2,2v1l-1,1l2-1h1v5h-1q0-1-1,3h-1l-1-7v-1l1-1l-1,1h-1v-2v1h-1v-1zm-14,2h1v1l-4,4h-1v-2c2,0,1-1,1-2h1c1,1,1,0,2-1zm99,0h1v1l-1,2h-1l-1-1v-1zm3,7h2v1h-2zm-84,2h1l1,1v1h2l6,3l1,1v1h2l2,2c0,2,1,2,2,3v1h-2l-1-2v-2h-2l-2-2c0-1-2-1-8-3v-2h-3v-1zm89,2h1v2h-1zm-123,3h4v1l-1,1h-1l1,1v1h-2l-1-1zm123,1h1v3h-1l-1-1v2h-1v-2z"/><path d="M111,66h2l1,1v1h-1c-1-1-1,0-2,1h-1v-2zm64,1h1l1,2l1,3v1h-1l-3-3v3h-2l-1-1v-1v2l-3,1h-4l-4-1v-1l1-1h2l5,1l-1-1v-1l1-1l2-1h2c1,1,1,0,3-1zm56,0h1l2,1v1h-4v-1zm-99,1h1l2,1v1l-1,2l-1,1h-2v-1c2,0,1-1,1-4zm-10,1h2v3h-1l-1-2zm-12,1h2v1h-2zm46,0h3v1h-3zm80,0h1v1l-1,1h-1v-1zm2,1h1l2,2v2h-2l-1-1zm-128,1h2v1l-1,1h-1v2l-1,2l-3,3c-2,0-2,1-7,6h-2v2l-3,3h-2v2l-2,2c-2,0-2,1-3,2c-2,0-2,1-3,3l-1,1c-2,0-2,1-3,3h-2v3c-2,0-2,1-4,3h-2v2l-1,1l-2,1h-2v3l-2,2l-2,1c-3,0-3,1-4,2l-3,1h-1l-1-1v-2l2-1h1l-1-1v-1c2,0,2-1,5-4h2v-2l1-1c2,0,2-1,3-3c3,0,3-1,6-4h1v-2l2-1c2,0,2-1,3-2h1v-2l2-2l2-1c2,0,2-1,3-2c2,0,2-1,4-3c2,0,2-1,6-5c2,0,2-1,5-4c2,0,2-1,5-4c2,0,1-1,1-2h2z"/><path d="M233,72h1l1,1v1l1-1h1v1l-1,1h-3zm-115,2h1l2,1l1,2v1h-1l-1-1v-1l-1,1h-1zm10,0h1l1,1v1l-1,1h2v1c-3,0-3,1-4,2h-1l-1-1v2h-1v-2l1-2l3-1h1h-2v-1zm55,0h2l1,1v1l2-1h1v3h-1l-2-1l-1-1v-1h-2zm-2,2h3v1h-3zm60,1h1v4l-1,1h-1v-1zm-64,1h1v1l-1,1h-1v-1zm61,7h2l1,1v2h-1l-2-2zm-51,1h3l1,1c0,13,1,13,2,14c0,3,1,3,2,5l1,4v4h2l6,12l1,3c0,3,1,3,2,4l2,4c0,2,1,2,2,3l1,2v2h2l1,1v1h3v1l-2,1h-1l-2-1v-1l1-1l-1,1h-1c0-2-1-2-3-4l-2-4l-1-2c0-2-1-2-2-3l-2-4l-1-4c0-3-1-3-2-4c0-2-1-2-3-4c0-2-1-2-2-3v-1l1-1h-2l-1-4c0-4-1-4-3-10v-2l1-1h-2l-1-1l-1-2v1c-4,0-4,1-5,2l-4,1h-2l-1-1l-1-3v-3h1l2,4v1h3v-1c2,0,2-1,3-2h1v-2l2-2z"/><path d="M180,87h2v1l-2,1h-1v-1zm-73,7h1v1l-1,1h-1v-1zm16,1h2v1l-1,1h-1zm5,1h1l3,1l2,2v1h-2c0-2-2-1-3-1l-1-2zm110,0h1l1,2v2h-1l-1-2zm-116,2h1v1l-1,1h-1v-1zm-23,3h1v1l-1,1h-1v-1zm34,1h1v1l-1,1h-3v-1zm-16,1h2l1,1v1l-1,1h-2v-1l1-1l-1,1h-1v-1zm121,0h5v1l-4,2h-1zm-128,1h3v3l1-2h1v2l-1,1h-1l-3-3zm15,1h2v2h-1c-1-1-1,0-2,1h-3v-1zm8,0h1v1l-3,3h-1v-1zm-42,1h1v1l-1,1h2v1c-2,0-2,1-3,2h-1v-1l1-1h1l-1-1v-1z"/><path d="M93,106h2v1h-2zm152,0h1v3l-1,2l-2,1h-1c0,2,1,1,3,1v1l-1,1h-2l-2-2v-4l2-2h2v1l-1,1h2zm-127,4h3v1l-1,1h-1v2l-1,1h-1v-4zm48,1h4v4c-2,0-1,1-1,2c-2,0-1,1-1,7l-1,3l-1,1c-2,0-2,3-3,5h-1l1,2v1c-2,0-2,2-3,4h-1l2,4v3l-1,2h-1l-1-4c0-6-1-6-2-9c0-2-2-1-5-1v1l-2,1l-3,1l-6,1h-3l-5-1c0-2-3-2-2-1v1h-3v-1l1-1l-2,2h-1l-1-1v-1h2v-2h1l-1-1v-1h1c1,1,1,0,2-1h1c1,1,1,0,3-1c2,0,2-1,3-2c2,0,2-1,3-2c4,0,4-2,5-3h2v-3c2,0,2-1,3-2l2-1h2l3,1l-1-1v-1l4-1h-1v-1c4,0,4-1,8-3zm-6,24v1h1v-1zm-15-10v-1h-1v1z"/><path d="M87,112h1v3h-2v2h-1v-2l1-1h1zm151,2h2v2l-1,1h-1v-1h1l-1-1zm-154,4h1v1l-1,1h-1v-1zm154,1h3v2h-1l-2-1zm-116,1h1v3h-1zm120,0h1v3l-1,1h-2l2,1l1,2v1h-2c0-2-1-2-2-3v-3h1l2,1zm-176,6h1l2,1v2h-1l-2-2zm4,3h3l1,1v1h-1l-3-1zm171,6h1l1,3v1c-2,0-1,1-1,3l-1,1h-1l-2-1v-1l1-2l1-1h1l-1-1v-1zm-1,6h1v-1h-1zm3-6h1v2h-1zm-118,4h1l1,3v1l-1,2h-1zm20,3h1v2h-1zm89,0h2v1h-2zm4,1h1l1,1v1l-2,1c-3,0-2,1-2,3l-1,2l-1,1h-1v-1l1-7z"/><path d="M127,144h2v1h-2zm14,4h1v3l-1,1h-1v-2zm76,0h3v1h-3zm-173,3h1l2,2v1h-1l-2-2zm71,1h1v3l1-1h1v1l-1,1h-1l-1-1zm91,0h1v1l-3,3h-1v-2c2,0,2-1,3-2zm-93,1h1v1l-2,2h-3v-1c3,0,3-1,4-2zm-65,2h1l1,1v1h2v1h-2l-2-2zm63,2h1v2l-1,1h-1v-2zm86,1h2v1l-4,2h-1v-1l1-1zm-145,1h3v1l-1,1l1-1h1v1l-1,1l1-1h1v1c-1,1,0,1,2,3v1l2-2h1l1,1v1h-1c-1-1-1,0-2,1h1l2,2v1l1-1h1v1c-1,1,0,1,1,2v1l2-1h1v1l-1,2l2-2h1v1l-1,1l1-1h1v4h-1c0-2-1-1-2-1l-17-17z"/><path d="M190,160h1l1,1v1h-4v-1zm-10,1h2v1h-2zm-5,2h1v1l-1,1h-1v-1zm-75,1h1l1,1l1,2v1l-1,8l-1,1h-1l1,1v2h-1l-1-1l1,1v4h-1l-1-3v-8v2h-2v-1l1-3h1v-4l2-1h1h-2v-1zm72,1h1v1l-1,1h-1v-1zm99,0h1v2h-1zm-5,4h2v1h-2zm5,0h1v2l-1,2l-1,1h-2v-1l2-2h1zm-5,2h2v1h-2zm-4,1h2c0,2,1,1,3,1v2h5v-3h3v2h-2v3l1-2l1-1h1v4h-1l-1-1v1l-1,3l1-2h2v3c-1,2,0,2,1,3v1l-1,2h-1l2,1v2l-1,1h-1l-1-1v-1h-5v-1c3,0,1-1,1-3h-2l-2-1c0-2-2-1-3-1l-2-1v-2h6h-1v-1h-2v-1h3l3,1l-2-1v-1l1-1h-2l-1-2v-1v3h-1l-2-1l-1-3z"/><path d="M74,173h1l2,1v1h-4v-1zm74,2h2v2h-1l-1-1zm-75,1h1v2l2-2h2v2l-1,1l1-1h1v-2h1v2h3v1l2-1h3l1,1v1h2v1h5l1,1v4c-1,1,0,1,1,3v2h-1v-2h-1v-1h-1l1,1l1,2v1l-2,1h1l1,2v-2l1-1h1v2l-1,2h-2l-1-1l1,2v1h-1l-1-1c0-3-2-3-4-4l-1-1v-1h-2l-3-3v-1l-1,1h-1c0-2-1-2-2-3v-1l-1,1h-1l-3-3v-3h-2zm7,5v-1h-1v1zm-1-2h-1v1h1zm-3-1h-1v1h1zm17,13v1h-1v1h1zm-16-11v-1h-1v1zm16,7h1v1h1v-1zm-10-2l-2-1l-1-1l1,1v1zm177-7h2v1l-1,1h-1zm17,0h1v2h-1zm-128,1h2v1l-2,1h-1v-1zm57,0h1v1l-2,2h-1v-1zm-104,1h1v2h-1z"/><path d="M143,182h3v1h-3zm110,0h3l1,1v1h-2l-2-1zm5,0h2v1h-2zm-157,1h1v2h-1zm39,1h2v1h-2zm69,0h1v1l-1,1h-1v-1zm-63,2h1v1l-1,1h-2v-1zm121,1h2v1h-2zm-166,2h1v2h-1zm177,0h2v2h-1l-1-1zm-139,1h1v2h-1zm132,3h1v1l-1,1h-1v-1zm1,2h5v2l-1,1h-2l2,1l1,3v2c-3,0-1,1-1,7h-5v-4h2l1,1c0-3-1-3-2-5v-4c1-1,0-1-1-2v-1zm-9,1h1l1,1v1h-2zm22,1h1l1,2l1,3v86h-21v-1l4-1l6-1c2,0,2-1,3-3l3-3h1v-10l1-2h-2v-1c2,0,1-3,1-6l1-10h1l-1-3z"/><path d="M229,198h3c0,2,2,1,3,1c0,4,1,4,2,5v1c-1,1,0,1,1,3v1c-1,1,0,1,1,3v5v-1l1-1h1v1l-1,3h-1v4l-1,1h1v6h2v9h2c0,3,1,3,2,5v2l-1,1h2c0,7,2,7,3,8c0,5,1,5,3,7v1h-2l2,4v1h-2l2,2v9c-1,3,0,3,1,5c0,1,2,1,5,2l1,1v1h-7c0-2-1-2-2-3l-1-4v-4c1-2,0-2-1-6l-1-5c0-4-1-4-3-8l-1-3c0-3-1-3-2-5v2h-1v-3c1-1,0-1-1-2l-1-2l-1-6l-1-16v-1l1-1h-1v-8h-1c0-5-1-5-2-8v-2h-2q0-2-1,2h-1l1,1v3c-1,1,0,1,1,7v1l-2,1h-1l1,2l1,6v3l-1,2h-2l-2-1v-1h-4l-1-1v-1h-3l-1-1v-1h-2l-1-1v-1h-2l-2-1l-1-1v-1h-3l-1-1v-2h1l1,1v1l1-1h1l1,1v1l1-1h1l1,2v1h4l1,1v1l2-1c4,0,4-2,5-4h1l-1-1v-6h2v-2c2,0,1-1,1-10zm-6,26h-2v1h2z"/><path d="M247,201h2v1h-2zm-144,3h1v2h-1zm3,1h1v3h-1zm68,3h1v1l-1,2h-1v-2zm15,0h1v1h-1l1,1v1h-1l-1-1v-1zm-52,2h1v2l-2,1h-1v-1zm33,0h1v2l-1,1h-1v-1zm9,0h1v1l-1,1h3l1,1v1l2-2h1v1l-1,1h-1v2h-1c0-2-1-1-2-1v-1l1-1h-3l-1-1v-1zm-76,2h3v1l-1,2h-1v2h2v1h-3l1,1v1h-2v-2l1-4l1-1h-1v1l-2,2h-1v-1zm15,0h2v1h-2zm11,0h3v2h-1l-2-1zm143,0h2v2h2v6l-1,2h-2v-6l2-1h-3zm3,0h2v1h-2z"/><path d="M115,213h1v2h-1zm45,0h2v1h-2zm-50,1h1l1,1v3h-1v-3l-1,1h-1v-1zm16,0h3v1h-3v2h-1v-2zm60,0h1v1l-1,1h-1v-1zm-64,2h1v1l-1,2h-1l1,1v1h-1l-1-1v-1l1-2zm18,0h2v1h-2zm60,0h2v1h-2zm-49,1h1l1,1v1h-2zm10,1h1l1,1v1h-1v-1l-1,1h-1v-1zm28,0h2v1h-2zm82,0h1v3h-1zm-144,1h2v1l-1,1h-1zm38,3h4l1,1v1h-4l-1-1zm106,0h1v3h-2v-1zm-74,2h3v1h-3zm-99,1h1v1l-1,1h-1v-1zm20,1h2v1l-2,1h-1v-1zm39,1h1l1,1v1h-1l-1-1zm117,0h2v1h-2zm-125,1h2v1h-2zm6,0h1l1,1v1h-1l-1-1z"/><path d="M189,228h1v2h-1zm-61,1h1v4h-1l-1-2v-1zm32,0h1v1l-1,1h-1v-1zm-71,1h1v2l-1,2h-1v-3zm185,0h1v2h-1zm-78,2h2v1l-1,1h-1zm24,1h1v1l-1,1h-1v-1zm-72,1h1v1l-1,1h-1v-1zm9,0h2v1h-2zm10,0h2v1h-2zm58,0h1v2h-2v-1zm-55,3h1l1,1v3l-1,1h-1zm58,0h2v1h-2zm-129,1h1l1,2v2h-1v-2l-1,2h-2v-1l1-1h1zm9,0h2v1h-2zm-12,1h1v1l-1,1h-1v-1zm51,0h4v1h-4zm-30,1h1l1,1v1h-1v-1l-1,1h-1v-1zm101,0h1v2h-1zm-126,2h2v3l-1,1h-1l-1-2v-1zm41,0h1v2h-1zm90,0h1l1,1v1h-1l-1-1z"/><path d="M114,243h2v1h-2zm46,0h1v4h-1zm-80,1h1v4h-1zm152,0h1v2h-1zm43,0h1v1c-1,1,0,1,1,2v1h-2l-1-1v-2zm-178,1h1v1l-1,1h-1v-1zm86,0h2l1,1v1h-2l-1-1zm51,1h1v3h-2v4l-1,2h-1v-3l1-3l1-2zm-140,1h1v2h-1zm181,2h1l1,1l1,2l1,3v1l-1,1h-1l1,1l1,3v7l-2,2h1l1,1v1l-2,1h-1l1,1v1l-1,1h-4v-1l1-1h-2v-2l1-1h-1l-2-1v1h-1v-6l1-3h1v-4l1-1h1l-1-1v-1c2,0,1-1,1-3zm-62,1h1v1l-2,2h-1v-1z"/><path d="M202,251h1v1l-2,2h-1v-1zm-77,2h1v2h-1zm-38,1h1l1,1v1h-2zm4,0h1l1,1v1h-1l-1-1zm15,0h1v2h-2v3h-1v-3zm76,0h1v1l-1,1l-2,1h-1v-1l1-1zm52,0h1l1,1v1h-1l-1-1zm-104,1h2v1h-2zm89,1h1v2h-1zm-77,1h1l1,1v1h-1l-1-1zm11,0h4v1l-1,1h-2l-1-1zm61,0h1l1,2v1h-1v-1l-1,1h-1v-1zm-87,1h2v1h-2zm52,0h2v1h-1l1,1v1h-1l-1-1zm7,0h1l2,2v1h-1l-2-2zm-90,1h2v1h-2zm35,0h1v2h-1zm-46,1h1v1l-1,1h-1v-1zm35,1h3v1l-2,1h-1zm92,0h1v1l-1,1h-1v-1zm-119,1h2v2h-1l-1-1zm11,0h3v1h-3z"/><path d="M111,262h6v1c-2,0-2,1-3,2h-1l-1-1v-1l-1,2h-1v-2zm78,0h1v2h-1zm29,0h1l1,1v1h-1l-1-1zm-126,3h2v1h-2zm34,0h2v1h-2zm-16,1h3v1h-3zm37,0h2v1h-2zm66,0h1v1l-1,1h-1v-1zm-126,1h2v1h-2zm15,0h1v2h-2v-1zm39,0h1l1,1v1h-2zm18,0h1v1h-1l1,1v1h-1l-1-1v-1zm39,0h1v2h-1zm-94,1h1l1,1v1h-2zm45,0h2v1h-2zm82,0h1l1,1v1h-1l-1-1v2h-1v-2zm-137,1h1v1l-1,1h-1v-1zm2,1h1l1,1v1h-1l-1-1zm31,0h2v1h-2zm14,0h1v1l-1,1h-1v-1zm-57,1h1v2h-1zm137,0h1l1,1v1h-1l-1-1zm11,0h1l2,1l1,1v1l-1,1c-2,0-2,1-3,2h-1l1,1v5h-2l-1-1v-1l1-1h-3v-1h2v-2l2-2h1l-1-1v-2z"/><path d="M100,273h1v3h-1zm92,0h2c0,2,1,1,2,1v1l-1,1h-2l-1-2zm-82,1h1v1l-1,3h-1v-3zm114,0h2v1h-2zm5,0h1v1l-1,1h-1v-1zm-147,1h2l1,1v1h-2l-1-1zm74,0h1v1l-1,1h-1v-1zm-44,1h3v1h-3zm32,0h2v1l-1,1h-1zm14,0h1v1l-1,1h-1v-1zm7,0h2v1h-2zm-78,1h1l1,2v1h-1l-1-1zm36,1h1v1l-2,2h-1l1,1v1h-1l-1-1v-1zm5,0h1v2l-1,1h-1v-2zm34,0h1v1l-1,1h-1v2h-2v2l-2,1h-1v-1zm20,1h1v1l-1,1h-1v-1zm97,0h1v2h-1zm-185,1h1v2l-1,2h-1v-3zm36,0h1v1l1-1h1v1l-1,1h-1l-1-1z"/><path d="M145,280h2v2h-1l-1-1zm26,0h2l1,2v1h-1l-2-2zm-74,1h1v1l-1,4h-1v-4zm129,0h2v1h-2zm-142,1h2v3h-1l-1-2zm5,0h3v2l-2,2h-2v-1c2,0,1-2,1-3zm64,0h3v1h-3zm64,0h1v2h-1zm-116,2h2v1h-2zm60,0h1v1l-1,1h-1v-1zm26,0h1l1,1v1h-2zm18,0h1v2h-1zm18,0h2v1h-2zm-130,1h1v2h-1zm42,0h2v1l-1,1h-1zm5,0h1l1,1v1h-1l-1-1zm52,0h1v1l-1,1h-2v-1zm29,0h1l2,1v2h-1l-2-2zm-52,1h1l3,1v1h-4zm41,0h2v1h-2zm16,0h1v1l-1,1h-1v-1zm-125,1h1v1h-1zm42,0h1v1h-1zm45,0h1v1h-1zm8,0h1v1h-1z"/><path d="M200,287h1v1h-1z"/></g><g style="fill:rgb(204,204,204);fill-rule:evenodd;stroke:rgb(204,204,204);stroke-width:0.1;" id="l7"><path d="M176,8h2v1h-2zm-27,1h1v1l-1,2l-1,1h-3v-1c3,0,3-2,4-3zm-5,1h2v1h-2zm-2,4h1l1,4v1h-2l-1-1v-1zm4,2h1v2h-2v-1zm-19,8h1v3h-1zm87,3h1v2h-1zm-96,5h2v1h-2zm95,0h1l2,2v1h2v1h4v1c-2,2-1,2,1,3v2h2v1h-2l-4-4v-1l1-1h-5v-1l1-1h-2l-1-1zm-96,7h1l1,1v2h-2zm118,0h1v7h-1zm-102,7h2v1h-2zm1,2h2v2h2v1c-2,0-1,1-1,2c-1,1,0,1,1,3v1l-2,1h-1l1,1v5l-1,1h-2l-1-1v-1h1l1,1l-1-1v-5c2,0,1-2,1-6l1-1h1l-2-1z"/><path d="M235,48h1v4h-1l-1-1v1l-1,2h-1v-2l1-1h1l-1-1v-1zm-125,3h1l1,6v1h-1l-1-1zm134,3h1v1l-1,2h-2v2l-2,2l-2,1h2v1h-3l-1-2v-1l-2,2h-1v-4l2-2h1c0,4,1,4,2,5v-1zm-10,5v1h1v-1zm-126,0h1v3l-1,1h-1v-2zm19,5h2v1h-2zm17,0h1v2l1-2h2l1,1v1h2l-2-1v-1h2l3,1v1c-2,0-2,1-3,2h3l1,1v1l-6,1h-1l-1-1v1c-2,0-2,1-4,3h-1l-2-1v-1l-1,2h-4v-1l2-1h2v-2l3-1h3l1,1l-1-2v-2h-2v-1z"/><path d="M236,64h1c0,2,1,2,2,3v1h-1l-2-2zm4,0h1v2h-1zm-118,1h2l5,1v1h-5l-2-1zm-16,1h1l1,1v1c-2,0-2,1-3,2c-2,0-2,1-3,2h-3v2c-3,0-3,1-6,4h-1c-1-1-1,0-4,3l-4,2c-2,0-2,1-5,4l-2,1c-2,0-2,1-3,2c-2,0-2,1-3,2l-2,1h-2v2l-1,1l-2,1c-3,0-3,1-4,2h-1l1,1v1h-1l-2-1v2c-2,0-2,1-3,2c-2,0-2,1-4,3c-2,0-2,1-3,2c-2,0-2,1-3,3l-2,1c-3,0-3,6-2,6l4,2c0,3,2,3,7,8v3l-1,2h4v1h-13v-2h-6v-2h-2v-5l1-6c3,0,3-3,1-2h-2v2l-2,1c-2,0-2,1-4,3h-1l-1-1v-2l2-1c1,0,1-1,2-3l5-5c2,0,2-1,3-2c4,0,4-2,6-4l2-1c2,0,2-1,3-3l2-2l4-2c2,0,2-1,3-2l2-1c2,0,2-1,4-3l1-1c2,0,2-1,3-2c3,0,3-1,4-2h2v-2l1-1l4-2l3-1c2,0,2-1,4-3l2-1h2v-2l2-1c2,0,2-1,3-2z"/><path d="M149,72h4v1l-3,1c-4,0-4,1-5,2h-3v-1l4-2zm93,0h2l1,3v1l1-1h1v2c-1,1,0,1,1,4v1h-1l-1-1v3l1-1h1v3c-1,1,0,1,1,4v5l1-1h1v3h-3c0-2-1-2-2-3v-7h-1c0-2-1-2-2-3v-1l2-1h-2l-1-1v-2h1l2,1l-1-1v-1c1-2-1-2-3-3v-1c2,0,1-1,1-2zm-70,3h1v5h-1l-1-1v-2zm-41,3h1l2,1v1h-3zm47,0h1v1l-1,2h-2v-1zm-40,1h1v1l-2,6l-2,2l-2,1c-2,0-2,1-3,2c-3,0-3,1-5,3h-1v-1l5-5l3-1c2,0,2-2,3-6c2,0,2-1,3-2z"/><path d="M179,81h3v4l-1,1h-1l-1-1v-1h1l1,1c0-2-1-2-2-3v4h-1l-1-1v-1l1-2zm-60,1h8v1l-1,1h-6l-1-1zm55,2h1l2,2v1h-1l-1-1v-1l-1,2h-1v-2zm-53,10h1v3l-2,1h-3v-1l2-2zm-7,2h1l1,2v1h-4v-1zm-11,2h1v1l-1,1h-1v-1zm25,1h1v3h2v1l-1,1h-1c0-2-1-2-2-3v-1zm133,0h1c0,3,1,3,3,4l1,1v1l-1,1h-1l2,1v1l-1,1c-4,0-3,1-3,4h-1l-2-2v-6l-1,3l-1,1h-1v-1l1-3h-2v-1l2-1h1v-2h3zm-1,8h2v-1l1-1h-1l-1-1v1zm4-2h1v-1h-1z"/><path d="M123,103h1l1,1v1h-1l-1-1zm12,0h2v1l-1,1h-1l1,1v3l-1,2h-1l-1-3v-1c2,0,1-1,1-2zm-15,2h2v1l-1,1h-1zm131,0h3v1l-1,6h2v1l-1,2l-1,1h-1v4h-1c0,2,1,1,2,1v2l-1,3l-3,1h-1l-1-1v-3h1v3l1-1h1c0-2-1-2-2-3v-2c2,0,1-2,1-4l1-1h1l-1-3v-2l1-2h1l-1-1zm-122,5h1l1,1v1l-1,2l-2,2h4v-3h1v4l-1,3l1-1h1v1l-2,2h-1v2h-2v2l-1,1h-1v-2l2-2h1v-2c2,0,1-1,1-2h-2v-1l2-1h-4l-1-2v-1c2,0,1,0-1-2v-1h1c1,1,1,0,3-1zm-1,2h-1l2,2l-1-1z"/><path d="M123,112h1l1,1v1h-1l-1-1zm2,8h3v3h-2l-1-2zm125,7h2l2,1v1h-4l1,1v1l-1,1h2v3l-1,1l-2,1h2l2,1l1,1v1h-1v-1h-2v5l-1,2h-1l-1-1v-4l2-1h-1l-1-1l-1-2v-6l1-2zm0,12h1v-1h-1zm-126-11h1v2l-2,1h-2v-2h1c1,1,1,0,2-1zm140,4h1v1h-1l1,1v1h-1l-1-1v-1zm-8,2h3v1h-3zm-133,2h1l2,2v1h-1l-1-1v1c-2,0-2,1-3,2h-2v-1c2,0,2-1,3-2h1zm-65,2h4v1h-4zm36,4h1l1,1v1h-1l-1-1zm-52,8h1l2,2v1h-1l-2-2zm74,2h2v1l-1,1h-1z"/><path d="M202,154h1v1l-1,1h-1v-1zm26,1h2v1h-2zm-7,2h3v2l-2,2h-1zm19,0h5v2h2l1,2v1c-3,0-3,1-4,2c-4,0-4,1-5,4l-2,1c-5,0-5,2-4,2v1h-1c-1-1-1,0-5,2h-2c-2-1-2,1-3,2h-2v2h-1l-1-2v-1h2h-1l-1-1v-3h2l1,1l-1-3v-1h3c3,1,1,0-1-2v-1c2,0,2-1,3-2h1l-1-1v-1l1-1h1v1l-1,1l2-1h1l1,1l-1-1v-1l1-2h1l2,1c0,2,2,2,2,1l1-1c3,0,3-1,4-2zm-50,2h2v1h-2zm26,2h1l1,1v2l-2,1h-2v-1l2-1h1l-1-1z"/><path d="M160,164h1l1,2v1l-2,2h-1v-1l1-1h1l-1-1zm14,1h5l4,2v1h3v1l-2,1h-1c-3-1-3,0-7,2c-6,0-6,1-7,2h-1c-2-2-2,0-3,1h1v1h-1l-2-2v-1h1l1,1v-2l1-1h1l2,1l-1-1v-1h1l1,1v-1l1-2zm0,2h1v-1h-1zm9-2h6v1l-3,1h-2l-1-1zm29,1h4v2l-1,1h-1l-1-1l1,1v1l-2,2h-1v-1l1-1h1l-1-1v-1l1-1h-1v1l-1,1h-1v2l-1,1h2v1h-2l-1-1l2,2v1h-1l-2-2v2h2v1l-2,2h-1v-5l2-2h1l-1-2v-1h1l1,1l-1-1v-1h1c1,1,1,0,2-1z"/><path d="M155,168h3v1l-1,1h-1l1,1v1l1-2h1l1,2v-1l3-3h1v1l-2,2h-1h2v1l-1,1l-6,3h-2l-1-1v1l-1,2h-1l-1-2v-1h1l1,1l-1-1v-3h1l1,1v-2l1-2zm-1,6v-1h-1v1zm3-1v-1h-1v1zm-3-1h1v-1h-1zm1-2h1v-1h-1zm10-1h1v1l-1,1h-1v-1zm122,3h1v3h-2v-2zm-116,1h2v1h-2zm-10,1h1v1l-1,1h2v1c-3,0-2,2-2,3h-1c-1-1-1,0-4,3h3v-2h1c0,2,2,2,4,3v4l-1,1h-1l2,1v1l-2,1c-2,0-2,1-3,4c-4,0-4,2-5,4h2v1h-2l-3-1v1h-2v2h-3l-1-1l1,1v1l-2,1h-5v-1l2-1c3,0,2-2,2-3l1-1h2v-2h2v-2c2,0,2-1,3-2h2v3v-1l1-1h1l-1-1v-2l1-2l2-1h2v-4h-5v-3l1-1h-2v-2h1l2,2l-1-1v-2l2-1h1v2l-1,1h2v-3z"/><path d="M287,176h1v7l-1,5h-2v-1l1-9zm-140,2h1v3h-3l-1-1v2l-2,1h-1v-1l1-2l2-1h1c1,1,1,0,2-1zm67,0h1v1l-1,1h-1v-1zm-68,4h1l1,1v1h-1l-1-1zm-9,2h1l1,2v1h-1l-1-1l1,2v1h-1l-1-1v-3zm5,1h1v1l-1,2h-1v-2zm-11,3h1v2l-3,3h-2v-1zm77,3h1l1,1v1h-1v-1l-1,1h-1v-1zm-68,1h1v1l-1,1h-1v-1zm144,0h1l1,1v2h-1l-1-2zm-159,2h2v1l-2,2h-1v-1zm46,5h2v2h-1l-1-1zm-52,1h2l1,1v3h-1l-3-1v-2zm0,2h2v-1h-2zm13-1h1l1,1l1,2v1h-1l-2-1l2,1v1l-5,1h-1l-3-1l-1-2v3c-2,0-2,1-3,2h-4c0-2-1-2-2-3v-1l2-1h1l1,1v1h-1l-1-1v2h3l1,1l-1-1v-1h1l1,1v-1l1-2l2-2z"/><path d="M180,201h2v1h-2zm-22,1h1l1,1v1h-1l-1-1zm-3,2h1v2h-1zm-58,1h2v1h-2zm-1,3h1l1,1v1h-2zm17,0h2v2l-2,1h-1v-1zm83,0h1l1,1l1,2v1h-3zm-70,4h1l1,1v1h-1l-1-1zm45,0h1v4h-1zm-5,1h1v2h-1zm-64,1h1v2l-1,1h-1v-1zm45,0h1l1,2v1h-3v-1zm33,0h1v2h-2v-1zm-83,2h1v1l-1,1h-1v-1zm98,0h1v1l-1,2l1-1h4v1l-1,1l-2,1h-1l-3-3v-1zm-76,1h2v1h-2zm-35,1h1v2h-1zm60,0h4v1l-2,1h-1l-1-1zm33,0h3v3h-1l-2-2zm11,0h1v2h-1zm15,1h1l1,1l1,2v1h-1c-1-1-1,0-2,1h-1v-1l1-2h1l-1-1z"/><path d="M128,220h2v1h-2zm-21,1h2l1,1v1h-1q-2-1,1,2v1h-1l-3-3v-1zm-14,2h2v1l-1,1h-2v-1zm67,0h1v2h-1zm16,1h1l2,1v1l-1,1h-1l-1-2zm18,0h1v1h-1l1,1v1h-1l-1-1v-1zm13,1h1v3l-1,1h-1v-1zm-8,1h1l1,1v1h-1l-1-1zm10,0h1l1,1v1h2v1h-2l-2-1zm-44,1h2v1l-2,2h-1v-2zm52,3h2l2,1v1h-3l-1-1zm-46,1h1v1l-1,1h-1v-1zm5,1h2v1h-2zm30,0h1v1l-1,2h-1v-2zm-61,1h2l1,1v1h-1l-2-1zm38,0h1v1l-2,2h-2v-1c2,0,2-1,3-2zm-54,1h1l1,1v1h-1l-1-1zm-10,2h1l2,1v1h-2l-1-1zm71,1h1v3h-1l-1-1v1l-1,2h-1l-1-1v-3h1c2,1,2,0,3-1z"/><path d="M87,238h1v3h-1zm87,1h1l2,1v1h-2l-1-1zm10,0h1v2l-1,1h2v1h-2l-1-1v-2zm-77,2h2v1h-2zm15,0h2v1h-2zm89,0h4v1h-4zm-111,1h1v2h-1zm125,0h3v3h-1l-2-2zm-31,1h8v1l-2,1h-1l1,1v1h-1l-1-1v-1l1-1l-1,1h-3l-1-1zm15,0h3v1h-3zm-128,1h2v1l-1,1h-1zm138,2h1v1c-1,1,0,1,1,2v1h-1l-1-1v-1l-1,1h-1v-1zm11,0h2v1h-2zm-3,1h1l2,1v1h-3zm-137,1h2v2h-1l-1-1zm68,2h2l2,1v1l2-1h1v1l-1,1h-3l-2-1l-1-1zm56,0h1l1,1v5l-1,1h-2l-2-1v-1l1-1h1v2h2l-1-1l-1-2v-1z"/><path d="M194,251h1l1,1v2h-1l-1-2zm37,0h1v1l-1,4h-1l-1-2v-1zm-29,1h1v2h-1zm15,0h4l1,1v1h-1l-1-1l1,2v1h-1l-1-1v-2h-2zm-60,1h1v1l-1,1h-1v-1zm9,0h1l1,1v1h-2v2h-1v-2c-2,0-1,2-1,4h-2v-4l1-1zm25,0h1v1l-2,2h-1v-2zm-83,1h6v1l-1,1h-6v-1zm68,0h4v2h-2l-2-1zm-36,1h3v1h-3zm55,0h3v2h-1l-2-1zm4,0h1l1,2v1h2v3l-1,3l1-1l3-1h3l1,1v1h-1l-2-1l2,2v1c-2,0-1,1-1,3l-2,1h-1h4v1h-2c0,2,2,1,3,1v2h-3l-2-1v-2h-2v-1l1-1l-2,1h-2v-1l2-1l-2,1h-1v-2l1-4h1l-1-1v-1c1-2,0-2-1-3zm8,13l-1-1v-3l-3,1h-1l-1-1v3l1-1h1v2l1-1h1z"/><path d="M205,256h1v1l1-1h1v1l-1,2h-1l-1-1zm-65,1h2v2h-1l-1-1zm-56,1h1v2h-1zm89,0h2v1c-2,0-1,1-1,2h-1l-1-1v-1zm-27,1h5v1l-2,1h-1l1,1v1l-1,1h-1l-1-4v1h-1v-1zm20,0h1l3,3v1h-1c-2-2-2,0-3,1h-2v1h2l1,1v-2h2v2h2c0,2,2,2,2,1l2-1h-1l-3-1v-1c2,0,2-1,4-3h4l1,1v1h-1l-1-1v3l1-1h1l2,1v1l-1,4l-1,1h-1l-1-1l1,1v1h-2c0-4-1-2-7-2v1h1v1h2l1,1v1h-2l-1-1v-1h-4l-1-1v-3l-1,2h-1l-3-3v-1h1c2,2,1,1,1-3l1-3zm-1,2v2l1-2l1-1l-1,1zm11,1v1h1v-1z"/><path d="M223,259h1v1l-1,1h-1v2h-1v-2zm3,0h1v2l-1,2l-1,1h-2v-1l1-1h1v-2zm-140,1h3v1h-3zm33,0h2v1h-2zm43,0h1v1l-1,1h-1v-1zm-67,2h1l1,1v3h-1l-1-1zm16,1h1l2,2v1h-1l-2-2zm39,0h1l2,2v1h-3l-1-1v-1zm-14,2h3v1c-3,0-2,1-2,3l2-2h1v1l-2,2h-1l-1-1l-1-2v-1zm56,0h2l1,2v1h-1l-1-1l2,2v1h-1l-1-1l1,1v1h-1l-2-2v-1l1-1h1l-1-1zm-38,1h1l3,3v2h-1q-1-2,0,1v1h-1l-2-1l-1-2v-1l1-1h1h-2v-1zm1,3h1v-1h-1zm60-3h2v2l-1,1h2v1l-1,1h4l1,1v1c-2,0-1,1-1,2h-1l-1-1v-1l1-1l-1,1h-1c-1-1-1,0-2,1h1v1h-1l-1-1v-1l1-1l-1,1h-4v-1l1-3l1-1h3l-1-1zm-1,3h-1v1h1z"/><path d="M126,267h2v1h-2zm61,0h1l1,1v1l-1,1h-1zm32,0h1v2h-1zm-121,1h1l1,1v1h-1v-1l-1,1h-1v-1zm21,0h1l1,1v1h-2zm20,2h1v1l-1,1h-1v-1zm20,2h1l1,3v2h-1c0-2-1-1-3-1v-2zm21,0h1l2,2v2h-1v-2l-1,2h-1l1,1v1h-1l-2-2v-1h1l1,1v-2h1h-2v-1zm9,0h1v1l-1,1h2l2,1v1c-2,0-2,1-4,3h-1l1,1v1l-2,1h-1l-2-1v-1l1-2h2c0-2-1-1-3-1v2h-1l-1-1v-1l2-1h2v-2c2,0,2-1,3-2zm0,3v-1h-1v1zm7-1h1v1l-2,2h-1v-1zm-71,1h1l1,1v1l-1,1h-1v-1h1l-1-1zm47,1h1l3,1l1,1v1h2v1h-2l-1-1v-1c-2,0-1,1-1,2h-1l-2-1z"/><path d="M166,277h1l2,1v1h-2l-1-1zm29,1h1v1l-1,1h-1v-1zm20,1h1l1,2v2l-2,2h-2v-1l1-4zm4,0h1v1l-1,1h-1v-1zm-136,1h1v2h-1zm95,1h1l1,1c0,2,1,1,2,1l2,2v1h-3l-2-1l-1-3zm16,0h2v5h-3l-2-2v-2h1l1,2v-1zm-69,1h1v2h-1zm37,0h1v1l-1,1h-1v-1zm23,1h1v2h-1zm-91,2h2v1l-1,2h-1zm92,1h1v2h-1z"/></g><g style="fill:rgb(87,87,87);fill-rule:evenodd;stroke:rgb(87,87,87);stroke-width:0.1;" id="l8"><path d="M161,6h2v1h-2zm5,1h1l1,1v5h-3v-1l1-1h1l-2-1v-1c2,0,1-1,1-2zm8,2h4l1,1v1h-4l-1-1zm16,0h3v1h-3zm-35,1h1l1,1v4l-1,2h-1l-1-1v-1l1-2h1l-1-1zm5,0h3l1,2v1h-1l-1-1v-1h-2zm-2,1h1l2,1l1,2v1h-4zm-9,5h1v2h-2v-1zm-6,3h1v1l-1,1h-1l1,2v1h-1l-2-1l1,1v1l-2,2h-2c0-2-1-1-2-1v-2l2-1h1v1l-1,1c2,0,2-2,3-5zm-1,6h2l1,1v1h-1c-1-1-1,0-3,1h-1v-1zm-11,1h3v1l-3,3h-1l-1-1v-1z"/><path d="M208,27h1l1,1v1l1-1h1v1l-1,2h-1c0-2-1-2-2-3zm-85,6h1v1l-1,2h-2v-2zm9,2h1l6,1v1l-5,1h-2zm80,2h1l4,1v1h-4l-1-1zm-95,5h1l2,1v1h-2l-1-1zm16,0h4l3,1l2,1v2h-1l-1-1v-1l-2,1h-1l-3-1l-1-1zm-21,4h1v1l-1,2h-1v-2zm8,1h1l2,1v1l-2,1h-1zm24,0h4v2h2v3h-1c-1-1-1,0-2,1h-1c0,3,1,3,3,4l1,1v1h-1l-4-2l-2-2l-1-2v-2h1l2,1v-2h2c0-2-2-1-4-1v-1zm-26,1h1v2h-1zm-6,2h1c0,2,2,2,2,1l1-1h1v1l-1,1h-1v2h-1c-1-1-1,0-2,1h-1v-1z"/><path d="M226,50h1l1,1v1h-1l-1-1zm-110,5h2v1h-1l1,1v1h-1l-1-1zm116,4h1v2l-1,1h-1l1,1v2h-1l-1-2v-2zm-79,1h1l1,1v1h-1l-1-1zm-42,2h1l2,1v2h-2l-1-2zm45,0h2l2,2v1h2v1c-1,1,0,1,1,2v1h2v1l-3,1h-3v-1c2,0,2-3,1-3l-1-1c0-2-1-2-3-3zm15,4h5v1c-4,0-4,1-8,3h-2v-1l1-1zm-60,2h1l2,1l1,2v2h-1q-1-2,0,3v3h-1v-3h-2v3l-6,6h-1v2l-1,2l-2,1h-1v5l-2,1h-1c0,2,1,1,2,1l1,1v-2l1-2h2l1,1v-2l1-1l2-1c2,0,2-1,3-2l2-1h1l1,1v1h-1v-1l-1,1h-1v2l-2,2c-2,0-2,1-8,7l-2,1h-3l2,1v1l-2,2l-3,1h-1l-1-2v1c-1,2,0,2,1,3v1h-2h1v1h-4l-1-1l1,1v2l-2,1h1l1,1v1h-1l-1-1v-1l-1,2l-1,1h-1l1,1v3h-1v-1v2l-2,2h-1v2l-4,4h-2v-1l1-1h1l-1-1v-1l1-1h-1v-2h-2v-1l-1,1l-12,2h-1l-2-1v-1c4,0,4-1,7-2c3,0,3-1,4-2h1v-2l1-1h2v-2c2,0,2-1,3-2c2,0,2-1,3-3l1-1h2v-2l4-4h1v-2l1-1h2v-2c2,0,2-1,17-16l2-1h1v-2c2,0,2-2,3-5h1l-1-1zm-16,29v1h1v-1zm0,3h1v-1h-1zm2-1v-1h-1v1zm9-5v-1h-1v1z"/><path d="M232,69h4v1l-1,1h-1l2,2v1l2-2h1v3h-1c-1-1-1,0-2,1h-1l2,1v1l-1,2h-1l-1-3v-2l2-1h-1c-1-1-1,0-2,1h-1l-1-2v-3zm1,4h1v-1h-1zm-1-2h2v-1h-2zm-103,0h1l1,1v1h-2zm3,0h1l1,1v1l-1,1h-1v-1h1l-1-1zm31,0h5v1h-5zm14,0h1l1,1v1l4-1h2l2,1l1,1v1h-8c-1-1-1,0-2,1h-1v-3l1-1l-2,2h-2v-2zm11,1h1l2,2v1h-1l-2-2zm-68,1h1l1,1c0,3,2,3,3,4v1l-1,1h-1c0-2-1-2-2-3l-1-3zm57,4h2v1h-2zm12,1h1l1,2c0,2,1,2,2,3v11c-1,2,0,2,1,3l1,4c0,4,1,4,6,14c0,3,1,3,2,5c0,3,1,3,2,5c0,3,1,3,5,11l1,2c0,2,1,2,2,3c0,2,1,2,3,4v1h-1l-1-1v-1h-2l-1-2c0-2-1-2-2-3l-2-4c0-3-1-3-2-4l-1-2c0-3-1-3-7-15l-1-3c0-3-1-3-3-7l-2-8v-2c1-5,0-5-1-8v-1l1-1l-2,2l-2,1c-2,0-2,1-3,2h-1v2l-2,2h-5l-2-2v-1l3-1h2c2,1,2,0,3-2l6-6c2,0,1-1,1-3zm-11,14h2l-1-1v-1h-2l1,1z"/><path d="M240,80h1l1,1v2l-2,1h-1l-1-1v-2zm0,2h1v-1h-1zm-2,4h1l2,2v1h-1l-2-1zm5,7h1v2h-1zm-4,1h1l1,1v3h-2v3l-1,1h-2v-1l1-3c2,0,1-2,1-3zm-115,2h1v3l-1,1l-2,1h-1v-1l1-1c2,0,1-1,1-2zm-11,6h1v2h-1zm6,0h2v1h-2zm11,2h2v1c-2,0-2,1-3,2h-2v2h-2v-2h2v-2zm105,0h3v1l-1,2h-2zm-120,1h2l1,1v1h-1l-2-1zm124,0h4v1h-4zm5,1h1v2l-1,1h-1v-1zm-124,2h4v1l-1,1h-1l2,1v1h-2l-1-1v6h-1l-2-2v-1l1-2l1-1h1l-1-2z"/><path d="M238,111h1v1l-1,2h-1v-2zm1,2h4v1l-1,2h-1l1,1v1l-1,1h-3v-4h1l1,1l-1-2zm-118,7h1v5h-1l-1-1v-2zm117,0h1v2h-1zm2,1h1v2h-1zm0,3h1v1c-1,1,0,1,1,3v1l-1,2h-1l-1-1v-1h2l-2-1v-3zm1,8h1v3h-2v-1zm-89,4h3l1,1c0,2,1,2,2,3v2h-1l-1-1v-2l-10,2h-5v-1l1-1c4,0,4-1,10-3zm87,1h2v1l-3,3q-1,0,2,1v1l-2,1h-4v-1l3-1l-3,1h-1v-1l1-1l4-2h1z"/><path d="M128,138h2v1h-2zm6,0h1l4,1l1,1v1h-6v-1l1-1l-1,1l-2,1h-1v-2zm97,5h1l2,4v4c-2,0-2,1-3,2h-1v-1l1-2h1l-1-1zm-105,1h1l1,1v2h-4v-1zm90,3h3v1h-3zm-91,2h1v3h-1zm-7,4h2v3h-3v-1zm7,1h2v1l-1,1c-2,0-2,1-3,2h-1v-1zm-19,1h3v1h-3zm99,0h2v1h-2zm25,0h1v1l-1,1h-2v-1zm-84,3h1v2h-1zm-42,2h2l1,1v1h-1l-2-1zm-2,2h3v1l-1,2l2-2h1v3h-1v-1v3h-1l-1-1v3h-1v2h2v7l-1,4l-1,1h-1l-2-2v-1h1v1h2l-2-4v-1l1-1h1l1,2c0-4-1-4-2-6v-4c1-1,0-1-1-3v1l-1,1h-1v-1l1-1h1v-2zm1,4h1v-1h-1z"/><path d="M99,170h1v2h-1zm114,0h1v1l-1,1h-1v-1zm-49,1h1v1l-1,1h-1v-1zm-66,10h1l1,3v2l-2,2h-1l-1-1v-1l1-4zm-20,2h1l3,3v1h-1l-3-3zm58,0h1v1l-1,1h-1v-1zm67,0h1v1l-1,1h-1v-1zm-102,2h1l1,1l1,2v2h-1c0-2-1-1-2-1zm29,1h1l1,1v1l-1,1h-1v-1l1-1l-4,4h-1v-1zm9,0h1v1l-1,2h-1v-2zm-40,3h1l1,2v1h-1v-1l-1,1h-1v-1zm-11,2h1l2,2v1h-1l-2-2zm7,1h2v3c-1,1,0,1,1,2v-3h1l1,4v1h-1l-2-1l-2-2zm8,2h1v1l-2,2h-1v-1z"/><path d="M120,198h1v1l-1,1h-1v-1zm-18,2h3v1l-1,2h-1c0-2-1-1-2-1v-1zm11,0h1v4c-1,1,0,1,1,2v1l-2,2h-1v-1l2-2h-1l-1-1v-1c-2,0-1,1-1,4h-1l-1-1v-3zm118,4h2l1,1v2h-1l-1-2c0,5,1,5,2,8v3l-1,4h-1l1,7v7h-2v2h-1l-1-1v-1l1-1l-2,2h-1l-1-1v-1l-1,1h-1l-1-2v-1h-4v-1l1-1h-2l-1-1v-1h3l1,1v1h2l2,1l1,1v1h2l1,1v-2l1-2h1l-2-8v-1l1-1h2l-1-1l-1-11v-2zm2,11h-1v1h1z"/><path d="M234,208h1v4h-1zm-73,2h2v1h-2zm-4,2h1v1l-1,1h-1v-1zm9,0h2v2h-1l-1-1zm69,1h1l1,8v1l-1,1h-1zm-75,1h2v1l-2,1h-1v-1zm-37,2h1v2h-2v-1zm61,1h1v1l-1,1h-1v-1zm3,4h1l1,1v1h-1l-1-1zm-3,1h2v1h-2zm-74,1h1v1l-1,1h-1v-1zm101,0h2l3,3v2h-1l-2-2v-1h-2zm-63,2h1v2h-1zm88,0h1v4h-1zm-144,1h1l1,1v1h-1l-1-1zm40,0h3v1c-2,0-2,1-3,2h-1v-1zm20,0h1l1,1v2c-2,0-1,1-1,2h-1l-1-1v-1l1-1h1l-1-1zm-33,5h1v2h-1zm27,0h1v2h-2v2h-1v-2z"/><path d="M183,231h1v2h-2v-1zm11,0h1v1l-1,1h-1v-1zm42,0h1l1,8c0,9,1,9,2,11v2h2v5h2l1,3c0,3,1,3,2,5c0,5,1,5,2,9c0,7,1,7,2,12v2h-2l-1-2l-1-9v-5h-1c0-3-1-3-2-5c0-4-1-4-4-10c0-3-1-3-2-5v-4l-1,2h-1l-1-1l-1-3v1h-1v-3h2l1,1v3zm-123,3h1l1,1v2l-1,2h-1c0-2-1-2-2-3v-1h1l2,2l-1-2z"/><path d="M120,234h1v1l-1,1h-1v-1zm34,0h2v4h-1l-1-1zm17,0h1v2h-1zm-13,1h1l1,1v1h-2zm40,2h1v1l-2,2h-1v-1zm-81,1h1v2h-1zm4,5h2v1l-1,1h-1zm19,0h1v2l-1,5l-1,2h-1v-5zm-28,1h1l2,1v1h-2l-1-1zm112,0h1l1,1v1h-1l-1-1zm-134,1h1v3h-1zm3,0h1l1,1v1h-3v-1zm52,3h1l1,1v1h-1l-1-1zm69,0h3v1h-3zm-33,2h1v3h-1l-1-1v-1zm25,0h2v1l-1,1h-2v-1zm-17,1h1l1,1v1l-1,1h-1v-1l1-1l-1,1h-1v-1zm-15,1h1v1l-1,1h-1v-1zm-84,2h1l1,2v2h-1l-1-2zm12,0h2v6h-1l-1-1z"/><path d="M132,255h2v1h-2zm6,0h2v1c-2,0-2,3-1,3l1,1v-1h1v1l-1,2h-1c0-2-1-2-3-4v-1zm-58,1h1v2h-1zm26,0h1v1l-1,1h-1v-1zm5,0h2l1,2v2h-1c0-2-1-2-2-3zm6,0h2v2h-1l-1-1zm3,0h1v1l1-1h1v1l-1,1h-1l-1-1zm9,0h1v1l-1,1h-1v-1zm42,0h1l1,1v1h-1l-1-1v2h-1v-2zm65,0h1v1l-1,1h-1v-1zm-43,1h1v1l-3,3h-1v-1zm-83,1h1v1h-1l1,1v1h-1l-1-1v-1zm67,1h1l1,1v1h-1l-1-1zm34,0h1v2h-1zm-127,1h1l1,1v1h-1l-1-1zm115,0h1v1l-2,2h-1v-1zm22,0h1v1l-1,1h-1v-1zm-139,1h1v1l-1,1h-2v-1zm33,0h5v1h-5z"/><path d="M92,262h1v3h-1zm15,0h1l1,1v1h-1l-1-1zm14,0h2v1h-2zm113,0h1v3h-2v-1zm-139,1h3v1l-3,3h-2v-1l2-1h1h-2v-1zm34,1h1l1,1v1l-1,1h-1v-1l1-1l-2,2h-1v-1zm-42,1h1l1,1v1h-1l-1-1zm22,0h1l1,2v1h-1l-1-1zm35,0h1v2h-1zm39,0h3l1,1v1h-1l-3-1zm46,0h2v1l-1,1h-1zm-148,1h2v3h-1c0-2-1-1-2-1v-1zm11,3h2l1,1v1h-1l-2-1zm6,0h1v1l-1,1h-1v-1zm90,0h1v1l-1,1h-1v-1zm-108,1h1v3h-1zm46,0h1v2l-1,1h-1v-2zm22,0h2v1c-2,0-1,1-1,2h-1l-1-1v2h-1v-2zm41,1h1v1l-2,2h-1v-1z"/><path d="M95,272h2v1h-2zm133,1h1v1l-1,1h-1v-1zm9,0h2v1h-2zm-34,1h2v1h-2zm32,0h1l1,1v2l-2,2h-1v3h-2v-1l1-6zm-89,2h3v1h-3zm74,0h1l1,1v1l-1,1h-1v-1h1l-1-1zm5,2h2v2h-1l-1-1zm-22,1h1v1l-1,1h-1v-1zm17,1h1l1,1v1h-1v-1l-1,1h-1v-1zm-121,1h2v2h-1l-1-1zm38,0h2v1h-2zm91,0h1v2h-1zm-82,1h1v1l-1,1h-1v-1zm20,0h1l1,1v1h-1l-1-1zm8,0h1l1,1v1l-1,1h-1zm15,1h1l1,1v1l-1,1h-1v-1l1-1l-1,1h-1v-1zm17,0h2l1,2v2h-1v-2h-2zm-81,1h2v1h-2zm78,0h2v1h-2zm13,0h2v1h-2zm11,1h2l1,1v2h-2l-1-2z"/><path d="M126,286h1v1l-1,1h-1v-1zm68,0h1v1l-1,1h-1v-1zm8,0h1l1,1v1h-1v-1l-1,1h-1v-1zm16,0h1l1,1v1h-1l-1-1zm-43,1h1v1h-1zm12,0h1v1h-1zm4,0h1v1h-1z"/></g><g style="fill:rgb(212,212,212);fill-rule:evenodd;stroke:rgb(212,212,212);stroke-width:0.1;" id="l9"><path d="M162,4h3v1l-2,1h-3v-1zm6,0h2l1,1v1h-1l-2-1zm11,2h2v2h-1l-1-1zm15,2h2v1h-2zm-44,2h2v1h-2zm3,3h1v1l-1,1h-1v-1zm-9,1h1v1l-1,1h-1v-1zm-22,11h1v2l2-2h1v1l-2,2h-1l-1-1zm-1,3h1v3h-1zm-6,8h1v3h-2v-1zm109,7h2l1,1v1l-1,1h2v4h-1l-1-1l-1-2v-2l1-1l-1,1h-1zm-108,1h1v1l-1,2h-1v-2zm114,0h1l1,1v1h2v1l-1,1c-2,0-1,1-1,2h-1l-2-1v-2c2,0,1-2,1-3zm-120,1h1v1l-1,1h-1v-1zm3,2h1v3h-1zm135,0h1v4l-3,3l-2,1h-1v-1l4-4h1z"/><path d="M124,48h1v1l-4,4h-1v-1zm112,10h2l1,1v1l-2,2h-1v-1l1-1h1l-2-1zm6,1h1c0,2,1,1,2,1v4h-4v-1h2v-2h-2v-1zm-4,5h2v1h-2zm3,1h1l1,1l1,2v3h-3l-1-3v-2zm0,2h1v-1h-1zm-115,2h3v1h-3zm119,2h1l1,1v1h-3v-1zm-128,2h1v8v-1h1v1l-1,1h-1l-1-1l-1-2v-4zm22,2h1l2,1v1l-1,1h-2v-1h1l-1-1zm108,1h2v5h-1l-1-1zm-119,5h1v1l-1,1h-1v-1zm118,0h1v3l1-1h1l1,3v2l-1,1h2v-1h1v4l-1,2l-1,1h-1c0-5-1-5-2-8v-1c1-1,0-1-1-2z"/><path d="M71,84h3v1l-1,2c-2,0-2,1-3,2c-3,0-3,1-4,2c-2,0-2,1-5,4l-2,1c-2,0-2,1-3,2l-4,2c-2,0-2,1-3,2h-1v2l-1,1l-2,1c-2,0-1,1-1,2h-1l-1-1v1l-1,2c-4,0-4,1-5,2c-2,0-2,1-6,5h-1v2l-2,2h-3v-3h2l1,1v-1l1-2l1-1h1v-2l2-1h1v-2l2-1h2v-2h1l2,1l-1-1v-1l1-1h3l-1-1v-1c4,0,4-1,7-4c2,0,2-1,3-2l2-1h-1v-1h2c1,1,1,0,3-2h3l-1-1v-1h1l2,1l-1-1v-1h1l1,1v-2l1-1c3,0,3-1,4-2h2zm-46,36h1v-1h-1zm224-23h4l1,3v3c3,0,1-1,1-3h4v-3h2l1,1v1h-1l-1-1l1,1v2h-4l1,1v1l-1,1c-2,1,0,1,1,4c0,2,1,2,4,5l-1-3v-1h3l1,1v-2h2v1l-1,1h-1l1,1v1h-1c-2-1-2,1-3,2h-2v-2c-2,0-1,2-1,5h-1l-1-1c0-4-1-4-2-5v-1l1-1c-2,0-2,2-1,2l1,1v1l-1,3h-1v8h3v2h-3v2l-2,1h3l2,2v1h-1l-1-1v-1c-2,0-2,1-3,2l1-1h1l1,1v2l-1,1h4v1h-3v2h-1l2,1l1,1v1h-1v-1l-2,1h-2c0,2,1,1,3,1v1h-2v2h-1l-1-1l1,1v1l1-1h1v1l-1,2c-2,0-1,2-1,3l-3,1h-1l-4-1v-1h3v-5h1c0,2,1,1,2,1v-4l1-1h1l-1-1v-1h1l2,1l-1-1v-1l1-2l-3,1h-2v-1c2,0,2-1,3-2h2h-3v-1l1-1h-2v-3l2-2l-2,1h-1v-2c3,0,3-3,4-5l-1,1h-1v-2l1-4l1-1h1v-2h1l-2-1v-6l1-1h-1l-3-1l-1-1zm-1,53v1h1v-1zm4-3v-1h-1v1zm5-38v-1h-1v1z"/><path d="M110,99h1v1l-2,2h-1v-1zm16,0h1v2l-1,2l-2,2h-2v-1h2v-2l1-1h1zm-25,1h1v1l-2,2h-1v-1zm15,11h1v2h-1zm147,3h1v10h-1l-1-5v3h-1v-4h2l-2-2v-1zm-177,2h1v1l-1,1h-1v-1zm41,1h4v1h-2l2,1l1,1v1h-2v2h-2v-3h-2v-2zm137,13h4v1l-1,1l1-1h1l1,1v1h-1l-1-1l1,1v1h-2l-1-2c0,3,1,3,2,4v3l-1,1h-1v-1c1-3-1-2-2-2v-1l1-2l-1,1h-2v-2l1-1h1l1,1l-1-2zm-1,4h1v-1h-1zm-235-3h1l1,1v1h-1l-1-1zm90,10h2v1h-2z"/><path d="M117,144h1v2l-1,1h-1v-1zm-79,1h1l1,1v1h-1l-1-1zm70,5h2v1h-2zm11,2h2v1h-2zm114,2h1v1l-2,2h-1v-1zm-7,2h1v1l-1,1h-1v-1zm44,0h2v1h-2zm-2,1h1l1,1c0,2,1,2,2,3v1h-1l-1-1v-1l-1,1h-1v-3v1h-1v-1zm-116,22h1l1,1v1l-1,1h-1l-2-1v-1zm-73,6h1l2,2v1h-1l-2-2zm69,0h1v2h-2v-1zm-9,3h2l1,1v1h-3zm-2,1h1v1c-1,1,0,1,1,2v1h-1l-2-2v-1zm6,1h1v1l-1,1h-1v-1zm-19,5h1l2,1v1l1-1h1c0,3,2,2,5,2l6,1v1l-1,1h-1l-2-1l1,1v2h2v1h-2l-1-1v2h2v1l-1,1h-1l-1-1c0-2-1-1-3-1v-1c2,0,1-2,1-3l-1,1c-7,0-7,1-8,2h1l1,2v1h-2v-3l-1,2l-1,1h1v1h-1l-1-1v-1l-1,1h-1v-1c1-1,0-1-1-2v-1h1l2,2v-1c2,0,1-1,1-2c3,0,3-2,2-2l-1-1v-3zm0,3h1l1,1v-1l1-1l-1,1zm2,2l2-2zm-2-3h1v-1h-1z"/><path d="M94,197h1v2h-1zm109,0h1v6h-2v3h-2v2l-2,1h-1v-3l1-3l2-2h1l1,1l-1-2v-2h1l1,2zm-107,1h1l1,1v1h-2v2h-1l-1-1v-1h2zm-4,4h2v1h-2zm10,0h1l1,1v1h-2zm47,0h2v1h-2zm-57,4h2v1h-2zm73,0h1v1l-3,3h-1v-2c2,0,2-1,3-2zm9,0h2v1l-1,1h-1zm-7,1h2v1l-1,1h-1zm15,1h2v1h-2zm5,2h1v2h-1zm-54,2h1v2h-1zm-16,1h1v2h-1zm-30,1h1v2l-2,2h-1v-1l1-2zm11,0h1l1,2v1h2v1l-1,1h-1c0-2-1-2-2-3zm7,0h1l1,1v2h-2zm19,0h2v1l-2,1h-1v-1z"/><path d="M94,215h1v3h-1zm50,0h2v1l-1,1h-1zm32,0h1v2h-1zm-49,3h2v1h-2v2h-1v-2zm-19,1h2v1h-2zm11,0h1l1,1v1h-1l-1-1zm54,0h2v1l-1,2h-1l-1-1v-1zm26,1h1l1,1v1l-1,1h-1v-1h1l-1-1zm-69,2h2v1h-2zm56,0h1v1l-1,1h-2v-1zm-19,2h1v2l-2,1h-1v-1zm-77,1h1l1,1v1l-2,1h-1v-1zm68,0h1v1l-1,1h-2v-1zm29,0h3v1h-3zm24,0h1l1,1v1h-1l-1-1zm-84,1h1l1,1v1l-1,1h-1v-1h1l-1-1zm87,1h1l1,1v1h-1l-1-1zm-30,1h1v1l-1,1h2v1h-3v-2zm25,0h1v2h-1zm-12,1h2v1c-1,1,0,1,1,2v1h-1l-2-2zm7,0h1l1,1v1h-2z"/><path d="M211,229h3l3,1v3h-1l-1-2v3h-1l-1-1v-1l1-2l-2,2h-1zm-20,1h3v1c-2,0-1,1-1,2h-1l-2-1v-1zm-106,1h1l2,1v1l-1,1h-1l-1-2zm31,0h2v1h-2zm45,0h1v2h-1zm26,2h1l1,1v1l-1,1h-1v-1h1l-1-1zm19,0h3l2,2v3h-1l-1-1c0-2-1-2-3-3zm-12,1h1v4h-1zm28,0h3v1l-3,1h-3v-1zm-116,3h1l3,3v1h-1l-3-3zm37,0h2v1h-2zm59,0h3v1h-3zm-83,2h1l1,1v1h-1l-1-1zm7,0h1v1l-1,1h-1v-1zm62,1h2l1,1v1l1-1h2v1l-2,1h-1l-1-1v-1h-2zm7,0h1v3h-1z"/><path d="M154,242h1v1l1-1h1v1l-1,1h-1l-1-1zm27,0h1l1,1v1h-1v-1l-1,1h-1v-1zm33,0h5v1l-1,1h-1l2,1v1h-2l-1-1l1,1v1h-2l-1-1v-1l2-1h-2zm-124,1h1l1,1v1h-1l-1-1zm26,1h1v3h-1l-1-1v-1zm23,0h1l1,1v1h-1l-1-1zm62,1h3v1h-3zm-29,1h2v1h-2zm24,1h1v3l-1,1h-2v-3zm30,0h1v2h2l1,1v3h-2l-2-2zm-37,1h1l1,2v1h-2l-1-1v-1zm32,0h2v1l-1,1h-1zm-45,1h1l1,1v1h-1l-1-1zm-21,1h1v1l-1,1l-2,1h-1v-1l1-1zm11,0h2v2h-1l-1-1zm20,0h1v1l-1,1l-2,1h2l2,2v2h-1l-1-2v-1h-2l-1-1v-1l1-1z"/><path d="M204,250h1v2h-1zm-73,2h1v1l-1,1h-2v-1zm-50,2h3v1l-2,1h-1zm33,0h2l1,1v1h-1l-2-1zm-23,1h1l1,1v1h-1l-1-1zm107,0h1v3h-2v2h-2v-2l1-1h2zm-15,1h1v3h2v1h-2l-1-1zm-94,1h1v2h-1zm104,1h1v1l-1,1h-1v-1zm-33,1h3v1h-3zm48,0h3v1h-3zm-5,1h1l2,1v1h-4v-1zm-70,1h2v1h-2zm-43,1h2v2h-1l-1-1zm64,0h2l1,2v1h-1l-2-2zm4,0h2v4h-1l-1-3zm71,1h1v1l-1,2h-1v-2zm-147,1h1l2,1v1h-2l-1-1zm20,1h1l1,1v1l-2,1h-1v-1zm8,0h2v1h-2zm10,1h1v1l1-1h1v1l-1,1h-1l-1-1z"/><path d="M116,267h3v1l-2,2h-1zm24,2h2v1h-2zm45,0h1v2h-2v-1zm-13,1h2v1l-2,1h-1v-1zm-90,1h1v2h-2v-1zm36,2h2v3h-1l-1-1zm-7,3h1l1,1v1h-1l-1-1zm24,0h1v2h-1zm20,1h2v2h-1c-1-1-1,0-3,2h-1v-2c2,0,2-1,3-2zm3,1h1v2h-1zm12,0h1v2h-1zm-12,3h1l1,1v1h-1l-1-1zm29,0h4v3h-1l-2-1l-1-1zm-57,2h1c0,2,1,1,2,1l1,2v2h-1v-2h-2l-1-1zm39,1h1v2h-1zm-43,3h3v1h-3z"/></g><g style="fill:rgb(196,196,196);fill-rule:evenodd;stroke:rgb(196,196,196);stroke-width:0.1;" id="l10"><path d="M166,5h2v1h-2zm-9,2h2v1h-2zm47,12h1l1,1v1h-1l-1-1zm-83,12h2v1l-1,2h-1zm-8,2h1l1,1v1h-1l-1-1zm114,9h1v1c-1,1,0,1,1,2v1h-1l-2-2v-1zm7,4h2v2h-1l-1-1zm-7,1h1l1,1v1l2-1h2v2l-1,1h-1l-3-1l-1-2zm5,2h-1v1h1zm-122,0h1v2h-1zm15,20h1v1l-1,1h-1v-1zm16,5h1l1,2v1l-1,1h-1v-1l1-1l-2,1h-1l1,1v5l-2,1h-1v-1l1-3l1-1h-2l-1-1v-1l2-1c2,0,2-1,3-2zm-24,2h1v2h-1zm130,20h1l1,1c0,3,1,3,2,4v2l-1,1h3v2h-4l-1-2v-1c2,0,2-2,1-2l-1-1v-3l-1,1h-1v-1zm-120,2h1l1,2v1l-2,2h-1v-1l1-1h1l-1-1z"/><path d="M121,104h1l1,1v1h-1l-1-1zm14,6h1v1l-1,4h-1l1,1v3c-2,0-1,1-1,2l-1,1h-1v-5l1-5zm-10,9h1v3l-1,1h-1v2h-1v-2l1-3zm123,21h2v1c-2,0-1,1-1,6l-1,1h-1v2h-1v-2l1-1h1c0-2-1-1-2-1v-1l1-2h1l-1-1v-1zm-13,14h1l2,2c0,2,1,1,2,1v1l-1,1c-3,0-3,1-4,2h-2v-2h-2l-1-1v2l-2,2h-1v-2l2-2h1v-2h1l1,1v1l1-2h3l-1-1zm0,3v1l2-2l-1,1zm7,6h4v2c-3,0-3,1-4,2h-1l-1-1v2l-3,3l-2,1h-2l-1-1v3l-2,2h-3v2h-3v3h-6v-1l2-4l-1,1h-1v2l-2,1h-1v-4l1-2l1-1h3c0,3,2,3,2,2l1-2l2-1h1v1l-1,1l2-1h2l2,1l-2-1v-1l2-1h1v-2l5-1h2v-3l1-1zm-24,13h1v-1h-1z"/><path d="M221,166h4v1l-1,1l-2,1h-1v-1l1-1l-1,1h-1v-1zm-59,8h2l1,1v1l-1,1h-1l1,1v1c-2,0-1,2-1,3l-1,1l3-1h1l8,2l2,2v1h5v1l-1,1h3l-1-1v-1l2-1h2v-2h1v2l-1,1l2-1h2v-2h1l1,2v1h-1l-1-1l1,2v1h-1c-2-1-2,1-4,3h-1v2l-1,1c-2,0-1,1-1,2l-1,1h-4l1,1v1l-1,1l-2,1h-1l-1-3v-1c-4,0-4,2-5,4h-1v-3h-4v3h-5l-1-1v2h-1l-1-1v-2h-2v2h2v1l-4,1h-1v-1l1-1h-3v-1l2-1c3,0,3-2,4-4c4,0,3-3,3-4h1c1,1,1,0,3-1h2l-2-1v-1l1-1h1c0-4-2-4-4-5v-2l-1,2h-3v-1l2-2h1l-2-1v-1l1-1h1l1,2v-2c3,0,3-1,4-2l-2,1h-1v-1zm-2,6h1v-1h-1zm20,10v-1h-3v1z"/><path d="M287,183h1v7h-2l-1-1v-1h2zm-152,2h1v1l-1,2h-2v-1zm71,5h1v2c-1,1,0,1,1,2v1c-2,2,0,2,1,3v1c-3,0-2,2-2,4h-2v3h-2v3l-2,1h-3v-2h2v-2h2l-2-2v-1h4l-1-1v-1c1-4,0-1-1,1h-3v-1l1-2h1l1,1l-1-2v-1l1-2l1-1h1v-2zm-84,8h1v1l-1,1h-1v-1zm-28,3h1l1,1v2h-2zm6,0h1v2h-1zm45,1h3l2,1v1l-3,1h-1l-1-2zm-28,8h1v1l-1,1h-1v-1zm58,4h1v3l-1,1h-1v-3z"/><path d="M192,217h1v1l-1,1h-1v-1zm-26,1h3v1c-1,1,0,1,2,3v1h-2l-1-1c0-2-1-2-2-3zm-67,2h1v2h-1zm101,0h1v1l-2,2h-1v-1zm-76,2h1l1,1v1h-2zm49,2h1l1,1v1h-1l-1-1zm-53,1h2v2h-2zm92,0h1l1,1c0,2,1,2,2,3v1h-2l-1-1v-1h-2v-2zm0,2h1v-1h-1zm-41-1h1v2h-1zm25,1h1l2,1v1h-3zm-33,3h3v1h-3zm29,1h1v1l-1,1h-1v-1zm-7,5h1l1,1v1l-1,1h-1zm38,2h2l1,1v5h-1l-1-1l-1-2zm-142,1h1v2h-1zm53,0h2v1h-2zm71,0h1v2l-1,1h-1v-2zm-11,1h1v3l-1,1h-2c0-2-1-1-2-1v-1l1-1h1l2,1zm-76,4h1v3h-1z"/><path d="M151,244h1v2h-1zm35,0h1v2h-2v-1zm-6,3h1c0,2,1,2,2,3v1h-1l-1-1v-1h-2v-1zm43,1h1v1l-1,1h-1v-1zm-35,2h1v1l-1,2h-2v-1zm-48,1h1l2,2v1h-1l-2-2zm23,4h2v5h-1l-1-3zm-3,1h2v3l-2,1h-3v-1l1-2zm7,0h1v1l-1,1h-1v-1zm-48,1h2l1,1v1h-2l-1-1zm75,0h2v1l-1,1h-1zm-9,1h1l2,2v1h-3zm-71,1h1v1l-1,1h-1v-1zm89,0h1l2,1v1h-2l2,1v1h-4v-1l1-1h1l-1-1zm9,1h1v1l-2,2h-2v2h-1l-1-1v-1c2,0,1-1,1-2zm-89,1h2v1h-2zm-14,2h1v2h-2v-1z"/><path d="M126,263h1l1,1v1h-1l-1-1zm28,0h1l1,1v1l1-1h1l1,1v1l2-1h2v1c-2,0-1,1-1,2h-2l-4-2l-2-2zm-74,3h1l1,1v1h-1l-1-1zm142,0h2v1l-1,1h-1zm-48,2h1v1l-1,1h2v-2h1v4l-1,1h2v1l-1,2h-1l-1-1v-2h-2v-1q3-1-3-1v-1l1-1zm-31,1h1v1l-1,2l1-1h1v2v-1h1v1l-1,1h-1l-1-1v-1l-1,1h-2v-1h2v-2zm15,1h2v1h-2zm-75,1h1v2h-1zm7,0h2v1l-1,1h-1zm123,1h3v1l-1,2h2v-2h1v2l-1,1c-2,0-2,1-3,2h-1l-3-3v-1c2,0,2-1,3-2zm-64,2h2v1h-2zm-29,1h2v1l-1,1h-1z"/><path d="M153,276h2l1,2v2l-2,1h-1v-1l2-2h-1v1h-2v2h-1v-2l1-1h1zm-42,1h1l1,1v1h-1l-1-1v2h-1v-2zm77,2h2v2l-2,2h-1v-1l1-1h1l-1-1zm-32,2h2v1h-2zm-51,6h1v1h-1z"/></g><g style="fill:rgb(220,220,220);fill-rule:evenodd;stroke:rgb(220,220,220);stroke-width:0.1;" id="l11"><path d="M183,8h2v1l-1,1h-1zm-40,3h1v2h-2v-1zm7,3h1v2h-2v-1zm-7,3h1l1,1v1h-1l-1-1zm-14,7h2v1l-2,1h-1v-1zm82,0h1v1l-1,1h-1v-1zm2,5h2v1h-2zm-99,1h3v1h-3zm100,1h2v3l1-1h1c0,2,1,1,2,1v1l-1,1h-1l-2-1l-2-2zm-1,3h1l1,1v1h-1l-1-1zm9,3h1l1,1v4l-1,1h-1v-1l1-3h-2v-1zm11,2h1v2h-1zm-8,1h1v2h-1zm-112,1h1v1l-1,1h-1v-1zm116,0h1v1l-1,1h-1v-1zm13,2h1l1,1v4h-1v-2h-2v-1c2,0,1-1,1-2zm-109,6h1l2,1v1l-1,1h-1l1,2v4h-1l-1-2zm101,4h1l1,1v1h-1v-1l-1,1h-1v-1z"/><path d="M132,58h1v1l-1,1h2v4l-1,1h-2v-1h2h-4v-1l1-1c2,0,1-2,1-3zm-27,7h2v1l-1,1l-10,5h-1v-1l3-3c3,0,3-1,7-3zm-12,6h1v2l-1,1h-1v-2zm46,1h1l2,1v1h-3zm-49,1h1v2h-1zm-3,1h1l1,1v2l-2,1c-2,0-2,1-4,3l-2,1c-3,0-3,1-5,2h-1v-1l1-1l2-1c3,0,3-1,6-4l4-2h-1zm48,0h1v2h-2v-1zm109,0h3v1l-1,1h-1l-1-1zm-108,5h2v1l-1,1h-1zm38,1h2v1h-2zm-40,2h1v3l-1,2l-2,1h-2v-1l2-2h2z"/><path d="M119,83h1l1,1v2h-1l-1-2zm60,0h1v1l-1,1h-1v-1zm-51,5h1v1l-4,4h-2v-1c2,0,2-1,5-4zm-11,5h2v1l-2,1h-1v-1zm135,0h1v2h-1zm11,6h1v4h-1zm-137,2h1l2,1v2h-1l-2-2zm8,2h1v2h-1zm126,2h1v2h-1zm-127,1h2v1c-2,0-1,1-1,5h-1l-1-1v-3v1h-1v-1zm131,0h2v1h-2zm-173,4h1v1l-1,1h-1v-1zm33,1h3v1l-1,2h-1l-1-1l1,1v1l-1,1h-1v-3zm7,1h1v4h-4v-3h1l2,1zm-107,2h1v2h-1zm241,5h1v2h-1zm-182,1h1v1l-1,1h-1v-1zm172,1h1v2h-1z"/><path d="M257,121h1l1,1v1h-1l-1-1zm-8,2h1v2h-1zm-224,1h1v2h-1zm102,0h1v1l-1,1h-1v-1zm-5,2h1c0,2,1,1,3,1v1l-2,1h-2zm152,12h2v2h-1l-1-1zm-163,13h2v1h-2zm118,6h1v1l-2,2h-1v-1zm11,2h2v1h-2zm-3,1h2l1,1v2h-2l-1-2zm-17,1h1v1l-2,2h-1v-1zm6,0h1v1l-1,1h-1v-1zm3,0h1v5l-1,3h-6v-1l3-1h1l-1-1v-2h1v2c2,0,1-3,1-4zm6,1h2v2h-2zm35,1h1l1,1v1h-1l-1-1zm-48,3h1v1l-1,1h-1v-1zm-54,1h1v1l-1,1h-1v-1zm2,1h1v1l-1,1h-1v-1zm117,0h1v1h-1l1,1v1h-1l-1-1v-1z"/><path d="M220,169h1v1c-1,1,0,1,1,2v1h-1l-2-2v-1zm54,0h2v1h-2zm-111,1h1v2h-1zm-99,2h1l1,1v1h-1l-1-1zm95,3h1v1l-1,1h-1v-1zm127,0h2v1l-1,2h-1zm-132,3h1l1,1v1h-1l-1-1zm-4,4h1l3,1v1h5v4l-2,1h-2v2h-1l1,2v1l-2,2h-1v-2l1-1c-2,0-2,1-3,2h-2v2c-2,0-1,2-1,3l-1,1h-1v-1l1-1h-2v4h-3l1,1v1h-1l-1-1v-2l1-3l4-4h2v-4l2-2h1v-2h1v2l-1,1l2-1c2,0,1-1,1-2l2-2l-2,1h-1c0-2-1-2-2-3zm134,2h2v2h-1l-1-1zm-147,2h1v2h-1z"/><path d="M142,186h1v2h-1zm140,2h2l2,1v1h-2l2,2v1h-1l-2-2v-1l1-1h-2zm-197,2h1l1,1v1h-1l-1-1zm45,2h3v1l-1,1h-3v-1zm-4,1h2v1h-2zm-5,7h2v1h-2zm-4,6h1v1l-1,1h-1v-1zm-34,14h1v1l-2,2h-1v-1zm52,0h1l1,1v1h-1l-1-1zm62,0h1v1h-1l1,1v1h-1l-1-1v-1zm-19,1h2v1l-1,2h2v1h-2l-1-1zm-7,2h1v1l-1,1h-1v-1zm37,0h1l1,1v1h-1l-1-1zm-112,2h2v1l-1,1h-1zm110,0h1v2h-1zm-88,4h1l2,2v1h-1l-2-2zm31,0h2l3,3v1h-1l-2-2v-1h-2zm26,1h1v1l-1,2h-1v-2zm-10,2h1l1,2v1h-1v-1l-1,1h-1v-1z"/><path d="M197,234h2v1h-2v2h-1v-2zm-84,1h1v2h2v1l-1,1h-1v-2l-1,2h-1v-2zm62,0h2v2h-1l-1-1zm10,4h2v1l-2,2h-1v-1zm18,0h2v1l-1,1h-2v-1zm-5,2h1v1l-1,1h-1v-1zm12,0h1v1l-1,1h-1v-1zm-45,1h1v3l-1,1h-1v-3zm-85,6h2v1h-2zm78,0h1v2h-1zm-11,1h3l1,1v1h-1l-3-1zm68,1h3v2h-1l-2-1zm-45,1h2v1h-2v2h-1v-2zm-14,1h1l1,2v1l4-1h1v1l-1,1l-2,1c-2,0-1,2-1,3h-1l-2-1v-1l1-2h1l-2-2zm8,0h2v2h-2zm-25,1h1l1,1v1h-1l-1-1zm62,0h1v2h-2v-1zm-53,2h1v2h-1z"/><path d="M166,255h2v1l-2,2h-1v-1zm-36,2h1l2,1v1h-2l-1-1zm21,1h1v3l-1,1h-1v-1zm21,0h1v3h-3v-2zm27,0h1l1,1v2h-1l-1-2zm-60,1h1l1,1v2h-1l-1-2zm-12,1h1v1l-1,1h-1v-1zm72,2h2v1l-2,1h-1v-1zm-119,1h1v3h-1zm56,0h2v1h-2zm25,0h1v2h-1zm6,0h1v6l-1,1h-2v-6zm-1,6h1v-1h-1zm1-2v-1h-1v1zm8-4h1l1,1v1h-3l1,1v1l-2,1h-2v-2h-2v-2h2c3,1,3,0,4-1zm3,0h1v2h-1zm5,0h1l2,1l1,1v1l1-1h1v3h-1l-2-2v-1h-3zm-97,1h1v2h-1zm117,0h3c0,3,1,2,3,2l1,1v2h-1c0-2-2-1-6-1c0-2-1-1-2-1v-2z"/><path d="M145,265h2v1h-2zm-42,2h1v2h-1zm30,1h1v1l-1,1h-1v-1zm24,0h1l1,1v1h-1l-1-1zm23,2h1v2h-1zm-23,1h3v1h-3zm5,1h1v3h2v1h-2l-1-1zm28,0h1v2h-1zm27,0h1l1,1v1h-1c-1-1-1,0-2,1h-1v-1zm-70,5h2v1l-1,1h-3v-1zm18,0h1v1l-1,1h2v1h-2l-1-1v-1zm14,3h2l2,2v1h-1l-3-1zm-55,1h2v1h-2zm-13,1h1v1l-1,1h-1v-1zm102,0h1v2h-1zm-37,1h1v3h-1zm-76,1h1v2h-1zm6,3h1v1h-1z"/></g><g style="fill:rgb(100,100,100);fill-rule:evenodd;stroke:rgb(100,100,100);stroke-width:0.1;" id="l12"><path d="M178,8h1l2,1v1h-2l-1-1zm15,1h1v2h-1zm6,3h1l2,2v1h-1l-2-2zm-40,3h1v2h-2v-1zm-22,9h2v1c-2,0-2,1-3,2h-1l-1-1v-1h1c1,1,1,0,2-1zm-1,20h1v1l1-1h1v1l-1,1h-1l-1-1zm-22,5h1l1,1v1h-1l-1-1zm30,0h1v3h-1zm-2,4h1v2h-1zm87,1h1v1l-1,1h-1v-1zm-72,9h1l1,1c0,2,1,2,2,3v3h-1c0-3-1-3-2-4l-1-2zm15,4h3v1l-2,1h-1zm-51,1h1v2h-2v-1zm9,0h2v1h-2zm106,1h1l2,1v1h-2l-1-1zm-62,1h1l1,1v1h-3v-1zm-55,1h1v4h-1l-1-1v-2zm-9,3h1v2l-1,2h-1v-2zm71,1h2v1l-2,1h-1v-1zm8,1h1v2h-1z"/><path d="M107,79h1v1l-1,1h-1v-1zm81,1h1v1l-1,1h-1v-1zm-84,1h1v1l-15,15h-2v2l-2,1h-1v2l-4,4h-1v2l-2,1h-1v2l-1,1c-2,0-2,1-3,2h-2v2c-2,0-2,1-3,3l-2,2l-6,2h-1v-1l1-1l3-1c2,0,2-1,3-2h1v-3l2-1c2,0,2-1,3-3c2,0,2-1,4-3h2v-3h2v-2l1-1l2-1h1v-2l1-1c2,0,2-1,3-2c2,0,2-1,3-2h1v-2c2,0,2-1,4-3h1v-2c2,0,2-1,7-6zm86,3h1v1h-1l1,1v1h-1l-1-1v-1z"/><path d="M241,84h1v2h-1zm-50,5h1v5h-1zm52,2h1v2h-1zm-68,1h1l3,1v1h-3l-1-1zm68,3h1v2h-1zm-140,1h1v1l-1,1h-1v-1zm88,0h1l1,4v1h-1l-1-1zm-61,2h2v1h-2zm114,1h1v3h-1zm-125,1h2v1h-2zm-23,2h2v1h-2zm20,1h1l1,1v1h-1l-1-1zm12,1h2v1h-2zm-15,1h1v2h-1zm2,1h2l1,1v1l-1,1h-1l-1-2zm10,0h1v1l-1,1h-1v-1zm-33,1h2v1h-2zm29,1h1v1l-1,1h-2v-1zm74,0h1v2h-1zm-109,2h1l3,1v1l-1,1h-1l-2-2zm110,1h1v3h-1zm43,0h1v2l-1,1h-1v-2zm4,0h1v2h-2v-1zm-158,2h2v1h-2v4l-5,5h-1l1,1v1h-3v-1l1-1h1v-2c2,0,2-1,3-2h1h-2v-1l2-2h1v-2z"/><path d="M122,118h1v2h-1zm117,2h1v4h-2v-2zm-118,2h1v2l-1,1h-1v-1zm-60,3h3v2h-1l-2-1zm144,6h1l1,1v1h-1l-1-1zm-51,3h2l1,2l1,3v1h-1l-1-1l-1-2v-1h-3v1l-6,2c-4,0-4,1-5,2h-1l-1-1v-1l1-1h6v-1c3,0,3-1,5-2zm-27,2h5v2h5v1l-2,1h-6v-3v1l-1,2h-1l-1-1v-2zm0,2h1v-1h-1zm111,2h1v1l-2,2h-1v-1zm-25,8h2v1l-2,1h-1v-1zm-92,4h2v2l-2,1h-1v-1zm-17,3h2v1h-2zm11,0h1v1l-3,3h-1v-1z"/><path d="M202,155h1v1l-2,2h-2v-1c2,0,2-1,3-2zm24,2h1l1,1v1h-1l-1-1zm-119,2h2v1h-2zm115,1h1v1l-3,3h-1v-1zm-36,1h2v1h-2zm-85,6h1v1l-1,2h-1v-2zm69,0h1v1l-1,1h-1v-1zm-3,2h1v1l-1,1h-1v-1zm-69,4h1v4h-2v-2zm5,1h1v4h-1zm-2,2h1v1l-1,1h-1v-1zm51,1h2v1l-1,1h-1zm-80,1h1l2,2v1h-1l-2-2zm26,0h1l2,2v1h-1l-2-2zm-3,6h1v2h-1zm-12,3h1l3,3v1h-1l-3-3zm11,0h1l2,2v2h-1c0-2-1-2-2-3zm49,1h2v1l-2,2h-3v-1c2,0,2-1,3-2zm-14,1h1v1l-1,1h-1v-1zm-37,3h1v1l-1,2h-1v-2z"/><path d="M104,198h1v2h-2v-1zm126,3h1v2h2v1c-2,0-2,1-3,2h-1v-1zm-120,3h2v1h-2zm31,2h1v2l-1,1h-1v-2zm89,1h1v9h-1l-1-6v-1zm-70,3h1l1,1v1h-1c-1-1-1,0-3,2h-1l-1-1v-1h1c1,1,1,0,3-2zm3,0h3v1l-2,1h-1zm29,1h1l1,1v1h-1v-1l-1,1h-1v-1zm-76,3h1v1l-1,1h-1v-1zm71,2h2v1l-1,1h-1zm42,1h2l1,1v1l-2,1h-2v-2zm-22,3h1v1l-1,1h-1v-1zm-86,1h1v3h-1zm108,0h1l1,4v4l-1,2h-1c0,2,1,1,2,1v1l-1,1h-1l-1-1v-1h-2l-1-1v-1h-2v-1l2-1h1v1l-1,1h2l2,1z"/><path d="M210,222h1v1l-1,1h-1v-1zm26,1h1v2h-1zm-51,1h1v1l-1,1h-1v-1zm30,1h1l1,1v1h-1l-1-1zm-74,4h2l1,1v1h-1l-2-1zm95,0h1v2h-1zm-122,1h2v1l-1,1h-2v-1zm-5,3h1v1l-1,2h-3v-1c2,0,2-1,3-2zm18,3h1v2c-2,0-2,1-3,2h-1v-1zm7,0h1v1l-1,1h-2v-1zm75,1h1v2h-1zm5,0h1v2h-1zm18,2h1l1,1v4h-1l-1-4zm-139,1h1l1,1v1h-1l-1-1zm67,1h1v2h-1zm28,0h2v1h-2zm49,0h1v2h-1zm-19,3h2l1,2v2h-1c0-2-1-2-2-3zm-61,1h1v1l-3,3h-1v-1zm81,0h1c0,2,1,2,2,3v1l-1,1h-1l-1-2zm-75,2h1l1,1v1l-1,1h-1v-1h1l-1-1z"/><path d="M230,248h1l1,1v1h-1l-1-1zm5,1h1l1,1v2h-1l-1-1zm-14,1h1v1l-1,1h-1v-1zm20,0h1l1,2l1,3v2h-2l-1-5zm-38,3h1l1,1v1h-1l-1-1zm31,0h1l1,1v1l-1,1h-1v-1h1l-1-1zm-87,1h2v1l-1,1h-1zm-28,1h1v2h-1zm-38,2h3v3h-1l-2-2zm163,1h1l2,4v3h-1l-1-2l-1-3zm-102,1h1v1l-1,1h-1v-1zm-46,1h3v3h-3l-1-1v-1zm98,0h3v1h-3zm-65,1h1v2h-1zm3,0h1l1,1v1h2v1l-1,1h-1c0-2-1-2-2-3zm10,1h1v1l-2,2h-2v-1c2,0,2-1,3-2zm78,4h1v2h-1zm27,0h1v4h-1zm-136,1h1v1l-1,1h-1v-1z"/><path d="M128,268h1l1,1v1h-1l-1-1zm-41,1h1l1,1v2h-1l-1-2zm108,0h1v1l-2,2h-1v-1zm-43,1h2v1l-1,2h-2v-1zm96,1h1v3h-1zm-162,1h1l1,1v1l-1,1h-1v-1h1l-1-1zm40,0h2v1h-2zm100,0h1v2h-1zm-113,2h2v1h-2zm9,1h3v1h-3zm127,0h1v2h-1zm-26,1h1l1,1v5l-1,1h-1v-1l1-2l-1,1h-1v-1l1-2h1l-1-1zm9,0h1v5h-1l-1-3v-1zm-131,1h1l1,1v2h-2v-1h1l-1-1zm59,0h1v1l-1,1h-1v-1zm20,1h1v1l-1,1h-1v-1zm-5,1h1v2h-1zm36,2h1l1,1v1h-1l-1-1zm-104,1h1v1l-1,1h2v1h-2l-1-1v-1zm122,0h1l2,1v1h-4v-1z"/><path d="M171,285h2v1l-2,1h-1v-1zm14,0h2v1l-1,1h-2v-1zm18,0h1v2h-1zm47,0h1l1,1v2h-1l-1-2zm-164,1h1v2h-1z"/></g><g style="fill:rgb(68,68,68);fill-rule:evenodd;stroke:rgb(68,68,68);stroke-width:0.1;" id="l13"><path d="M167,7h1v1l-1,1l-2,1h-1v-1l1-1zm3,0h1l2,1v1h-2l-1-1zm-2,3h2v1h-2zm-5,1h1v1l-1,1h-1v-1zm-2,5h1l1,1v1h-1l-1-1zm-9,1h2v1h-2zm-13,4h1c0,2,1,2,2,3v1h-1l-1-1v-1l-1,1h-1v-2zm-5,5h1v2h-1zm-9,1h1l1,2v1h-2zm85,0h1v2h-1zm-81,2h1v2h-2v-1zm10,6h3v1l-2,1h-1zm-21,4h1l1,1v2h-1l-1-2zm-3,4h2v1c-2,0-2,1-3,3h-1v-2zm60,0h2v1h-2zm-55,3h1v1l-1,1h-1v-1zm-3,2h1v1h-1l1,1v1h-1l-1-1v-1zm-6,1h2v1l-1,2h-1zm34,0h2v1h-2zm2,3h1v2h-2v-1zm-1,3h1l1,1v1h-1l-1-1zm-32,5h1v2h-1zm45,3h1l1,1v1h-1l-1-1z"/><path d="M174,64h1l1,1v1h-2zm-8,4h1v1h-1l1,1v1h-1l-1-1v-1zm13,6h1l1,1v1l-2,1h-3v-1h3zm-57,1h1v2h-1zm-14,6h1v1l-2,2h-1v2l-1,1h-1v3h-2v3l1-2h1v4h-1l-1-1v-1c-2,0-1,1-1,3l-1,2h-3v-4h1v1c2,0,1-1,1-3l1-2l1-1c2,0,2-2,3-4zm83,0h2v2h-1l-1-1zm2,3h1v2h-1zm-79,3h1v1l-3,3h-1v-3h1c1,1,1,0,2-1zm66,1h2v1l-1,1h-1zm13,0h1v9h-1l-1-1v-2zm-85,1h1v2l-2,1h-2v-1c2,0,2-1,3-2z"/><path d="M178,91h2v1h-2zm17,12h1v2h-1zm41,1h1l2,2v1h-1l-2-2zm-145,1h1v1h-1l1,1v1h-1l-1-1v-1zm32,4h2v1h-2zm115,1h2v1h-2zm-167,12h1l2,1v3h-2v-1c1-1,0-1-1-2zm-6,1h4v1h-4zm174,5h2v1h-2zm-88,11h5v1h-5zm83,1h2v1h-2zm-106,2h2v1l-1,1h-1zm14,1h2l1,2v1h-1l-2-2zm90,0h1l1,2v2h-1c0-2-1-1-2-1v-1zm0,8h1v2h-2v-1zm-6,8h1v1l-1,1h-1v-1zm-116,3h1v1l-2,2h-1v-1zm-4,5h2v1l-1,2h-1zm-2,3h1v2h-1zm42,5h1v1l-1,1h-1v-1zm-46,12h1v2h-1zm2,4h1v2h-1zm-10,3h1l1,1v1h-1l-1-1z"/><path d="M99,194h1v3h2v1h-2l-1-1zm-4,2h1v1l1-1h1v1l-1,1h-1l-1-1zm22,1h1v1l-1,1h-1v-1zm-19,2h1v1l-1,1h-1v-1zm13,7h2v2h-1l-1-1zm122,1h1v1l-1,2h-1v-2zm-56,6h1v2h-1zm55,7h1v3h-1zm-100,1h3v1h-3zm9,0h1v2h-2v-1zm94,2h1v8h-1zm-41,2h1v1h-1l1,1v1h-2v-2zm12,5h1l1,1v1l1-1h1v1l-1,1h-2l-1-2zm-59,3h1v1l-1,1h-1v-1zm88,0h1v4h-1zm-7,1h1l1,1v1l-1,1h-1v-1h1l-1-1zm3,0h2v1l-1,2h-1zm-110,1h2v1h-2zm45,2h1v1l-1,1h-1v-1zm41,2h2v1h-2zm7,0h2v1l-2,1h-1v-1z"/><path d="M215,241h2l2,2v1h-1l-1-1v-1h-2zm19,1h1v2h-1zm-62,10h2v1h-2zm-71,1h2v1h-2zm17,1h1v1l-1,1h-1v-1zm-29,2h1v1l-1,3h-1v-3zm64,2h1v2h-1zm83,0h1v1l-1,1h-1v-1zm-15,5h2v1h-2zm-136,1h1v2h-1zm17,0h2v2h-1v-1l-1,1h-1v-1zm28,3h1v2h-1zm-31,1h1l1,1v1h-1l-1-1zm44,3h1l1,1v1l-1,1h-1v-1h1l-1-1zm103,1h1v2h-1zm-8,2h1v2h-1zm-17,2h1v1l-1,1h-1v-1zm-17,1h1v1l-1,1h-2v-1zm43,0h1v3h-1zm-12,1h1v1l-1,1h-1v-1zm-148,2h2v1l-1,1h-1zm147,1h1v2h-1zm-76,6h1v1h-1zm5,0h1v1h-1z"/></g><g style="fill:rgb(76,76,76);fill-rule:evenodd;stroke:rgb(76,76,76);stroke-width:0.1;" id="l14"><path d="M178,9h1l3,1v1l-1,1h-1l-2-2zm-12,4h1v1l-1,1l-2,1h-1v-1l1-1zm-22,8h2v1l-2,1h-1v-1zm-20,9h1l1,1v2l-1,1h-1zm-4,6h1v3h-1zm8,7h2v1c-2,0-2,1-3,2h-1v-1zm14,1h1l1,1v1h-2zm8,6h1l1,1v1h-2zm79,5h1v1l-2,2h-1v-1zm-79,3h1l1,1v1h-1l-1-1zm26,3h2v1h-2zm52,0h1v2h-1zm1,3h1l2,1v1l-1,1h-2v-1h1l-1-1zm-50,3h2l1,1v1h-1l-2-1zm-58,3h2v1h-2zm-6,13h2v1h-2l2,2v1h-1l-2-2v-1zm124,1h1l1,1v1h-1l-1-1zm1,7h1v2h-1zm2,8h1v1l-1,1h-1v-1zm-115,8h1l1,1v1h-2zm15,43h1v1l-2,2h-2v-2h1c1,1,1,0,2-1z"/><path d="M115,156h2v1h-2zm-17,31h1v2h-1zm10,12h1v2l-1,1h-1v-1zm39,5h2v1l-1,1h-2v-1zm25,3h1v1h-1l1,1v1h-1l-1-1v-1zm-53,2h1v1l-1,1h-1v-1zm31,1h3v1h-3zm51,7h2l2,2v1h2l2,1v2h-1l-1-1v-1h-2l-2-2v-1h-2zm-58,2h2v1h-2zm-45,8h2v1l-1,1h-1zm59,1h1l1,1v1h-1l-1-1zm16,2h1v1l-1,1h-1v-1zm3,3h3v1h-3zm-89,3h2v2h-1l-1-1zm12,0h1v1l-1,3l-1,1h-1v-2l1-2zm34,3h1v1h-1l1,1v1h-1l-1-1v-1zm37,1h3v1l-2,2h3v1h-3l-2-1v-2zm0,2h1v-1h-1zm-4,0h2v1h-2zm-48,1h1v1l-1,1h-1v-1zm35,1h1l1,1v1h-1l-1-1z"/><path d="M165,247h1v2h-1zm-12,6h1l1,2v2h-1l-1-2zm-10,2h4v1l-2,1h-1l-1-1zm59,0h1v2h-1zm26,0h1v1l-1,1h-1v-1zm-83,3h1v1l-1,2l-1,1h-1v-2zm60,0h1v1l-1,1h-1v-1zm-78,1h1l1,1v1l-1,1h-1v-1h1l-1-1zm-46,4h1v2h-1zm30,1h1l1,1v1h-1l-1-1zm8,0h2v1l-2,1h-1l1,2v2h-2v-4zm-15,2h1v2h-1zm117,1h1v1l-1,2h-1v-2zm12,3h1l1,1v1h-1l-1-1zm-71,1h1v1l-1,1h-2v-1zm-62,1h2v1h-2zm63,2h2v1l-2,1h-1v-1zm36,1h1v1h-1l1,1v1h-1l-1-1v-1zm-117,1h1l2,1v1l-1,1h2v1h-2l-2-2zm143,6h1l2,2v3h-1l-1-1v-1c1-1,0-1-1-2z"/><path d="M93,284h2v1c-2,0-2,1-3,2h-1v-1zm5,2h1v1l-1,1h-1v-1zm9,1h1v1h-1z"/></g><g style="fill:rgb(132,132,132);fill-rule:evenodd;stroke:rgb(132,132,132);stroke-width:0.1;" id="l15"><path d="M171,5h1v2h-1zm-21,12h2v1h-2zm-37,27h1v1l-1,1h-1v-1zm15,0h1v1l-1,1h-1v-1zm-9,6h1v3h-1zm110,7h1l1,1v1h-2zm-110,13h1v1l-1,1h-1v-1zm35,0h2v1h-2zm87,34h2v1h-2zm-77,16h2v2h-1l-1-1zm15,41h1v1l-1,1h-2v-1zm39,3h1v1l-2,2h-1v-1zm-70,19h1v2l-1,1h-1v-2zm-64,2h2v1l-1,1h-1zm187,1h2v1h-2zm-180,3h1v1l-1,1h-1v-1zm2,5h1v1l-1,1h-1v-1zm51,20h2v1h-2zm23,0h3v1h-3zm31,0h1l1,1v1h-2zm-38,2h2v1h-2zm-50,3h1v1l-1,1h-1v-1zm-14,4h1v2h-1zm54,2h1v2h-1zm30,2h1v1l-1,1h-1v-1zm27,2h1l1,1v1h-1l-1-1zm-111,2h1l1,1v2h-1l-1-1z"/><path d="M155,231h1l1,1v1h-1l-1-1zm-71,4h1v1h-1l1,1v1h-2v-2zm137,2h3v1h-3zm-8,5h1v1l-2,2h-2v-1c2,0,2-1,3-2zm-83,3h1v2h-1zm68,2h1v1l-1,1h2l1,1v1h-1l-2-1l-1-1v-1zm-103,3h2v1h-2zm-16,5h2v1h-2zm13,5h3v1h-3zm-11,1h1v1l1-1h1v1l-1,1h-1l-1-1zm68,6h1v1l-1,1h-1v-1zm-67,6h1v2h-1zm83,1h1v2h-1zm45,2h2v1h-2zm-126,2h2l1,1v2h-1v-2h-2zm32,1h1l2,1v1h-2l-1-1zm112,1h2v1h-2z"/></g><g style="fill:rgb(156,156,156);fill-rule:evenodd;stroke:rgb(156,156,156);stroke-width:0.1;" id="l16"><path d="M152,70h2v1h-2zm63,105h1v1l-1,1h-1v-1zm-2,3h1v1l-1,1h-1v-1zm-76,31h1v1l-1,1h-1v-1zm-8,6h1v2h-1zm-15,1h1v2l-1,1h-1v-1zm22,0h2v1l-1,1h-2v-1zm27,1h2v1h-2zm-35,5h2v1h-2zm-5,2h1v1l-1,2l-1,1h-1v-1l1-2zm23,1h2v1h-2zm49,10h1v3h-1zm-99,1h1v1l-1,1h-1v-1zm58,4h1v2h-1zm8,1h2v1l-1,1h-1zm-32,6h1l1,1v1h-2zm61,3h2v1h-2zm36,2h1v1l-1,1h-1v-1zm-123,2h1v2h-1zm104,3h1l1,1v1h-1l-1-1zm-90,1h2v1h-2zm-20,1h1v1l-1,1h-1v-1zm48,8h1l1,1v1h-1l-1-1zm-26,1h4v1l-1,1h-1l-2-1zm-20,18h1v2h-1zm84,1h1v1h-1z"/></g></svg>